<svg width="24" height="24" viewBox="0 0 24 24" fill="none" xmlns="http://www.w3.org/2000/svg">
<g clip-path="url(#clip0_280_6899)">
<path d="M9.47107 14.4817C9.40896 13.3459 8.47341 12.4457 7.32089 12.4457C6.74533 12.4457 6.20419 12.6698 5.79723 13.0768L4.27357 14.6005L6.30513 16.632L6.30508 16.632L9.35241 19.6793L10.3682 18.6635L8.33665 16.632L8.84451 16.1241C9.12458 15.8441 9.58024 15.8441 9.86032 16.1241L11.384 17.6478L12.3997 16.632L10.8761 15.1084C10.4861 14.7184 9.98271 14.5097 9.47107 14.4817ZM6.30508 14.6005L6.81294 14.0926C7.09373 13.8119 7.54796 13.8119 7.8287 14.0926C8.10877 14.3726 8.10877 14.8283 7.8287 15.1084L7.32084 15.6163L6.30508 14.6005ZM-0.000976562 15.0349L7.1805 7.85338L8.19611 8.869L1.01464 16.0505L-0.000976562 15.0349ZM15.0807 16.4729L22.9803 8.57322L23.996 9.58883L16.0963 17.4885L15.0807 16.4729ZM5.40803 18.5449C5.38007 18.0333 5.17139 17.5299 4.78147 17.1399C3.94135 16.2998 2.57431 16.2998 1.73414 17.1399L0.210526 18.6635L5.28937 23.7424L6.81299 22.2187C7.65316 21.3786 7.65316 20.0116 6.81299 19.1714C6.42307 18.7815 5.91957 18.5728 5.40803 18.5449ZM3.25781 19.6793L2.24205 18.6635L2.7499 18.1556C3.02997 17.8757 3.48564 17.8756 3.76566 18.1556C4.04573 18.4358 4.04573 18.8914 3.76566 19.1715L3.25781 19.6793ZM5.79723 21.203L5.28933 21.7109L4.27357 20.695L4.78142 20.1872C5.06149 19.9072 5.51716 19.9072 5.79718 20.1872C6.07725 20.4672 6.07725 20.923 5.79723 21.203ZM13.9234 12.061L15.447 13.5846L16.4628 12.5689L12.9076 9.0137C12.0674 8.17358 10.7004 8.17358 9.86027 9.0137C9.02015 9.85387 9.02015 11.2209 9.86027 12.0611L13.4155 15.6163L14.4312 14.6005L12.9075 13.0768L13.9234 12.061ZM10.8761 10.0295C11.1561 9.74948 11.6118 9.74948 11.8919 10.0295L12.9076 11.0453L11.8919 12.0611L10.8761 11.0453C10.5961 10.7652 10.5961 10.3096 10.8761 10.0295ZM18.4943 10.5374L16.0373 8.0804L19.5283 9.50341L20.5259 8.50589L15.447 3.42705L14.4313 4.4428L16.8481 6.8596L13.4142 5.45986L12.3997 6.47437L17.4785 11.5532L18.4943 10.5374ZM23.0653 5.96647C23.9055 5.12625 23.9055 3.75926 23.0653 2.91909L21.0337 0.887574C20.1936 0.0474517 18.8266 0.0473559 17.9864 0.887574L16.4628 2.41119L21.5416 7.49004L23.0653 5.96647ZM19.0022 1.90338C19.2824 1.62326 19.7379 1.62336 20.018 1.90338L22.0496 3.9349C22.3297 4.21502 22.3297 4.67064 22.0496 4.95066L21.5417 5.45856L18.4943 2.41124L19.0022 1.90338Z" fill="#3C3C3B"/>
</g>
<defs>
<clipPath id="clip0_280_6899">
<rect width="24" height="24" fill="white"/>
</clipPath>
</defs>
</svg>
