<svg width="40" height="40" viewBox="0 0 40 40" fill="none" xmlns="http://www.w3.org/2000/svg">
<g clip-path="url(#clip0_214_12705)">
<path d="M39.9964 11.7283L30.7649 16.2942V21.4382C30.7649 22.0852 30.2404 22.6097 29.5934 22.6097C28.9465 22.6097 28.422 22.0852 28.422 21.4382V17.4531L20.7355 21.2549V39.8717C20.7596 39.8606 20.784 39.8503 20.8078 39.8384L38.4783 30.8849C39.417 30.4155 40 29.4724 40 28.4224V11.8318C40 11.7971 39.9977 11.7628 39.9964 11.7283Z" fill="#90C8E8"/>
<path fill-rule="evenodd" clip-rule="evenodd" d="M0 11.8114C0.00027852 11.7575 0.00212826 11.7036 0.00554687 11.6498L18.3926 21.2378V39.856L18.3697 39.8452C18.3489 39.8354 18.3281 39.8256 18.3077 39.8149L18.3001 39.811L1.47625 30.8819C0.565625 30.4051 0 29.471 0 28.4428L0 11.8114ZM7.9718 28.288L12.637 25.551C13.195 25.2235 13.382 24.5059 13.054 23.9477C12.7265 23.3896 12.0086 23.2027 11.4509 23.53L7.82289 25.6585L7.06109 24.2783C6.74836 23.7118 6.03555 23.5061 5.46938 23.8188C4.90289 24.1314 4.69711 24.8441 5.00977 25.4105L6.35266 27.8435L6.35866 27.8537L6.36312 27.861L6.3654 27.8654L6.36789 27.8702L6.37524 27.8819L6.3807 27.8905C6.38821 27.9028 6.39594 27.9151 6.40391 27.9271C6.41076 27.9373 6.41776 27.9473 6.42492 27.9573C6.43336 27.9691 6.4418 27.9809 6.45055 27.9923C6.45797 28.002 6.4657 28.0113 6.47336 28.0206C6.48234 28.0316 6.49133 28.0426 6.5007 28.0531C6.50891 28.0624 6.51734 28.0713 6.52578 28.0803L6.54577 28.1014L6.55414 28.1099C6.5611 28.1168 6.56825 28.1234 6.5754 28.13L6.58187 28.136L6.58676 28.1406C6.59467 28.1479 6.60262 28.1553 6.61078 28.1624C6.62078 28.171 6.63109 28.1793 6.64133 28.1876L6.65622 28.1997L6.67031 28.2107C6.67949 28.2177 6.68889 28.2243 6.69828 28.2309L6.70367 28.2347L6.71164 28.2403C6.71866 28.2453 6.72569 28.2503 6.73289 28.255C6.74289 28.2616 6.75312 28.2678 6.76334 28.274L6.76859 28.2772L6.77664 28.2821C6.78368 28.2865 6.7907 28.2908 6.79789 28.2949C6.80859 28.3009 6.81951 28.3066 6.83042 28.3123L6.83594 28.3152L6.8538 28.3246L6.86523 28.3304C6.87828 28.3367 6.89164 28.3425 6.90492 28.3484L6.91451 28.3527C6.92122 28.3557 6.92794 28.3587 6.93476 28.3615C6.94641 28.3663 6.95822 28.3706 6.97001 28.3748L6.97523 28.3767L6.98334 28.3798C6.99093 28.3826 6.99851 28.3855 7.00617 28.3881C7.01159 28.3899 7.01703 28.3916 7.02248 28.3932C7.02741 28.3947 7.03234 28.3962 7.03729 28.3976L7.04703 28.4005L7.05811 28.4038C7.06502 28.406 7.07196 28.4081 7.07898 28.4099C7.08863 28.4125 7.09835 28.4147 7.10806 28.4168L7.11977 28.4195L7.13182 28.4223C7.13892 28.424 7.14601 28.4256 7.1532 28.427C7.16625 28.4295 7.17938 28.4314 7.1925 28.4335L7.20361 28.4354C7.2087 28.4363 7.21405 28.4372 7.21916 28.438C7.22222 28.4385 7.22528 28.4389 7.22836 28.4393C7.2407 28.4409 7.25313 28.4417 7.26555 28.443L7.27537 28.444C7.28496 28.4451 7.29453 28.4461 7.30414 28.4467C7.31508 28.4474 7.32609 28.4474 7.33711 28.4478L7.34867 28.4483C7.35401 28.4486 7.35934 28.4488 7.36468 28.449C7.36972 28.4491 7.37477 28.4492 7.37984 28.4492C7.40453 28.4492 7.42938 28.4484 7.45414 28.4468C7.46023 28.4464 7.46633 28.4456 7.47242 28.4451C7.49094 28.4437 7.50937 28.4421 7.52781 28.4397L7.54544 28.437L7.55531 28.4354C7.57062 28.4331 7.58594 28.4309 7.60117 28.4279C7.60936 28.4263 7.6175 28.4244 7.62563 28.4226L7.63336 28.4208L7.64132 28.419C7.65219 28.4166 7.66304 28.4142 7.67391 28.4113C7.68562 28.4083 7.69719 28.4047 7.70883 28.4013L7.71489 28.3995C7.72531 28.3964 7.73576 28.3933 7.74609 28.3899C7.75813 28.386 7.77008 28.3814 7.78211 28.3771L7.7879 28.3749L7.80486 28.3686L7.8175 28.3636C7.82901 28.359 7.84038 28.3539 7.85181 28.3488L7.85383 28.3479L7.87342 28.3391L7.88797 28.3323C7.89992 28.3265 7.9118 28.3203 7.92367 28.3141L7.93265 28.3095L7.945 28.3031L7.95359 28.2978C7.95961 28.2945 7.96578 28.2915 7.9718 28.288Z" fill="#90C8E8"/>
<path d="M38.4783 9.36932L20.8151 0.41955L20.8077 0.415879C20.0212 0.0243161 19.0867 0.0330661 18.3076 0.439316L11.1934 4.21502L29.8941 14.111L38.9207 9.64642C38.7822 9.54039 38.6341 9.44761 38.4783 9.36932Z" fill="#90C8E8"/>
<path d="M8.6925 5.54236L1.47633 9.37228C1.35417 9.43654 1.23697 9.50982 1.1257 9.5915L19.5781 19.2136L27.3051 15.3917L8.6925 5.54236Z" fill="#90C8E8"/>
<path d="M12.637 25.551L7.9718 28.288C7.96578 28.2915 7.95961 28.2945 7.95359 28.2978L7.945 28.3031L7.93265 28.3095L7.92367 28.3141C7.9118 28.3203 7.89992 28.3265 7.88797 28.3323L7.87342 28.3391L7.85383 28.3479L7.85181 28.3488C7.84038 28.3539 7.82901 28.359 7.8175 28.3636L7.80486 28.3686L7.7879 28.3749L7.78211 28.3771C7.77008 28.3814 7.75813 28.386 7.74609 28.3899C7.73576 28.3933 7.72531 28.3964 7.71489 28.3995L7.70883 28.4013C7.69719 28.4047 7.68562 28.4083 7.67391 28.4113C7.66304 28.4142 7.65219 28.4166 7.64132 28.419L7.63336 28.4208L7.62563 28.4226C7.6175 28.4244 7.60936 28.4263 7.60117 28.4279C7.58594 28.4309 7.57062 28.4331 7.55531 28.4354L7.54544 28.437L7.52781 28.4397C7.50937 28.4421 7.49094 28.4437 7.47242 28.4451C7.46633 28.4456 7.46023 28.4464 7.45414 28.4468C7.42938 28.4484 7.40453 28.4492 7.37984 28.4492L7.36468 28.449L7.34867 28.4483L7.33711 28.4478C7.32609 28.4474 7.31508 28.4474 7.30414 28.4467C7.29453 28.4461 7.28496 28.4451 7.27537 28.444L7.26555 28.443C7.25313 28.4417 7.2407 28.4409 7.22836 28.4393L7.21916 28.438L7.20361 28.4354L7.1925 28.4335C7.17938 28.4314 7.16625 28.4295 7.1532 28.427C7.14601 28.4256 7.13892 28.424 7.13182 28.4223L7.11977 28.4195L7.10806 28.4168C7.09835 28.4147 7.08863 28.4125 7.07898 28.4099C7.07196 28.4081 7.06502 28.406 7.05811 28.4038L7.04703 28.4005L7.03729 28.3976L7.02248 28.3932L7.00617 28.3881C6.99851 28.3855 6.99093 28.3826 6.98334 28.3798L6.97523 28.3767L6.97001 28.3748C6.95822 28.3706 6.94641 28.3663 6.93476 28.3615C6.92794 28.3587 6.92122 28.3557 6.91451 28.3527L6.90492 28.3484C6.89164 28.3425 6.87828 28.3367 6.86523 28.3304L6.8538 28.3246L6.83594 28.3152L6.83042 28.3123C6.81951 28.3066 6.80859 28.3009 6.79789 28.2949C6.7907 28.2908 6.78368 28.2865 6.77664 28.2821L6.76859 28.2772L6.76334 28.274C6.75312 28.2678 6.74289 28.2616 6.73289 28.255C6.72569 28.2503 6.71866 28.2453 6.71164 28.2403L6.70367 28.2347L6.69828 28.2309C6.68889 28.2243 6.67949 28.2177 6.67031 28.2107L6.65622 28.1997L6.64133 28.1876C6.63109 28.1793 6.62078 28.171 6.61078 28.1624C6.60262 28.1553 6.59467 28.1479 6.58676 28.1406L6.58187 28.136L6.5754 28.13C6.56825 28.1234 6.5611 28.1168 6.55414 28.1099L6.54577 28.1014L6.52578 28.0803C6.51734 28.0713 6.50891 28.0624 6.5007 28.0531C6.49133 28.0426 6.48234 28.0316 6.47336 28.0206C6.4657 28.0113 6.45797 28.002 6.45055 27.9923C6.4418 27.9809 6.43336 27.9691 6.42492 27.9573C6.41776 27.9473 6.41076 27.9373 6.40391 27.9271C6.39594 27.9151 6.38821 27.9028 6.3807 27.8905L6.37524 27.8819L6.36789 27.8702L6.3654 27.8654L6.36312 27.861L6.35866 27.8537L6.35266 27.8435L5.00977 25.4105C4.69711 24.8441 4.90289 24.1314 5.46938 23.8188C6.03555 23.5061 6.74836 23.7118 7.06109 24.2783L7.82289 25.6585L11.4509 23.53C12.0086 23.2027 12.7265 23.3896 13.054 23.9477C13.382 24.5059 13.195 25.2235 12.637 25.551Z" fill="#407898"/>
</g>
<defs>
<clipPath id="clip0_214_12705">
<rect width="40" height="40" fill="white"/>
</clipPath>
</defs>
</svg>
