<svg width="40" height="40" viewBox="0 0 40 40" fill="none" xmlns="http://www.w3.org/2000/svg">
<path d="M40 27.0703C40 22.1066 37.1523 17.6767 32.8875 15.5219C32.7552 25.039 25.0391 32.7551 15.5219 32.8875C17.6767 37.1523 22.1066 40 27.0703 40C29.3977 40 31.6608 39.3801 33.6492 38.2025L39.9435 39.9435L38.2025 33.6493C39.3802 31.6608 40 29.3976 40 27.0703Z" fill="#EBAF8C"/>
<path d="M30.5469 15.2734C30.5469 6.85156 23.6953 0 15.2734 0C6.85156 0 0 6.85156 0 15.2734C0 18.0182 0.730625 20.6906 2.11797 23.0368L0.0560937 30.4904L7.51 28.429C9.85625 29.8162 12.5287 30.5469 15.2734 30.5469C23.6953 30.5469 30.5469 23.6953 30.5469 15.2734ZM12.9297 11.7188H10.5859C10.5859 9.13391 12.6886 7.03125 15.2734 7.03125C17.8583 7.03125 19.9609 9.13391 19.9609 11.7188C19.9609 13.0307 19.4055 14.2917 18.4366 15.1779L16.4453 17.0004V18.8281H14.1016V15.9684L16.8542 13.4488C17.3462 12.9987 17.6172 12.3844 17.6172 11.7188C17.6172 10.4263 16.5659 9.375 15.2734 9.375C13.981 9.375 12.9297 10.4263 12.9297 11.7188ZM14.1016 21.1719H16.4453V23.5156H14.1016V21.1719Z" fill="#FFC3A0"/>
</svg>
