<svg width="1198" height="183" viewBox="0 0 1198 183" fill="none" xmlns="http://www.w3.org/2000/svg">
<path d="M121.879 65.0664C118.46 65.2338 115.041 65.4251 111.622 65.6403C108.274 65.8793 104.999 66.2619 101.819 66.8119C93.6413 68.4378 86.2291 72.3351 79.5343 78.4801C72.9111 84.5533 70.5201 92.085 72.2894 101.123C73.1502 105.236 75.087 108.464 78.1236 110.807C82.9534 114.608 89.3614 116.45 97.3713 116.282C105.381 116.043 112.315 115.278 118.149 113.939C121.425 112.839 124.605 113.006 127.713 114.393C130.583 115.804 133.189 118.219 135.532 121.638C139.19 127.233 141.677 134.717 142.992 144.042C144.403 153.367 143.877 161.09 141.486 167.139C139.549 172.113 136.584 175.078 132.615 176.01C119.847 180.673 105.812 182.968 90.4852 182.896C75.1587 182.729 61.4342 179.907 49.2878 174.384C32.8853 166.996 20.3085 156.093 11.6052 141.723C2.90187 127.353 -0.565113 110.926 1.22816 92.4915C4.26476 63.321 15.8134 40.5345 35.898 24.132C55.9587 7.70569 80.9211 1.08254 110.809 4.28652C115.782 4.83645 120.182 7.44267 123.983 12.1052C127.713 16.7677 130.798 24.8972 133.213 36.4936C135.699 48.0901 134.265 56.5544 128.885 61.9342C126.853 63.9665 124.533 64.9947 121.879 65.0903V65.0664ZM156.43 177.086C155.569 174.91 154.756 167.235 153.991 154.108C153.202 140.886 152.7 125.631 152.484 108.368C152.174 91.1047 152.174 73.5546 152.484 55.7414C152.724 37.9283 153.417 23.2952 154.589 11.8661C154.971 9.06857 158.701 6.91665 165.779 5.45812C172.784 4.04741 180.483 3.52139 188.876 3.83222C197.197 4.07132 204.872 5.14729 211.854 7.10793C218.859 9.04466 222.422 11.89 222.589 15.62C222.9 18.6566 222.948 23.3908 222.709 29.8466C222.398 36.3024 222.135 43.6667 221.896 51.8918C225.554 46.6077 231.436 38.6934 239.518 28.1968C247.528 17.7719 254.223 11.364 259.578 8.94902C263.237 7.39485 268.497 6.22325 275.335 5.45812C282.174 4.66908 288.94 4.40607 295.635 4.64517C302.33 4.81254 308.284 5.50594 313.496 6.74927C318.637 7.92088 321.363 9.61851 321.673 11.89C323.467 23.1039 324.591 37.5696 325.069 55.311C325.547 73.1242 325.571 90.6265 325.188 107.818C324.71 125.153 323.897 140.455 322.749 153.678C321.506 167.068 320.024 174.886 318.302 177.134C316.82 180.242 309.073 182.107 295.085 182.729C281.002 183.35 271.079 182.346 265.341 179.692C263.404 178.76 261.802 173.356 260.559 163.481C259.315 153.534 258.12 141.627 256.948 127.783C255.777 129.409 253.027 132.828 248.675 138.064C244.395 143.277 239.566 148.848 234.21 154.754C228.926 160.588 223.737 166.039 218.692 171.085C213.647 176.058 209.773 179.142 207.143 180.314C205.278 181.175 201.787 181.82 196.647 182.298C191.434 182.777 186.031 182.92 180.436 182.777C174.745 182.609 169.58 182.107 164.918 181.27C160.255 180.41 157.458 179.047 156.525 177.182L156.43 177.086ZM395.293 134.837C397.158 139.045 402.801 139.858 412.222 137.275C421.642 134.621 425.635 129.337 424.249 121.399C423.244 115.637 419.658 111.213 413.513 108.105C407.368 104.925 401.725 104.494 396.584 106.814C393.93 108.057 392.615 112.074 392.615 118.841C392.543 125.535 393.428 130.867 395.293 134.837ZM468.1 84.888C474.412 90.2678 478.788 96.6279 481.298 104.016C484.574 113.963 484.885 124.483 482.231 135.53C479.362 147.652 473.217 158.125 463.796 166.924C454.375 175.627 443.018 180.625 429.724 181.868C426.926 182.179 421.475 182.466 413.393 182.681C405.312 182.848 396.584 182.92 387.259 182.92C377.934 182.848 369.135 182.561 360.886 182.107C352.637 181.557 347.066 180.673 344.197 179.429C341.471 178.353 339.367 170.415 337.885 155.638C336.402 140.934 335.446 124.364 334.968 105.929C334.489 87.4942 334.465 69.7528 334.848 52.7287C335.231 37.0914 335.9 26.2122 336.833 20.0673C337.072 17.7241 337.406 15.5483 337.885 13.5398C338.985 8.18389 340.85 5.29075 343.48 4.90818C350.868 3.97568 360.408 3.3062 372.076 2.92363C383.745 2.54107 395.293 2.42152 406.722 2.56498C418.08 2.73235 428.146 3.13882 436.945 3.85613C445.648 4.54953 450.837 5.52985 452.463 6.77318C455.26 8.01652 456.982 14.7114 457.603 26.8339C458.153 39.052 457.125 47.2533 454.567 51.4615C453.491 53.2547 447.944 54.6415 437.997 55.6697C428.05 56.6739 416.956 57.3912 404.738 57.7738C400.625 57.8455 396.465 57.9172 392.257 58.0129L392.496 59.5192C392.807 62.1733 393.309 64.2535 394.002 65.8076C410.811 62.9384 427.07 64.4447 442.779 70.3506C451.267 73.5306 459.038 77.9062 466.115 83.4295C466.354 83.5969 466.737 83.9077 467.287 84.362C467.454 84.5294 467.646 84.6728 467.861 84.8402L467.98 84.9597H468.1V84.888ZM496.457 178.951C494.975 177.397 494.21 175.484 494.114 173.236C493.947 165.681 495.286 154.323 498.083 139.164C500.881 124.005 504.396 108.248 508.58 91.9176C512.788 75.4913 517.212 60.1409 521.874 45.8186C526.608 31.4964 530.745 21.4302 534.236 15.5961C535.646 13.3485 539.711 11.3161 546.478 9.52286C553.316 7.65786 560.872 6.36671 569.121 5.67331C577.37 4.97992 585.308 5.00383 592.935 5.79286C600.563 6.48626 605.895 8.23171 608.931 11.0531C613.283 15.2613 618.424 24.4668 624.33 38.7173C630.331 52.9439 636.165 68.4856 641.832 85.2706C647.522 101.984 652.615 118.052 657.11 133.474C661.63 148.872 664.618 159.775 666.101 166.135C667.105 170.798 666.794 174.073 665.168 175.938C663.542 177.732 660.697 178.975 656.656 179.668C649.818 180.84 641.282 181.725 631.096 182.346C620.982 182.896 614.646 183.016 612.087 182.705C611.083 182.538 610.151 182.203 609.29 181.653C606.492 179.931 603.767 175.03 601.113 166.948C598.554 158.771 596.02 153.176 593.533 150.139C592.051 148.346 590.114 147.294 587.699 146.983L568.571 146.863C562.569 147.031 558.696 148.991 556.903 152.817C554.559 157.719 551.929 163.17 548.964 169.148C546 175.149 543.824 178.831 542.437 180.242C541.743 181.103 540.691 181.677 539.281 181.988C536.101 182.681 528.545 182.872 516.638 182.561C504.802 182.179 498.083 180.959 496.457 178.951ZM572.062 76.0412C569.503 78.767 566.921 83.3578 564.363 89.8135C561.876 96.1976 560.967 100.406 561.685 102.414C562.856 105.833 567.877 107.388 576.748 107.077C585.691 106.694 590.544 104.518 591.333 100.549C591.812 98.1343 589.468 92.6589 584.328 84.099C579.187 75.4674 575.098 72.7894 572.086 76.0412H572.062ZM804.278 90.8656C810.662 98.493 814.512 107.483 815.827 117.812C817.764 132.828 813.603 146.29 803.346 158.197C791.199 172.28 774.749 180.362 753.995 182.466C733.312 184.474 715.404 180.123 700.316 169.387C687.333 160.277 679.204 148.8 675.928 134.956C674.517 128.429 677.793 123.36 685.731 119.797C689.222 118.171 693.071 116.999 697.28 116.306C701.56 115.613 705.648 115.23 709.546 115.134C715.93 115.134 721.668 115.924 726.809 117.478C731.95 118.96 734.867 121.088 735.56 123.886C735.632 124.436 735.823 124.986 736.134 125.512C736.995 127.448 738.621 128.907 741.036 129.839C743.905 131.011 747.252 130.844 751.078 129.385C754.975 127.831 756.099 125.225 754.473 121.566C754.234 121.184 753.971 120.825 753.66 120.514C751.245 118.267 748.137 115.876 744.335 113.389C735.321 107.388 730.945 100.501 731.256 92.7306C731.328 90.8656 732.045 87.9485 733.36 83.9794C734.365 80.8711 736.947 77.165 741.059 72.8851C745.268 68.5334 749.117 65.6403 752.608 64.2535L752.728 63.8948C752.895 63.7513 752.991 63.5361 753.086 63.321C753.325 62.6276 753.397 62.0776 753.325 61.6951C752.871 58.8976 750.982 56.8413 747.73 55.5023C744.455 54.0916 740.892 53.8286 736.995 54.6894C733.193 55.5501 731.208 58.2759 731.041 62.8667C730.874 64.5882 730.252 66.0467 729.176 67.2901C727 69.6333 722.983 70.757 717.149 70.6853C711.387 70.6136 705.72 69.9919 700.101 68.8203C696.299 68.0313 692.713 67.027 689.365 65.7837C686.09 64.5404 683.173 62.3885 680.614 59.3758C677.578 55.8849 678.247 49.6204 682.599 40.5823C686.951 31.5681 690.872 25.208 694.387 21.5736C705.577 9.97716 719.205 3.06709 735.225 0.795619C751.245 -1.45195 766.141 1.05863 779.914 8.37517C792.992 15.3809 802.676 26.7622 808.965 42.5668C815.253 58.3476 814.56 73.1003 806.86 86.8008C806.071 88.2115 805.235 89.5744 804.302 90.8895L804.278 90.8656ZM1004.41 106.264C1000.37 130.772 988.459 150.522 968.709 165.537C949.031 180.553 926.125 185.885 899.991 181.533C874.789 177.325 854.944 165.322 840.478 145.477C826.013 125.631 820.728 103.658 824.602 79.556C828.26 57.1521 839.068 38.3586 857.048 23.1995C875.1 7.94479 896.07 1.36947 919.932 3.47357C948.72 5.96024 971.076 16.8872 987.024 36.2545C1003.04 55.6219 1008.85 78.9583 1004.41 106.264ZM937.434 96.341C938.51 89.6462 937.243 83.9794 933.585 79.293C929.998 74.5588 924.762 71.5939 917.828 70.4223C911.3 69.3224 905.538 70.781 900.565 74.7501C895.591 78.6474 892.627 83.573 891.694 89.5744C890.451 96.8192 892.483 103.227 897.767 108.822C903.051 114.345 909.603 116.641 917.374 115.708C922.73 115.158 927.225 113.054 930.787 109.42C934.374 105.762 936.574 101.41 937.434 96.341ZM1195.78 106.264C1191.74 130.772 1179.84 150.522 1160.09 165.537C1140.41 180.553 1117.5 185.885 1091.37 181.533C1066.17 177.325 1046.32 165.322 1031.86 145.477C1017.39 125.631 1012.11 103.658 1015.98 79.556C1019.64 57.1521 1030.45 38.3586 1048.43 23.1995C1066.48 7.94479 1087.45 1.36947 1111.31 3.47357C1140.1 5.96024 1162.45 16.8872 1178.4 36.2545C1194.42 55.6219 1200.23 78.9583 1195.78 106.264ZM1128.81 96.341C1129.91 89.6462 1128.62 83.9794 1124.96 79.293C1121.38 74.5588 1116.14 71.5939 1109.21 70.4223C1102.68 69.3224 1096.92 70.781 1091.94 74.7501C1086.97 78.6474 1084 83.573 1083.07 89.5744C1081.83 96.8192 1083.86 103.227 1089.15 108.822C1094.43 114.345 1100.98 116.641 1108.75 115.708C1114.13 115.158 1118.6 113.054 1122.17 109.42C1125.75 105.762 1127.95 101.41 1128.81 96.341Z" fill="#FFA0A0"/>
</svg>
