<svg width="337" height="350" viewBox="0 0 337 350" fill="none" xmlns="http://www.w3.org/2000/svg">
<rect x="0.895508" width="335.523" height="350" rx="167.762" fill="white"/>
<path d="M276.909 162.208C277.479 156.162 277.775 150.037 277.775 143.833C277.775 138.222 277.539 132.667 277.062 127.176C275.22 105.468 269.789 84.7778 261.377 65.713C259.011 60.338 256.409 55.0972 253.581 50C248.511 51.9954 243.604 54.3287 238.9 56.9676C221.997 66.4352 207.632 79.8889 197.071 96.0602C187.775 94.6944 178.261 93.9815 168.576 93.9815C158.891 93.9815 148.928 94.7222 139.423 96.1667C126.016 75.6019 106.456 59.4028 83.3492 50.1991C70.5251 73.3889 62.3075 99.4907 59.965 127.255C59.4974 132.713 59.2612 138.25 59.2612 143.833C59.2612 145.449 59.2798 147.051 59.3168 148.648C59.4325 153.356 59.715 158.019 60.164 162.634C59.5066 163.81 58.8909 165.009 58.3029 166.222C53.5529 175.977 50.8955 186.935 50.8955 198.509C50.8955 200.866 51.0112 203.19 51.2196 205.481C52.6825 221.093 58.9788 235.287 68.6177 246.56C68.6177 246.56 68.6239 246.566 68.6362 246.579C72.6038 250.616 76.7659 254.477 81.0668 258.144C81.0853 258.162 81.1131 258.181 81.1316 258.19C85.1964 261.667 89.3909 264.958 93.7335 268.074C101.511 273.667 109.724 278.699 118.308 283.097C131.599 289.935 145.789 295.282 160.659 298.898C161.581 299.125 162.502 299.347 163.433 299.546C165.067 299.852 166.757 300 168.474 300C170.192 300 172.016 299.829 173.715 299.514C174.53 299.324 175.34 299.134 176.145 298.935C189.363 295.727 202.039 291.157 214.044 285.384C215.659 284.625 217.243 283.829 218.831 283.009C227.27 278.671 235.354 273.722 243.007 268.236C246.757 265.551 250.414 262.727 253.956 259.778C253.965 259.769 253.974 259.759 253.983 259.75C259.854 254.889 265.437 249.667 270.687 244.139C270.696 244.13 270.706 244.12 270.706 244.12C280.553 231.546 286.419 215.718 286.419 198.514C286.419 185.315 282.965 172.935 276.914 162.213L276.909 162.208ZM117.581 204.94C107.914 204.94 100.081 197.106 100.081 187.44C100.081 177.773 107.914 169.949 117.581 169.949C127.247 169.949 135.071 177.782 135.071 187.44C135.071 197.097 127.238 204.94 117.581 204.94ZM217.437 231.764C217.4 231.847 217.354 231.935 217.303 232.019C216.21 234.278 214.988 236.472 213.664 238.588C208.539 246.81 201.84 253.963 193.997 259.602C189.84 262.593 185.358 265.167 180.608 267.245C180.4 267.347 180.192 267.444 179.974 267.532C176.632 268.926 172.956 269.699 169.113 269.699C165.715 269.699 162.456 269.102 159.437 268C159.428 267.991 159.419 267.991 159.4 267.981C158.326 267.546 157.275 267.079 156.229 266.593C151.641 264.458 147.312 261.866 143.303 258.866C135.858 253.319 129.507 246.407 124.585 238.509C123.312 236.468 122.136 234.361 121.071 232.185C120.997 232.032 120.919 231.884 120.845 231.722C120.729 231.426 120.664 231.106 120.664 230.773C120.664 229.282 121.868 228.074 123.363 228.074C124.257 228.074 125.044 228.509 125.521 229.176C125.604 229.31 125.683 229.435 125.766 229.556C126.146 230.125 126.553 230.676 126.983 231.218C130.479 235.699 135.303 239.097 140.877 240.819C143.516 241.644 146.335 242.093 149.252 242.093C153.706 242.093 157.923 241.056 161.673 239.227C161.97 239.083 162.261 238.931 162.548 238.778C164.516 237.602 165.835 235.454 165.835 232.995C165.835 232.5 165.789 232.028 165.683 231.569C165.627 231.306 165.548 231.046 165.456 230.792C162.178 230.014 159.132 228.653 156.414 226.833C153.919 225.171 151.706 223.12 149.863 220.764C148.923 219.588 148.085 218.324 147.358 216.995C147.206 216.718 147.053 216.444 146.923 216.157C146.905 216.13 146.895 216.102 146.886 216.083C146.544 215.278 146.354 214.384 146.354 213.463C146.354 210.968 147.71 208.782 149.733 207.625C149.733 207.625 149.733 207.616 149.752 207.616C150.122 207.435 150.502 207.273 150.882 207.111C150.882 207.093 150.909 207.093 150.928 207.093C154.604 205.486 158.516 204.366 162.608 203.787C164.733 203.481 166.909 203.324 169.122 203.324C171.335 203.324 173.539 203.486 175.673 203.787C179.831 204.384 183.812 205.546 187.525 207.176C187.534 207.167 187.544 207.185 187.544 207.185C187.687 207.241 187.817 207.301 187.96 207.366C188.104 207.412 188.247 207.491 188.377 207.556C190.456 208.704 191.863 210.917 191.863 213.463C191.863 214.593 191.59 215.657 191.095 216.597C191.076 216.634 191.058 216.662 191.039 216.699C190.27 218.134 189.377 219.491 188.372 220.755C186.539 223.102 184.335 225.153 181.849 226.815C179.15 228.63 176.122 229.977 172.868 230.764C172.77 231.028 172.696 231.296 172.641 231.569C172.534 232.023 172.488 232.5 172.488 232.995C172.488 235.542 173.891 237.755 175.974 238.894C176.03 238.931 176.099 238.968 176.164 239C180.02 240.986 184.395 242.097 189.03 242.097C191.937 242.097 194.738 241.662 197.377 240.843C202.951 239.125 207.784 235.727 211.28 231.241C211.757 230.662 212.192 230.056 212.599 229.435C212.655 229.319 212.733 229.218 212.808 229.111C213.294 228.458 214.081 228.028 214.974 228.028C216.456 228.028 217.659 229.231 217.659 230.718C217.659 231.088 217.585 231.44 217.451 231.773L217.437 231.764ZM260.025 145.981C251.715 131.546 238.678 120.181 223.03 113.991C230.655 100.421 239.868 87.8611 250.395 76.5694C257.53 91.9028 261.516 108.995 261.516 127.028C261.516 133.477 261.002 139.81 260.025 145.981Z" fill="white"/>
<path d="M210.742 205.861C210.599 205.764 210.455 205.671 210.316 205.574C210.307 205.574 210.307 205.565 210.298 205.565C201.011 199.44 190.261 195.347 178.696 193.944C178.687 193.935 178.677 193.944 178.677 193.944C177.539 193.792 176.409 193.681 175.261 193.602C173.4 193.458 171.52 193.384 169.622 193.384C167.724 193.384 165.756 193.458 163.858 193.611C162.719 193.685 161.589 193.801 160.469 193.954C148.654 195.398 137.719 199.634 128.307 205.968H128.289C123.363 210.176 117.275 212.245 110.302 212.245C108.127 212.245 106.011 212 103.978 211.532C102.58 211.144 101.196 210.704 99.8395 210.231C91.2376 207.278 83.3626 202.769 76.5293 197.051C76.1034 196.644 75.6543 196.264 75.1913 195.903C72.2469 193.634 68.5432 192.287 64.5478 192.287C59.0293 192.287 54.1126 194.843 50.9043 198.829V198.514C50.9043 188.602 52.8487 179.144 56.4043 170.5C56.9923 169.046 57.6311 167.625 58.3117 166.227C58.8997 165.014 59.5154 163.815 60.1728 162.639C59.7284 158.023 59.4413 153.361 59.3256 148.653C59.2886 147.056 59.27 145.454 59.27 143.838C59.27 138.255 59.5061 132.718 59.9737 127.259C60.9136 116.139 62.7932 105.296 65.5386 94.7917C69.6219 79.0556 75.6589 64.1019 83.3487 50.1991C93.9737 54.4259 103.839 60.1296 112.701 67.0741C123.136 75.213 132.177 85.0509 139.423 96.1667C145.224 95.2824 151.113 94.6667 157.076 94.3241C160.872 94.0972 164.71 93.9815 168.576 93.9815C173.136 93.9815 177.654 94.1435 182.127 94.4491C187.168 94.8009 192.154 95.3426 197.071 96.0648C204.39 84.8519 213.557 74.9352 224.122 66.7593C228.784 63.1435 233.724 59.875 238.895 56.9676C243.594 54.3287 248.506 51.9907 253.576 50C256.404 55.0972 259.006 60.3426 261.372 65.713C264.983 73.8981 268.048 82.3889 270.506 91.125C273.793 102.736 276.006 114.796 277.057 127.181C277.534 132.667 277.77 138.222 277.77 143.838C277.77 150.037 277.474 156.162 276.904 162.213C278.765 165.509 280.39 168.972 281.728 172.565C284.566 180.144 286.201 188.319 286.39 196.843V196.968C283.275 194.065 279.099 192.287 274.492 192.287C270.705 192.287 267.201 193.481 264.339 195.532C263.515 196.111 262.742 196.778 262.034 197.5C255.122 203.19 247.164 207.634 238.492 210.509C238.492 210.509 238.464 210.509 238.446 210.528C237.515 210.833 236.566 211.125 235.617 211.394C233.414 211.954 231.108 212.25 228.733 212.25C223.015 212.25 217.682 210.551 213.238 207.625C212.696 207.218 212.136 206.829 211.576 206.449C211.252 206.204 210.742 205.87 210.742 205.87V205.861Z" fill="#FFEAEA"/>
<path d="M135.062 187.439C135.062 197.106 127.229 204.939 117.571 204.939C107.914 204.939 100.071 197.106 100.071 187.439C100.071 177.773 107.905 169.949 117.571 169.949C127.238 169.949 135.062 177.782 135.062 187.439Z" fill="#3C3C3B"/>
<path d="M123.021 189.597C126.738 189.597 129.752 186.583 129.752 182.866C129.752 179.148 126.738 176.134 123.021 176.134C119.303 176.134 116.289 179.148 116.289 182.866C116.289 186.583 119.303 189.597 123.021 189.597Z" fill="white"/>
<path d="M201.733 191.495C201.247 191.982 200.613 192.227 199.872 192.227C198.381 192.227 197.173 191.023 197.173 189.528C197.173 188.986 197.335 188.482 197.608 188.065C197.645 188.009 197.682 187.949 197.733 187.894C197.733 187.884 197.742 187.875 197.752 187.866C197.77 187.847 197.779 187.838 197.789 187.82C202.946 181.051 211.103 176.681 220.275 176.681C229.446 176.681 237.64 181.079 242.798 187.875C242.872 187.972 242.941 188.065 243.006 188.171C243.27 188.579 243.414 189.074 243.414 189.588C243.414 191.079 242.21 192.287 240.728 192.287C240.071 192.287 239.483 192.06 239.02 191.681C238.955 191.625 238.886 191.565 238.821 191.5C233.853 187.181 227.367 184.56 220.275 184.56C219.326 184.56 218.395 184.607 217.474 184.704C216.668 184.778 215.867 184.894 215.08 185.037C212.974 185.426 210.951 186.051 209.043 186.889C208.664 187.051 208.284 187.222 207.914 187.412C207.534 187.593 207.164 187.783 206.802 187.982C206.441 188.171 206.08 188.38 205.728 188.597C205.377 188.806 205.025 189.023 204.682 189.25C204.34 189.477 203.997 189.704 203.668 189.963C203.326 190.199 203.006 190.449 202.682 190.713C202.358 190.958 202.043 191.227 201.742 191.491L201.733 191.5V191.495Z" fill="#3C3C3B"/>
<path d="M261.516 127.028C261.516 133.477 261.002 139.81 260.026 145.981C251.715 131.546 238.678 120.18 223.03 113.991C230.655 100.421 239.864 87.861 250.396 76.5693C257.526 91.9027 261.516 108.995 261.516 127.028Z" stroke="#3C3C3B" stroke-width="1.33" stroke-miterlimit="10"/>
<path d="M76.8584 127.028C76.8584 133.477 77.3723 139.81 78.3491 145.981C86.6593 131.546 99.6964 120.18 115.345 113.991C107.72 100.421 98.5065 87.861 87.9788 76.5693C80.8491 91.9027 76.8584 108.995 76.8584 127.028Z" fill="#3C3C3B"/>
<path d="M217.645 230.713C217.645 231.083 217.571 231.435 217.436 231.769C217.399 231.852 217.353 231.94 217.302 232.023C216.21 234.283 214.987 236.477 213.663 238.593C205.821 251.185 194.302 261.241 180.608 267.25C180.399 267.352 180.191 267.449 179.974 267.537C176.631 268.931 172.955 269.699 169.112 269.699C165.714 269.699 162.455 269.102 159.436 268C159.427 267.991 159.418 267.991 159.399 267.982C158.325 267.546 157.274 267.079 156.228 266.593C143.154 260.496 132.159 250.681 124.589 238.505C123.316 236.463 122.14 234.357 121.075 232.181C121.001 232.028 120.923 231.88 120.849 231.718C120.733 231.421 120.668 231.102 120.668 230.769C120.668 229.278 121.872 228.07 123.367 228.07C124.261 228.07 125.048 228.505 125.524 229.171C125.608 229.306 125.686 229.431 125.77 229.551C126.149 230.121 126.557 230.671 126.987 231.213C130.483 235.695 135.307 239.093 140.881 240.815C143.52 241.639 146.339 242.088 149.256 242.088C153.71 242.088 157.927 241.051 161.677 239.222C161.983 239.088 162.274 238.945 162.552 238.773C164.52 237.597 165.839 235.449 165.839 232.991C165.839 232.496 165.793 232.023 165.686 231.565C165.631 231.301 165.552 231.042 165.46 230.787C162.182 230.009 159.136 228.648 156.418 226.829C153.918 225.167 151.71 223.116 149.867 220.759C148.927 219.583 148.089 218.32 147.362 216.991C147.21 216.718 147.057 216.44 146.927 216.158C146.909 216.13 146.899 216.102 146.89 216.083C146.548 215.278 146.358 214.384 146.358 213.463C146.358 210.968 147.714 208.783 149.737 207.625C149.737 207.625 149.747 207.616 149.756 207.616C150.126 207.435 150.506 207.273 150.886 207.111C150.895 207.093 150.913 207.093 150.932 207.093C154.608 205.486 158.52 204.366 162.612 203.787C164.737 203.482 166.913 203.324 169.126 203.324C171.339 203.324 173.543 203.486 175.677 203.787C179.835 204.384 183.816 205.546 187.529 207.176C187.538 207.167 187.548 207.185 187.548 207.185C187.691 207.241 187.825 207.296 187.964 207.366C188.108 207.412 188.251 207.491 188.381 207.556C190.46 208.704 191.867 210.917 191.867 213.463C191.867 214.593 191.594 215.658 191.099 216.597C191.08 216.634 191.061 216.662 191.043 216.699C190.274 218.134 189.381 219.491 188.376 220.755C186.543 223.102 184.339 225.153 181.853 226.815C179.154 228.63 176.126 229.977 172.872 230.764C172.774 231.028 172.7 231.296 172.645 231.57C172.543 232.023 172.492 232.5 172.492 232.996C172.492 235.542 173.899 237.755 175.978 238.894C176.034 238.931 176.103 238.968 176.168 239C180.024 240.986 184.399 242.097 189.034 242.097C191.936 242.097 194.742 241.662 197.381 240.843C202.955 239.125 207.788 235.727 211.284 231.241C211.761 230.662 212.196 230.056 212.603 229.435C212.659 229.32 212.737 229.218 212.811 229.111C213.298 228.458 214.085 228.028 214.978 228.028C216.46 228.028 217.663 229.232 217.663 230.718L217.645 230.713Z" fill="#3C3C3B"/>
<path d="M192.086 248.819C191.354 250.842 190.396 252.759 189.229 254.537C185.382 260.472 179.363 264.861 172.299 266.597C171.414 266.671 170.511 266.722 169.613 266.722C168.715 266.722 167.826 266.685 166.947 266.597C159.845 264.861 153.803 260.444 149.951 254.472C148.803 252.708 147.854 250.805 147.132 248.796C148.794 249.101 150.502 249.259 152.252 249.259C155.34 249.259 158.312 248.768 161.09 247.847C161.118 247.847 161.146 247.828 161.178 247.819C163.826 247.004 166.636 246.555 169.562 246.555C172.289 246.555 174.928 246.944 177.423 247.676C177.984 247.884 178.544 248.064 179.113 248.217C181.581 248.93 184.192 249.31 186.891 249.31C188.664 249.31 190.414 249.148 192.095 248.824L192.086 248.819Z" fill="white"/>
<path d="M260.03 145.981C251.719 131.546 238.682 120.18 223.034 113.991C230.659 100.421 239.868 87.861 250.4 76.5693C257.53 91.9027 261.52 108.995 261.52 127.028C261.52 133.477 261.006 139.81 260.03 145.981Z" fill="#3C3C3B"/>
<path d="M140.419 152.287C141.206 153.371 141.872 154.547 142.405 155.81C143.118 157.5 143.562 159.352 143.706 161.287C143.77 162.209 143.77 163.102 143.687 163.996C143.525 166.084 142.983 168.07 142.132 169.885C142.067 169.885 142.007 169.903 141.942 169.903C139.882 170.047 137.886 169.838 136.016 169.315C133.432 168.602 131.057 167.301 129.094 165.556C127.993 164.579 127.016 163.477 126.187 162.26C125.419 160.912 124.932 159.371 124.812 157.709C124.706 156.199 124.919 154.727 125.391 153.398C125.4 153.334 125.428 153.264 125.446 153.209C125.655 152.621 125.932 152.051 126.252 151.51C126.706 150.815 127.298 150.199 128.016 149.695C128.738 149.19 129.534 148.838 130.354 148.648C130.715 148.584 131.076 148.533 131.446 148.505C131.645 148.496 131.844 148.477 132.053 148.486H132.395C135.576 148.533 138.474 149.977 140.428 152.283H140.419V152.287Z" fill="white"/>
<path d="M198.599 152.287C197.812 153.371 197.145 154.547 196.613 155.81C195.9 157.5 195.456 159.352 195.312 161.287C195.247 162.209 195.247 163.102 195.331 163.996C195.493 166.084 196.034 168.07 196.886 169.885C196.951 169.885 197.011 169.903 197.076 169.903C199.136 170.047 201.132 169.838 203.002 169.315C205.585 168.602 207.96 167.301 209.923 165.556C211.025 164.579 212.002 163.477 212.826 162.26C213.595 160.912 214.081 159.371 214.201 157.709C214.303 156.199 214.099 154.727 213.622 153.398C213.613 153.334 213.585 153.264 213.567 153.209C213.358 152.621 213.081 152.051 212.761 151.51C212.308 150.815 211.715 150.199 210.997 149.695C210.275 149.19 209.479 148.838 208.659 148.648C208.298 148.584 207.937 148.533 207.567 148.505C207.368 148.496 207.169 148.477 206.96 148.486H206.618C203.437 148.533 200.539 149.977 198.585 152.283H198.595L198.599 152.287Z" fill="white"/>
</svg>
