<svg width="170" height="40" viewBox="0 0 170 40" fill="none" xmlns="http://www.w3.org/2000/svg">
<g clip-path="url(#clip0_181_3536)">
<path d="M56.1255 18.7331C55.5888 18.5901 55.0946 18.5415 54.6415 18.5901C54.2005 18.6266 53.7595 18.7574 53.3171 18.984C53.0069 19.1392 52.7453 19.3475 52.5294 19.6107C52.3272 19.8616 52.1721 20.1475 52.0641 20.47C51.9561 20.7802 51.8908 21.1148 51.8679 21.4738C51.8436 21.8205 51.8558 22.1597 51.9029 22.4943C51.9744 23.0312 52.1356 23.4859 52.3865 23.8555C52.6374 24.2144 52.9415 24.5003 53.2988 24.7148C53.6561 24.9292 54.0561 25.0737 54.497 25.1452C54.938 25.2045 55.385 25.1984 55.8382 25.127C56.1362 25.0905 56.4525 25.0068 56.787 24.876C57.1215 24.7452 57.4302 24.6068 57.7176 24.4638C58.0156 24.3087 58.2832 24.1597 58.522 24.0167C58.7607 23.8737 58.934 23.7718 59.0405 23.7125C59.4571 23.784 59.8388 23.9574 60.1855 24.2327C60.5428 24.5064 60.8287 24.841 61.0446 25.2365C61.2712 25.6182 61.4141 26.0486 61.4734 26.5262C61.5327 27.0037 61.4734 27.4874 61.294 27.9771C61.1267 28.4669 60.8226 28.9444 60.3816 29.4098C59.9528 29.863 59.3568 30.2691 58.5934 30.6281C58.1281 30.8425 57.5914 31.0037 56.9832 31.1117C56.3871 31.2197 55.7667 31.2729 55.1235 31.2729C54.4909 31.2851 53.866 31.2547 53.2456 31.1832C52.6252 31.1117 52.0656 31.0098 51.5638 30.879C50.0022 30.4729 48.731 29.787 47.7533 28.8197C46.7877 27.8402 46.0776 26.5931 45.6245 25.0768C45.3264 24.0137 45.1713 22.9566 45.1592 21.9057C45.1592 20.8426 45.3386 19.7856 45.6959 18.7346C45.8982 18.1369 46.1612 17.5818 46.4836 17.0692C46.8181 16.543 47.1876 16.0715 47.5921 15.6548C48.0103 15.2244 48.4512 14.8487 48.9165 14.5263C49.394 14.2039 49.8638 13.9347 50.3291 13.7202C50.9252 13.4571 51.6231 13.2426 52.4214 13.0753C53.2319 12.908 54.091 12.8366 54.9973 12.8609C55.9157 12.8852 56.863 13.0221 57.8408 13.2731C58.8307 13.5118 59.8023 13.9058 60.7557 14.4548C60.9108 15.0282 60.9579 15.5529 60.8986 16.0305C60.8393 16.508 60.7025 16.9323 60.4881 17.3019C60.2737 17.6715 59.9985 17.9818 59.6654 18.2327C59.3309 18.4837 58.9675 18.6738 58.5737 18.8061C58.1798 18.9369 57.7693 18.9977 57.339 18.9856C56.9223 18.9734 56.5163 18.8897 56.1225 18.7346L56.1255 18.7331Z" fill="#FFA0A0"/>
<path d="M69.2591 20.7924L69.3305 20.8289C69.367 20.7574 69.402 20.692 69.4385 20.6327C69.4856 20.5612 69.5282 20.4958 69.5632 20.435C69.8855 19.8495 70.2185 19.235 70.5652 18.5901C70.9226 17.9453 71.2693 17.3248 71.6023 16.727C71.9368 16.1293 72.2455 15.5681 72.5329 15.0434C72.8309 14.5187 73.0879 14.0761 73.3023 13.7172C73.6368 13.5149 74.0291 13.3583 74.4822 13.2518C74.9354 13.1316 75.4007 13.0723 75.8781 13.0723C76.3662 13.0602 76.8437 13.1134 77.309 13.2335C77.7864 13.3415 78.2152 13.5256 78.5969 13.7887C78.9907 14.0518 79.3131 14.397 79.5625 14.8274C79.8134 15.2457 79.9563 15.7643 79.9913 16.3864C80.0262 16.8639 80.0445 17.4738 80.0445 18.213C80.0566 18.9415 80.0566 19.7354 80.0445 20.5947C80.0445 21.454 80.0323 22.3498 80.008 23.2821C79.9837 24.2008 79.9609 25.0966 79.9365 25.9696C79.9122 26.841 79.8833 27.6593 79.8468 28.4228C79.8103 29.1878 79.7814 29.8372 79.7571 30.3756C78.9816 30.8775 78.2244 31.1695 77.4854 31.2532C76.7464 31.349 76.0788 31.2836 75.4812 31.057C74.8973 30.8425 74.4138 30.4836 74.0321 29.9817C73.6626 29.4798 73.4589 28.8897 73.4239 28.2083C73.4117 27.933 73.4057 27.6836 73.4057 27.4555C73.4057 27.2167 73.4117 26.9536 73.4239 26.6676C73.4361 26.3817 73.4482 26.0532 73.4589 25.6821C73.471 25.3004 73.4893 24.8289 73.5121 24.2677H73.4406C73.4163 24.2555 73.3935 24.2494 73.3692 24.2494C73.3327 24.3087 73.2977 24.3635 73.2612 24.4106C73.2262 24.4578 73.1897 24.5125 73.1548 24.5718C73.0833 24.6798 72.9586 24.8821 72.7792 25.1817C72.6119 25.4677 72.4158 25.8023 72.1892 26.184C71.9748 26.5658 71.7361 26.9779 71.473 27.4205C71.2115 27.8631 70.9606 28.2859 70.7219 28.692C70.4953 29.098 70.2809 29.4676 70.0787 29.8022C69.8871 30.1247 69.7396 30.3695 69.6316 30.5368C68.8926 31.0144 68.1414 31.2775 67.3781 31.3246C66.6269 31.384 65.929 31.2653 65.2858 30.9657C64.6426 30.6555 64.0937 30.1901 63.6405 29.568C63.1996 28.9353 62.9244 28.1703 62.8179 27.276C62.7586 26.7984 62.71 26.184 62.675 25.4312C62.6507 24.6783 62.6339 23.8662 62.6218 22.9947C62.6096 22.1232 62.6035 21.2274 62.6035 20.3072C62.6035 19.3871 62.6096 18.5035 62.6218 17.6913C62.6339 16.867 62.6461 16.1324 62.6583 15.4875C62.6826 14.8305 62.6993 14.3408 62.7115 14.0183C63.0217 13.6837 63.3912 13.4328 63.82 13.2655C64.2609 13.086 64.7141 12.9841 65.1794 12.9613C65.6447 12.937 66.11 12.9856 66.5753 13.1043C67.0405 13.2122 67.4572 13.3795 67.8267 13.6062C68.2083 13.8328 68.5246 14.1202 68.774 14.4655C69.0249 14.8001 69.1739 15.1757 69.221 15.594C69.2682 16.0959 69.2986 16.5308 69.3108 16.9019C69.3229 17.2715 69.3229 17.6426 69.3108 18.0122C69.2986 18.3818 69.2864 18.7818 69.2743 19.2122C69.2621 19.6426 69.256 20.1673 69.256 20.7878L69.2591 20.7924Z" fill="#FFA0A0"/>
<path d="M93.2943 20.0761C93.8539 20.4943 94.2963 20.9779 94.6172 21.527C94.9517 22.0639 95.1844 22.6372 95.3151 23.2471C95.4581 23.8555 95.5067 24.4775 95.4581 25.1102C95.4231 25.7308 95.3151 26.3346 95.1357 26.9201C94.9563 27.5056 94.713 28.0486 94.4028 28.5505C94.0926 29.0524 93.7353 29.4767 93.3293 29.822C92.8396 30.2524 92.2025 30.587 91.4149 30.8258C90.6272 31.0646 89.8046 31.2075 88.947 31.2562C88.0878 31.3033 87.2485 31.2501 86.4243 31.095C85.6139 30.952 84.9281 30.7011 84.367 30.3421C83.4729 29.7687 82.7871 29.0585 82.3097 28.2098C81.8322 27.3505 81.5281 26.2996 81.3973 25.057C81.2787 23.9224 81.2133 22.7696 81.2012 21.6C81.2012 20.4183 81.2255 19.2958 81.2726 18.2327C81.3319 17.1574 81.4034 16.1841 81.487 15.3126C81.5707 14.4289 81.6421 13.7187 81.7014 13.1803C82.1789 13.1331 82.7324 13.0966 83.3649 13.0723C84.0097 13.048 84.6894 13.0312 85.404 13.0191C86.1309 13.0069 86.8759 13.0069 87.6393 13.0191C88.4148 13.0191 89.1659 13.0252 89.8928 13.0373C90.6318 13.0495 91.3297 13.0738 91.9851 13.1088C92.6404 13.1331 93.2259 13.162 93.7383 13.1985C93.8462 13.3537 93.9344 13.5803 94.0059 13.8799C94.0895 14.178 94.1306 14.5126 94.1306 14.8837C94.1428 15.2533 94.0956 15.6305 93.9877 16.0122C93.8797 16.394 93.6957 16.7407 93.4327 17.051C93.1818 17.3612 92.8305 17.6183 92.3774 17.8206C91.9364 18.0228 91.3753 18.1247 90.6956 18.1247H87.4218V19.0555C87.4218 19.0555 87.434 19.0677 87.4583 19.092C87.4705 19.092 87.4766 19.0981 87.4766 19.1103H87.548C87.6073 19.0738 87.8217 19.0145 88.1928 18.9308C88.5623 18.8472 89.0215 18.8107 89.5704 18.8228C90.1193 18.835 90.7154 18.9308 91.3586 19.1088C92.014 19.2882 92.6587 19.6107 93.2912 20.0761H93.2943ZM87.8202 25.5924C88.0939 25.7597 88.357 25.8555 88.6079 25.8783C88.8588 25.9026 89.0853 25.8783 89.2876 25.8068C89.4898 25.7232 89.651 25.5984 89.7711 25.4311C89.9019 25.2517 89.9794 25.0433 90.0038 24.8045C90.0281 24.5064 89.9733 24.2433 89.8426 24.0167C89.724 23.7901 89.5567 23.6289 89.3423 23.5331C89.1279 23.4251 88.8831 23.3962 88.6094 23.4433C88.3463 23.4798 88.0909 23.6106 87.84 23.8372C87.8157 24.0882 87.7929 24.368 87.7685 24.6798C87.7442 24.9779 87.7624 25.2821 87.8217 25.5939L87.8202 25.5924Z" fill="#FFA0A0"/>
<path d="M96.6297 25.5042C96.7498 24.8836 96.9034 24.2083 97.095 23.4798C97.2865 22.7392 97.4949 21.9878 97.7214 21.2228C97.948 20.4472 98.1867 19.6761 98.4361 18.9126C98.6992 18.1369 98.9546 17.4084 99.2055 16.727C99.4564 16.035 99.6997 15.4008 99.9384 14.829C100.177 14.2434 100.398 13.7598 100.6 13.378C101.017 13.235 101.506 13.0966 102.067 12.9659C102.639 12.8229 103.241 12.721 103.874 12.6617C104.517 12.6024 105.168 12.6145 105.823 12.6982C106.491 12.7697 107.129 12.943 107.737 13.2183C108.358 13.4936 108.93 13.8997 109.454 14.4366C109.979 14.9613 110.42 15.6548 110.779 16.5141C110.946 16.9202 111.13 17.4221 111.334 18.0183C111.548 18.616 111.768 19.2715 111.995 19.9878C112.222 20.7042 112.454 21.457 112.693 22.2449C112.932 23.0327 113.152 23.8266 113.354 24.6266C113.569 25.4144 113.765 26.1901 113.944 26.9551C114.124 27.7079 114.273 28.4121 114.391 29.0691C114.344 29.4037 114.165 29.7383 113.855 30.0729C113.545 30.3954 113.157 30.6706 112.691 30.8973C112.226 31.1239 111.714 31.2729 111.153 31.3444C110.604 31.4281 110.061 31.3809 109.526 31.2014C109.001 31.0341 108.511 30.7239 108.058 30.2707C107.605 29.8053 107.26 29.1482 107.021 28.2996C106.437 28.2752 105.829 28.2752 105.197 28.2996C104.576 28.3117 103.968 28.3056 103.372 28.2813C103.05 29.0813 102.758 29.971 102.496 30.9505C101.351 31.3687 100.367 31.5178 99.5446 31.3976C98.722 31.2775 98.0605 30.9566 97.5587 30.4303C97.0706 29.9056 96.7422 29.2182 96.5749 28.371C96.4198 27.5117 96.4381 26.5566 96.6281 25.5057L96.6297 25.5042ZM104.088 23.3186H106.378C105.996 21.8144 105.639 20.327 105.305 18.8578C105.257 18.87 105.197 18.8761 105.125 18.8761C104.958 19.6046 104.784 20.3392 104.607 21.0799C104.439 21.8084 104.266 22.5551 104.088 23.3186Z" fill="#FFA0A0"/>
<path d="M128.513 21.4023C129.025 21.7718 129.413 22.2266 129.676 22.7635C129.95 23.2897 130.117 23.8555 130.176 24.4654C130.236 25.0737 130.195 25.6958 130.052 26.3285C129.921 26.9612 129.707 27.5589 129.409 28.1201C129.111 28.6813 128.735 29.1832 128.282 29.6243C127.841 30.0653 127.339 30.3999 126.78 30.628C126.386 30.7832 125.914 30.9201 125.367 31.0402C124.818 31.171 124.222 31.2607 123.579 31.3094C122.936 31.3687 122.26 31.3809 121.558 31.3459C120.854 31.3216 120.151 31.2318 119.447 31.0767C118.755 30.9337 118.082 30.7299 117.426 30.4684C116.783 30.1931 116.192 29.8357 115.655 29.3931C115.369 29.0341 115.178 28.6463 115.083 28.2281C115 27.7977 114.994 27.3855 115.065 26.9916C115.149 26.5855 115.298 26.2098 115.512 25.8631C115.739 25.5163 116.018 25.2425 116.353 25.0387C116.687 24.8365 117.063 24.7224 117.48 24.6981C117.908 24.6737 118.368 24.7817 118.857 25.0205C119.49 25.3308 120.098 25.5695 120.682 25.7368C121.278 25.892 121.809 25.9817 122.274 26.006C122.752 26.0182 123.145 25.9589 123.454 25.8266C123.764 25.6958 123.954 25.492 124.026 25.2182C124.109 24.9201 124.068 24.657 123.901 24.4304C123.734 24.2038 123.478 24.0243 123.132 23.8935C122.785 23.7505 122.356 23.6486 121.844 23.5893C121.331 23.53 120.764 23.5057 120.145 23.5178C119.907 23.387 119.704 23.2015 119.537 22.9627C119.37 22.7118 119.245 22.4365 119.161 22.1384C119.078 21.8281 119.049 21.5179 119.072 21.2076C119.096 20.8852 119.18 20.5931 119.323 20.33C119.478 20.0669 119.698 19.8525 119.984 19.6852C120.27 19.5057 120.639 19.4099 121.093 19.3992C121.521 19.3992 121.909 19.3871 122.256 19.3627C122.613 19.3262 122.917 19.2791 123.168 19.2198C123.419 19.1483 123.609 19.0586 123.74 18.9506C123.883 18.8426 123.954 18.7057 123.954 18.5384C123.954 18.2753 123.852 18.073 123.65 17.9301C123.448 17.7871 123.179 17.6852 122.846 17.6259C122.523 17.5666 122.16 17.5483 121.754 17.5726C121.36 17.597 120.962 17.6502 120.556 17.7339C120.162 17.8175 119.786 17.9255 119.429 18.0563C119.072 18.1764 118.774 18.3133 118.535 18.4684C118.261 18.3377 118.004 18.146 117.766 17.8951C117.527 17.6441 117.325 17.3643 117.157 17.0525C117.002 16.7422 116.896 16.4137 116.835 16.0669C116.776 15.7202 116.776 15.3871 116.835 15.0647C116.906 14.7301 117.049 14.432 117.264 14.1689C117.49 13.8936 117.813 13.6731 118.229 13.5058C118.838 13.267 119.452 13.0936 120.072 12.9856C120.705 12.8776 121.313 12.8244 121.897 12.8244C122.481 12.8122 123.024 12.8426 123.525 12.9141C124.026 12.9856 124.456 13.0753 124.813 13.1833C125.517 13.3978 126.12 13.667 126.62 13.9894C127.12 14.3118 127.538 14.6586 127.871 15.0282C128.216 15.3978 128.486 15.7871 128.676 16.1932C128.878 16.5993 129.027 16.9932 129.123 17.3749C129.219 17.7567 129.272 18.1217 129.284 18.4669C129.296 18.8015 129.29 19.0935 129.266 19.3445C129.206 19.7384 129.117 20.108 128.998 20.4547C128.879 20.8015 128.718 21.1179 128.514 21.4038L128.513 21.4023Z" fill="#FFA0A0"/>
<path d="M140.593 12.7681C141.608 12.7681 142.514 12.87 143.312 13.0723C144.11 13.2746 144.814 13.5438 145.423 13.8784C146.043 14.213 146.574 14.5886 147.015 15.0069C147.456 15.413 147.825 15.8251 148.123 16.2434C148.421 16.6616 148.66 17.0555 148.839 17.4251C149.019 17.7841 149.156 18.0821 149.25 18.3209C149.667 19.4799 149.911 20.6373 149.983 21.7962C150.066 22.9429 149.93 24.1125 149.572 25.3064C148.595 28.4471 146.513 30.3938 143.33 31.1452C142.03 31.4554 140.754 31.5512 139.503 31.4326C138.262 31.3246 137.047 30.9611 135.854 30.3406C134.709 29.7551 133.802 28.9976 133.135 28.0653C132.467 27.1224 131.996 26.0349 131.722 24.8045C131.592 24.2311 131.502 23.641 131.455 23.0312C131.408 22.4228 131.401 21.8251 131.436 21.2395C131.473 20.6418 131.549 20.07 131.669 19.5194C131.788 18.9704 131.955 18.4624 132.169 17.997C132.455 17.3643 132.819 16.7377 133.261 16.1156C133.714 15.4951 134.281 14.94 134.961 14.4502C135.641 13.9483 136.439 13.5423 137.358 13.232C138.288 12.9217 139.366 12.7666 140.595 12.7666L140.593 12.7681ZM140.683 19.1802C140.348 19.1802 140.034 19.2517 139.736 19.3947C139.438 19.5255 139.175 19.7293 138.948 20.003C138.734 20.2783 138.566 20.6175 138.448 21.0236C138.329 21.4296 138.287 21.9011 138.323 22.438C138.358 22.9642 138.46 23.4053 138.627 23.7627C138.794 24.1095 138.997 24.3954 139.235 24.622C139.474 24.8365 139.725 24.9916 139.987 25.0874C140.26 25.1711 140.517 25.2015 140.756 25.1771C140.995 25.165 141.24 25.1057 141.489 24.9977C141.74 24.8897 141.966 24.7285 142.169 24.514C142.383 24.2874 142.562 24 142.705 23.6547C142.86 23.2958 142.95 22.8669 142.973 22.365C143.009 21.8631 142.967 21.416 142.848 21.022C142.73 20.616 142.562 20.2814 142.348 20.0183C142.134 19.743 141.883 19.5346 141.597 19.3916C141.311 19.2487 141.007 19.1772 140.685 19.1772L140.683 19.1802Z" fill="#FFA0A0"/>
<path d="M160.586 12.7681C161.599 12.7681 162.505 12.87 163.305 13.0723C164.103 13.2746 164.807 13.5438 165.415 13.8784C166.036 14.213 166.566 14.5886 167.007 15.0069C167.448 15.413 167.818 15.8251 168.116 16.2434C168.414 16.6616 168.653 17.0555 168.832 17.4251C169.01 17.7841 169.147 18.0821 169.243 18.3209C169.661 19.4799 169.904 20.6373 169.976 21.7962C170.059 22.9429 169.922 24.1125 169.565 25.3064C168.587 28.4471 166.506 30.3938 163.322 31.1452C162.023 31.4554 160.747 31.5512 159.494 31.4326C158.255 31.3246 157.039 30.9611 155.845 30.3406C154.701 29.7551 153.795 28.9976 153.126 28.0653C152.459 27.1224 151.987 26.0349 151.713 24.8045C151.583 24.2311 151.493 23.641 151.446 23.0312C151.399 22.4228 151.393 21.8251 151.428 21.2395C151.464 20.6418 151.542 20.07 151.66 19.5194C151.779 18.9704 151.946 18.4624 152.161 17.997C152.446 17.3643 152.811 16.7377 153.252 16.1156C153.705 15.4951 154.271 14.94 154.951 14.4502C155.63 13.9483 156.43 13.5423 157.347 13.232C158.278 12.9217 159.357 12.7666 160.586 12.7666V12.7681ZM160.674 19.1802C160.341 19.1802 160.025 19.2517 159.727 19.3947C159.429 19.5255 159.166 19.7293 158.939 20.003C158.725 20.2783 158.558 20.6175 158.439 21.0236C158.32 21.4296 158.278 21.9011 158.314 22.438C158.349 22.9642 158.451 23.4053 158.618 23.7627C158.784 24.1095 158.988 24.3954 159.227 24.622C159.464 24.8365 159.715 24.9916 159.978 25.0874C160.251 25.1711 160.508 25.2015 160.747 25.1771C160.984 25.165 161.229 25.1057 161.48 24.9977C161.731 24.8897 161.958 24.7285 162.16 24.514C162.374 24.2874 162.554 24 162.697 23.6547C162.852 23.2958 162.941 22.8669 162.964 22.365C163.001 21.8631 162.958 21.416 162.84 21.022C162.719 20.616 162.554 20.2814 162.338 20.0183C162.123 19.743 161.874 19.5346 161.587 19.3916C161.301 19.2487 160.997 19.1772 160.674 19.1772V19.1802Z" fill="#FFA0A0"/>
<path d="M36.0421 17.9529C36.1334 16.9856 36.1805 16.0046 36.1805 15.013C36.1805 14.1157 36.1425 13.2259 36.0665 12.3484C35.773 8.87464 34.9063 5.56516 33.5651 2.51423C33.188 1.65492 32.7729 0.815386 32.3213 0.000183105C31.5123 0.319572 30.7292 0.693714 29.9796 1.115C27.2836 2.62982 24.9936 4.78189 23.3089 7.37046C21.8263 7.15146 20.3088 7.03739 18.7639 7.03739C17.219 7.03739 15.6315 7.15602 14.1155 7.3872C11.9791 4.09597 8.86038 1.50435 5.17603 0.032122C3.12934 3.7416 1.82013 7.91799 1.44606 12.3605C1.37156 13.2335 1.33354 14.1202 1.33354 15.013C1.33354 15.2715 1.33658 15.5286 1.34267 15.7826C1.36091 16.5369 1.40653 17.2822 1.478 18.0213C1.37308 18.2099 1.27576 18.4016 1.18148 18.5962C0.42424 20.1567 0 21.9103 0 23.7612C0 24.1384 0.0182469 24.5095 0.0516995 24.876C0.284347 27.3733 1.28945 29.6456 2.82522 31.4478C2.82522 31.4478 2.82624 31.4488 2.82826 31.4509C3.46082 32.0957 4.12379 32.7147 4.81109 33.3018C4.81413 33.3049 4.81869 33.3079 4.82173 33.3094C5.4695 33.8661 6.13855 34.3923 6.83041 34.8912C8.0712 35.7854 9.38041 36.5915 10.7489 37.2942C12.8686 38.3877 15.1312 39.244 17.5018 39.8219C17.6493 39.8584 17.7953 39.8934 17.9443 39.9253C18.2043 39.974 18.475 39.9983 18.7487 39.9983C19.0224 39.9983 19.3128 39.971 19.585 39.9208C19.7157 39.8904 19.8435 39.8599 19.9727 39.828C22.0802 39.3139 24.1026 38.5839 26.0155 37.6592C26.2724 37.5375 26.5264 37.4098 26.7788 37.279C28.1245 36.5839 29.414 35.793 30.6335 34.9155C31.231 34.4851 31.8149 34.0349 32.3791 33.5619C32.3806 33.5619 32.3821 33.5588 32.3836 33.5573C33.3188 32.7801 34.2098 31.9436 35.0477 31.06C35.0492 31.06 35.0507 31.057 35.0507 31.057C36.6215 29.0448 37.5566 26.5125 37.5566 23.7597C37.5566 21.6472 37.0062 19.6669 36.0406 17.9514L36.0421 17.9529ZM10.6349 24.7893C9.09302 24.7893 7.84463 23.5361 7.84463 21.9894C7.84463 20.4426 9.09454 19.1909 10.6349 19.1909C12.1752 19.1909 13.4236 20.4441 13.4236 21.9894C13.4236 23.5346 12.1737 24.7893 10.6349 24.7893ZM26.5583 29.0813C26.5522 29.095 26.5446 29.1087 26.537 29.1224C26.3622 29.4844 26.1675 29.8357 25.9577 30.1733C25.1396 31.4889 24.0722 32.6326 22.8223 33.536C22.1593 34.0151 21.4446 34.4258 20.6874 34.7588C20.6539 34.7756 20.6205 34.7908 20.5855 34.8045C20.0518 35.028 19.4664 35.1512 18.8536 35.1512C18.3107 35.1512 17.7922 35.0554 17.3102 34.879C17.3087 34.879 17.3072 34.879 17.3041 34.8759C17.1338 34.806 16.965 34.7315 16.7978 34.6539C16.0664 34.3117 15.376 33.898 14.7374 33.4174C13.5498 32.5307 12.5371 31.4235 11.7525 30.1596C11.5503 29.8326 11.3617 29.495 11.1929 29.1482C11.1808 29.1239 11.1686 29.0996 11.1564 29.0737C11.1382 29.0266 11.1275 28.9749 11.1275 28.9216C11.1275 28.6828 11.3191 28.4897 11.5579 28.4897C11.7008 28.4897 11.8255 28.5596 11.9015 28.6661C11.9152 28.6874 11.9274 28.7072 11.9411 28.7269C12.0019 28.8182 12.0673 28.9064 12.1342 28.9931C12.6907 29.711 13.4601 30.2539 14.3496 30.5292C14.7708 30.6615 15.2209 30.733 15.6847 30.733C16.3948 30.733 17.0669 30.5672 17.666 30.2737C17.7131 30.2509 17.7603 30.2266 17.8059 30.2022C18.1191 30.0136 18.329 29.6699 18.329 29.2775C18.329 29.1984 18.3214 29.1224 18.3047 29.0494C18.2955 29.0068 18.2834 28.9657 18.2682 28.9247C17.7451 28.7999 17.26 28.5825 16.8267 28.2904C16.4283 28.0243 16.0755 27.6958 15.782 27.3201C15.6315 27.1315 15.4992 26.9292 15.3821 26.7163C15.3578 26.6722 15.3335 26.6281 15.3122 26.5825C15.3091 26.5779 15.3076 26.5733 15.3061 26.5703C15.2513 26.441 15.2209 26.2981 15.2209 26.1505C15.2209 25.7505 15.4369 25.4007 15.7607 25.2167C15.7607 25.2167 15.7607 25.2152 15.7638 25.2152C15.8231 25.1863 15.8839 25.1604 15.9432 25.1346C15.9432 25.1315 15.9478 25.1315 15.9508 25.1315C16.5362 24.8745 17.1612 24.695 17.8135 24.6023C18.1526 24.5536 18.4993 24.5277 18.8521 24.5277C19.2048 24.5277 19.5561 24.5536 19.8967 24.6023C20.5597 24.6981 21.1953 24.8836 21.7868 25.1452L21.7898 25.1467C21.8126 25.1559 21.8339 25.165 21.8567 25.1756C21.8795 25.1832 21.9023 25.1954 21.9236 25.2061C22.2551 25.3901 22.4786 25.7445 22.4786 26.1505C22.4786 26.3315 22.4345 26.5019 22.3555 26.6524C22.3524 26.6585 22.3494 26.6631 22.3463 26.6692C22.2232 26.8988 22.0818 27.1163 21.9206 27.3186C21.6286 27.6943 21.2774 28.0212 20.8805 28.2874C20.4502 28.5779 19.9682 28.7939 19.4481 28.9201C19.4329 28.9627 19.4208 29.0053 19.4116 29.0494C19.3949 29.1224 19.3873 29.1984 19.3873 29.2775C19.3873 29.6851 19.6108 30.038 19.9423 30.2205C19.9514 30.2266 19.9621 30.2326 19.9727 30.2372C20.587 30.5551 21.285 30.733 22.024 30.733C22.4877 30.733 22.9348 30.663 23.3545 30.5323C24.244 30.257 25.0149 29.714 25.5715 28.9961C25.6475 28.9034 25.7174 28.806 25.7813 28.7072C25.7904 28.6889 25.8026 28.6722 25.8148 28.6555C25.8923 28.5505 26.017 28.4821 26.1599 28.4821C26.3956 28.4821 26.5887 28.6752 26.5887 28.9125C26.5887 28.9718 26.5766 29.0281 26.5553 29.0813H26.5583ZM33.3492 15.3567C32.0248 13.048 29.9446 11.229 27.4494 10.2389C28.6658 8.06856 30.1347 6.05793 31.8134 4.2511C32.9508 6.70431 33.5864 9.43889 33.5864 12.324C33.5864 13.3552 33.5043 14.3696 33.3492 15.3567Z" fill="white"/>
<path d="M25.4924 24.984C25.4696 24.9688 25.4468 24.9536 25.424 24.9384C25.424 24.9384 25.424 24.9384 25.4209 24.9384C23.9399 23.9559 22.2262 23.3004 20.3818 23.0753C20.3802 23.0738 20.3787 23.0753 20.3787 23.0753C20.1962 23.0509 20.0168 23.0327 19.8328 23.0205C19.5363 22.9977 19.2368 22.9855 18.9326 22.9855C18.6285 22.9855 18.3168 22.9977 18.0127 23.022C17.8302 23.0342 17.6508 23.0525 17.4714 23.0768C15.5874 23.308 13.8433 23.9878 12.3425 25.0023H12.3394C11.5533 25.676 10.5832 26.0091 9.47165 26.0091C9.12496 26.0091 8.78739 25.9695 8.46351 25.895C8.2415 25.8327 8.0195 25.7627 7.80358 25.6867C6.43202 25.2137 5.17603 24.4897 4.08578 23.5741C4.01735 23.5087 3.94589 23.4479 3.8729 23.3901C3.40304 23.0266 2.81306 22.8106 2.17594 22.8106C1.29553 22.8106 0.510912 23.2198 0 23.8601V23.8099C0 22.2205 0.310197 20.7042 0.87737 19.3202C0.971646 19.0875 1.072 18.8593 1.18148 18.6358C1.27576 18.4411 1.37308 18.2495 1.478 18.0609C1.40653 17.3217 1.36091 16.5734 1.34267 15.8191C1.33658 15.5635 1.33354 15.3065 1.33354 15.048C1.33354 14.1537 1.37156 13.2655 1.44606 12.391C1.5966 10.6085 1.89615 8.87007 2.33408 7.18643C2.9864 4.65869 3.94893 2.26024 5.17603 0.032117C6.86995 0.708918 8.44374 1.6245 9.85635 2.73628C11.5214 4.04121 12.9629 5.61838 14.1185 7.40088C15.0445 7.25943 15.9827 7.16058 16.9331 7.10582C17.5383 7.06932 18.1511 7.05107 18.7669 7.05107C19.4937 7.05107 20.2145 7.07693 20.9276 7.12559C21.732 7.18187 22.5273 7.26856 23.3119 7.38415C24.4797 5.58644 25.941 3.9971 27.6258 2.68609C28.3693 2.10662 29.157 1.58191 29.9826 1.11652C30.7323 0.693709 31.5154 0.319567 32.3243 -0.00134277C32.7759 0.815381 33.1911 1.65644 33.5682 2.51727C34.1445 3.8298 34.6326 5.18949 35.0249 6.59024C35.5495 8.45182 35.9022 10.3849 36.0695 12.3697C36.1455 13.2487 36.1835 14.14 36.1835 15.0388C36.1835 16.032 36.1364 17.0145 36.0452 17.9848C36.3417 18.5126 36.6002 19.0692 36.8146 19.6441C37.2677 20.8593 37.5277 22.1688 37.5581 23.5361V23.5559C37.0609 23.0905 36.3949 22.8061 35.6605 22.8061C35.0568 22.8061 34.4972 22.9977 34.0411 23.3262C33.9088 23.419 33.7871 23.5255 33.6731 23.641C32.5707 24.5521 31.301 25.2654 29.9188 25.7262C29.9188 25.7262 29.9142 25.7262 29.9112 25.7292C29.7622 25.7779 29.6116 25.8251 29.4596 25.8676C29.1083 25.9574 28.7403 26.0045 28.3617 26.0045C27.4509 26.0045 26.5994 25.7323 25.8908 25.2638C25.8041 25.1985 25.7144 25.1361 25.6262 25.0753C25.5745 25.0357 25.4924 24.9825 25.4924 24.9825V24.984Z" fill="#FDE9EA"/>
<path d="M13.3795 21.9909C13.3795 23.5377 12.1265 24.7909 10.5816 24.7909C9.0367 24.7909 7.78223 23.5377 7.78223 21.9909C7.78223 20.4441 9.03518 19.1924 10.5816 19.1924C12.128 19.1924 13.3795 20.4457 13.3795 21.9909Z" fill="#3C3C3B"/>
<path d="M11.3022 22.3346C11.8967 22.3346 12.3787 21.8525 12.3787 21.2578C12.3787 20.6632 11.8967 20.181 11.3022 20.181C10.7076 20.181 10.2256 20.6632 10.2256 21.2578C10.2256 21.8525 10.7076 22.3346 11.3022 22.3346Z" fill="white"/>
<path d="M23.9991 22.6829C23.9215 22.7635 23.8181 22.8046 23.6995 22.8046C23.4593 22.8046 23.2646 22.6053 23.2646 22.3574C23.2646 22.2677 23.2905 22.184 23.3346 22.1156C23.3407 22.1065 23.3468 22.0973 23.3544 22.0867C23.3544 22.0852 23.3559 22.0836 23.3574 22.0821C23.3604 22.0791 23.362 22.0776 23.3635 22.0745C24.1937 20.9521 25.509 20.2281 26.987 20.2281C28.465 20.2281 29.7849 20.9567 30.6166 22.0836C30.6288 22.0989 30.6394 22.1156 30.6501 22.1323C30.6926 22.1992 30.7155 22.2814 30.7155 22.3665C30.7155 22.6129 30.5208 22.8137 30.2821 22.8137C30.1756 22.8137 30.0814 22.7757 30.0069 22.7133C29.9962 22.7042 29.9856 22.695 29.9749 22.6829C29.1751 21.9665 28.1305 21.5331 26.987 21.5331C26.8334 21.5331 26.6844 21.5407 26.5354 21.5559C26.4046 21.5681 26.2769 21.5878 26.1492 21.6106C25.8101 21.6745 25.4832 21.7795 25.176 21.9179C25.1152 21.9452 25.0544 21.9726 24.9935 22.0046C24.9327 22.035 24.8734 22.0654 24.8141 22.0989C24.7563 22.1308 24.6985 22.1643 24.6408 22.2008C24.5845 22.2357 24.5282 22.2722 24.472 22.3087C24.4157 22.3452 24.361 22.3848 24.3078 22.4274C24.253 22.4669 24.2013 22.508 24.1481 22.5521C24.0964 22.5931 24.0462 22.6373 23.996 22.6814L23.9991 22.6829Z" fill="#3C3C3B"/>
<path d="M33.6045 12.3301C33.6045 13.3613 33.5208 14.3742 33.3627 15.3613C32.017 13.0526 29.9049 11.2351 27.3701 10.245C28.6048 8.07467 30.098 6.06556 31.8026 4.25873C32.9582 6.71194 33.6045 9.445 33.6045 12.3301Z" stroke="#FFA0A0" stroke-width="1.77331" stroke-miterlimit="10"/>
<path d="M4.10547 12.3301C4.10547 13.3613 4.18606 14.3742 4.34116 15.3613C5.65493 13.0526 7.71531 11.2351 10.1878 10.245C8.98347 8.07467 7.52676 6.06556 5.86325 4.25873C4.73651 6.71194 4.10547 9.445 4.10547 12.3301Z" fill="#FFA0A0"/>
<path d="M26.4584 28.9429C26.4584 29.0037 26.4462 29.06 26.4249 29.1147C26.4188 29.1284 26.4112 29.1421 26.4036 29.1558C26.2303 29.5239 26.0372 29.8798 25.8273 30.225C24.585 32.2737 22.7619 33.9086 20.5935 34.8866C20.5601 34.9033 20.5266 34.9185 20.4932 34.9322C19.964 35.1588 19.3816 35.285 18.7734 35.285C18.2351 35.285 17.7196 35.1877 17.2407 35.0082C17.2391 35.0067 17.2376 35.0067 17.2346 35.0052C17.0643 34.9337 16.897 34.8592 16.7328 34.7801C14.6618 33.7885 12.9207 32.1915 11.7225 30.2113C11.5203 29.8798 11.3348 29.536 11.166 29.1832C11.1538 29.1588 11.1416 29.1345 11.1295 29.1071C11.1112 29.06 11.1006 29.0068 11.1006 28.952C11.1006 28.7102 11.2922 28.514 11.5279 28.514C11.6693 28.514 11.794 28.5855 11.8685 28.6935C11.8822 28.7147 11.8943 28.7345 11.908 28.7558C11.9688 28.8486 12.0327 28.9383 12.1011 29.0265C12.6546 29.755 13.4179 30.3086 14.3014 30.5885C14.7195 30.7223 15.1666 30.7953 15.6273 30.7953C16.3329 30.7953 17.0004 30.6265 17.595 30.3284C17.6436 30.3071 17.6892 30.2843 17.7333 30.2554C18.045 30.0638 18.2534 29.7155 18.2534 29.3155C18.2534 29.2349 18.2458 29.1573 18.229 29.0843C18.2199 29.0402 18.2077 28.9992 18.1925 28.9581C17.674 28.8319 17.1905 28.6098 16.7617 28.3132C16.3663 28.0425 16.0151 27.7094 15.7246 27.3262C15.5756 27.1345 15.4433 26.9292 15.3278 26.7132C15.3034 26.6691 15.2791 26.6235 15.2578 26.5779C15.2548 26.5733 15.2533 26.5688 15.2517 26.5657C15.197 26.4349 15.1681 26.2889 15.1681 26.1399C15.1681 25.7338 15.3825 25.3779 15.7034 25.1893C15.7034 25.1893 15.7049 25.1878 15.7064 25.1878C15.7657 25.1589 15.825 25.133 15.8858 25.1057C15.8873 25.1026 15.8904 25.1026 15.8934 25.1026C16.4758 24.841 17.0947 24.66 17.7424 24.5657C18.08 24.5171 18.4237 24.4897 18.7734 24.4897C19.1231 24.4897 19.4729 24.5155 19.8104 24.5657C20.4688 24.6631 21.0983 24.8517 21.6868 25.1163H21.6899C21.7127 25.1254 21.734 25.1345 21.7552 25.1452C21.778 25.1528 21.8009 25.165 21.8206 25.1756C22.1506 25.3627 22.3726 25.7231 22.3726 26.1368C22.3726 26.3208 22.3285 26.4942 22.2509 26.6463C22.2479 26.6524 22.2449 26.657 22.2418 26.6631C22.1202 26.8957 21.9788 27.1178 21.8191 27.3231C21.5287 27.7049 21.1805 28.0379 20.7866 28.3087C20.3594 28.6037 19.8804 28.8227 19.3634 28.9505C19.3482 28.9931 19.336 29.0372 19.3269 29.0813C19.3102 29.1558 19.3026 29.2319 19.3026 29.3125C19.3026 29.7261 19.5246 30.0866 19.8545 30.2721C19.8636 30.2782 19.8743 30.2843 19.8849 30.2889C20.4947 30.6113 21.1881 30.7923 21.9225 30.7923C22.3832 30.7923 22.8257 30.7208 23.2439 30.5885C24.1258 30.3086 24.8922 29.7566 25.4457 29.0265C25.5202 28.9322 25.5901 28.8334 25.6555 28.733C25.6646 28.7147 25.6768 28.698 25.689 28.6798C25.765 28.5733 25.8897 28.5033 26.0311 28.5033C26.2653 28.5033 26.4568 28.6995 26.4568 28.9398L26.4584 28.9429Z" fill="#3C3C3B"/>
<path d="M22.5047 31.8417C22.3891 32.1626 22.2355 32.4653 22.05 32.7467C21.4387 33.6866 20.4823 34.3816 19.3586 34.6569C19.2187 34.6691 19.0742 34.6767 18.9313 34.6767C18.7884 34.6767 18.647 34.6706 18.5071 34.6569C17.3773 34.3816 16.4178 33.682 15.805 32.7375C15.6225 32.4577 15.472 32.1566 15.3564 31.8387C15.621 31.8874 15.8917 31.9132 16.17 31.9132C16.6611 31.9132 17.1325 31.8356 17.575 31.6896C17.5795 31.6896 17.5841 31.6866 17.5886 31.6851C18.0098 31.5558 18.4569 31.4843 18.9207 31.4843C19.354 31.4843 19.7737 31.5451 20.1706 31.6623C20.2603 31.6957 20.3485 31.7231 20.4397 31.7474C20.832 31.86 21.2471 31.9208 21.6759 31.9208C21.9588 31.9208 22.2355 31.895 22.5031 31.8448L22.5047 31.8417Z" fill="white"/>
<path d="M33.3627 15.3613C32.017 13.0526 29.9049 11.2351 27.3701 10.245C28.6048 8.07467 30.098 6.06556 31.8026 4.25873C32.9582 6.71194 33.6045 9.445 33.6045 12.3301C33.6045 13.3613 33.5208 14.3742 33.3627 15.3613Z" fill="#FFA0A0"/>
<path d="M14.2161 16.4107C14.3423 16.5795 14.4487 16.7636 14.5339 16.9598C14.6479 17.2229 14.7194 17.5118 14.7422 17.8145C14.7528 17.9575 14.7528 18.0974 14.7391 18.2358C14.7133 18.5613 14.6266 18.8715 14.4898 19.1544C14.4791 19.1544 14.47 19.1575 14.4594 19.1575C14.1294 19.1803 13.8101 19.1468 13.509 19.0662C13.0954 18.9552 12.7137 18.7529 12.399 18.4807C12.2226 18.3286 12.066 18.1567 11.9337 17.9666C11.8105 17.7567 11.733 17.5164 11.7132 17.2579C11.6965 17.0221 11.7299 16.7925 11.806 16.5856C11.8075 16.575 11.812 16.5643 11.8151 16.5567C11.8485 16.4655 11.8926 16.3757 11.9443 16.2921C12.0173 16.1841 12.1116 16.0883 12.2272 16.0092C12.3427 15.9301 12.4704 15.8754 12.6012 15.8465C12.659 15.8358 12.7168 15.8282 12.7761 15.8236C12.808 15.8221 12.8399 15.8191 12.8734 15.8206H12.9281C13.4375 15.8282 13.9028 16.0533 14.2161 16.4122H14.2145L14.2161 16.4107Z" fill="white"/>
<path d="M23.4947 16.4107C23.3685 16.5795 23.262 16.7636 23.1769 16.9598C23.0629 17.2229 22.9914 17.5118 22.9686 17.8145C22.9579 17.9575 22.9579 18.0974 22.9716 18.2358C22.9975 18.5613 23.0841 18.8715 23.221 19.1544C23.2316 19.1544 23.2408 19.1575 23.2514 19.1575C23.5814 19.1803 23.9007 19.1468 24.2018 19.0662C24.6154 18.9552 24.997 18.7529 25.3118 18.4807C25.4882 18.3286 25.6448 18.1567 25.7771 17.9666C25.9002 17.7567 25.9778 17.5164 25.9976 17.2579C26.0143 17.0221 25.9808 16.7925 25.9048 16.5856C25.9048 16.575 25.8987 16.5643 25.8957 16.5567C25.8622 16.4655 25.8181 16.3757 25.7664 16.2921C25.6934 16.1841 25.5992 16.0883 25.4836 16.0092C25.368 15.9301 25.2403 15.8754 25.1095 15.8465C25.0518 15.8358 24.994 15.8282 24.9347 15.8236C24.9027 15.8221 24.8708 15.8191 24.8374 15.8206H24.7826C24.2732 15.8282 23.8079 16.0533 23.4947 16.4122H23.4962L23.4947 16.4107Z" fill="white"/>
</g>
<defs>
<clipPath id="clip0_181_3536">
<rect width="170" height="40" fill="white"/>
</clipPath>
</defs>
</svg>
