<svg width="24" height="24" viewBox="0 0 24 24" fill="none" xmlns="http://www.w3.org/2000/svg">
<g clip-path="url(#clip0_377_2634)">
<path d="M8.40039 23.5999H15.6004V15.5999H23.6004V8.3999H15.6004V0.399902H8.40039V8.3999H0.400391V15.5999H8.40039V23.5999Z" fill="#FF284F"/>
<path d="M15.6 24H8.4C8.29391 24 8.19217 23.9579 8.11716 23.8828C8.04214 23.8078 8 23.7061 8 23.6V16H0.4C0.293913 16 0.192172 15.9579 0.117157 15.8828C0.0421427 15.8078 0 15.7061 0 15.6V8.4C0 8.29391 0.0421427 8.19217 0.117157 8.11716C0.192172 8.04214 0.293913 8 0.4 8H8V0.4C8 0.293913 8.04214 0.192172 8.11716 0.117157C8.19217 0.0421427 8.29391 0 8.4 0L15.6 0C15.7061 0 15.8078 0.0421427 15.8828 0.117157C15.9579 0.192172 16 0.293913 16 0.4V8H23.6C23.7061 8 23.8078 8.04214 23.8828 8.11716C23.9579 8.19217 24 8.29391 24 8.4V15.6C24 15.7061 23.9579 15.8078 23.8828 15.8828C23.8078 15.9579 23.7061 16 23.6 16H16V23.6C16 23.7061 15.9579 23.8078 15.8828 23.8828C15.8078 23.9579 15.7061 24 15.6 24ZM8.8 23.2H15.2V15.6C15.2 15.4939 15.2421 15.3922 15.3172 15.3172C15.3922 15.2421 15.4939 15.2 15.6 15.2H23.2V8.8H15.6C15.4939 8.8 15.3922 8.75786 15.3172 8.68284C15.2421 8.60783 15.2 8.50609 15.2 8.4V0.8H8.8V8.4C8.8 8.50609 8.75786 8.60783 8.68284 8.68284C8.60783 8.75786 8.50609 8.8 8.4 8.8H0.8V15.2H8.4C8.50609 15.2 8.60783 15.2421 8.68284 15.3172C8.75786 15.3922 8.8 15.4939 8.8 15.6V23.2Z" fill="#231F20"/>
</g>
<defs>
<clipPath id="clip0_377_2634">
<rect width="24" height="24" fill="white"/>
</clipPath>
</defs>
</svg>
