<svg width="40" height="40" viewBox="0 0 40 40" fill="none" xmlns="http://www.w3.org/2000/svg">
<path d="M25.65 7.53331L7.75 25.4333C7.06667 26.1166 5.96667 26.1166 5.3 25.4333H5.28334C2.96667 23.1 2.96667 19.3333 5.28334 17.0166L17.2 5.09998C19.5333 2.76664 23.3 2.76664 25.6333 5.09998C26.3167 5.74998 26.3167 6.86664 25.65 7.53331Z" fill="#62A088"/>
<path fill-rule="evenodd" clip-rule="evenodd" d="M29.6167 9.0667L34.7 14.15C37.05 16.4834 37.05 20.2667 34.6833 22.6L23.1329 34.1666H35.4167C36.1 34.1666 36.6667 34.7333 36.6667 35.4166C36.6667 36.1 36.1 36.6666 35.4167 36.6666H4.58334C3.90001 36.6666 3.33334 36.1 3.33334 35.4166C3.33334 34.7333 3.90001 34.1666 4.58334 34.1666H14.0011L9.26668 29.4167C8.58335 28.7334 8.58335 27.6334 9.26668 26.9667L27.1667 9.0667C27.8333 8.38337 28.9333 8.38337 29.6167 9.0667ZM19.25 31.2334L21.2667 29.2C21.6833 28.8 21.6833 28.0834 21.2667 27.6667C20.85 27.2667 20.15 27.2667 19.75 27.6667L17.7167 29.7C17.3 30.1334 17.3 30.8167 17.7167 31.2334C18.15 31.65 18.8333 31.65 19.25 31.2334ZM23.8167 26.6667L27.8833 22.5834C28.3 22.1667 28.3 21.4834 27.8833 21.05C27.4667 20.65 26.7667 20.65 26.3667 21.05L22.2833 25.1334C21.8667 25.5667 21.8667 26.25 22.2833 26.6667C22.7167 27.0667 23.4 27.0667 23.8167 26.6667Z" fill="#A8E6CE"/>
</svg>
