<svg width="40" height="40" viewBox="0 0 40 40" fill="none" xmlns="http://www.w3.org/2000/svg">
<g clip-path="url(#clip0_214_12736)">
<path d="M35.0725 26.931C34.4992 26.6305 33.7909 26.8519 33.4907 27.4253C30.8977 32.3753 25.8186 35.4504 20.2355 35.4504C12.0002 35.4504 5.29882 28.7585 5.28273 20.5269L6.22312 21.4673C6.45194 21.6961 6.75187 21.8106 7.05171 21.8106C7.35155 21.8106 7.65155 21.6962 7.8803 21.4673C8.33796 21.0096 8.33796 20.2677 7.8803 19.81L4.99218 16.9218C4.77734 16.6761 4.46241 16.5202 4.11046 16.5202C3.93719 16.52 3.76605 16.5584 3.60941 16.6325C3.45278 16.7065 3.31456 16.8145 3.20476 16.9485L0.343273 19.81C-0.114384 20.2676 -0.114384 21.0096 0.343273 21.4673C0.800851 21.925 1.54288 21.9249 2.00054 21.4673L2.93898 20.5289C2.94718 25.1372 4.7453 29.4685 8.00476 32.728C11.2717 35.995 15.6154 37.7942 20.2356 37.7942C26.6934 37.7942 32.568 34.2378 35.5669 28.5128C35.8672 27.9395 35.6459 27.2313 35.0725 26.931ZM39.6568 18.5327C39.1992 18.075 38.4572 18.075 37.9995 18.5327L37.061 19.4711C37.0528 14.8628 35.2548 10.5315 31.9952 7.27198C28.7284 4.00503 24.3847 2.20581 19.7644 2.20581C13.3066 2.20581 7.4321 5.76222 4.4332 11.4871C4.1328 12.0604 4.35413 12.7687 4.92749 13.069C5.5007 13.3693 6.20898 13.148 6.50929 12.5747C9.10226 7.62464 14.1814 4.54956 19.7644 4.54956C27.9996 4.54956 34.701 11.2414 34.7173 19.4729L33.7769 18.5326C33.3194 18.075 32.5773 18.075 32.1197 18.5326C31.662 18.9903 31.662 19.7322 32.1197 20.1899L35.007 23.0772C35.2219 23.3234 35.5371 23.4797 35.8895 23.4797C36.2543 23.4797 36.5801 23.313 36.795 23.0517L39.6567 20.19C40.1144 19.7322 40.1144 18.9903 39.6568 18.5327Z" fill="#3C3C3B"/>
<path d="M13 22.3139V19.8819H21.1128C21.2405 19.8819 21.396 19.878 21.5795 19.8701C21.7709 19.8544 21.9823 19.815 22.2137 19.7521C22.8758 19.5711 23.3544 19.2444 23.6496 18.7722C23.9447 18.2921 24.0923 17.7333 24.0923 17.0958C24.0923 16.7102 24.0325 16.3245 23.9128 15.9389C23.8011 15.5454 23.6057 15.1991 23.3265 14.9C23.0553 14.6009 22.6843 14.3924 22.2137 14.2743C22.0063 14.2192 21.7949 14.1877 21.5795 14.1799C21.3721 14.172 21.2165 14.1681 21.1128 14.1681H16.6017V11.5H21.2325C21.3202 11.5 21.4917 11.5039 21.747 11.5118C22.0103 11.5197 22.3014 11.5472 22.6205 11.5944C23.6097 11.744 24.4274 12.0706 25.0735 12.5743C25.7276 13.078 26.2103 13.7155 26.5214 14.4868C26.8405 15.2502 27 16.0924 27 17.0132C27 18.422 26.637 19.5868 25.9111 20.5076C25.1852 21.4285 24.0883 21.9991 22.6205 22.2194C22.3014 22.2588 22.0103 22.2863 21.747 22.3021C21.4917 22.31 21.3202 22.3139 21.2325 22.3139H13ZM13 26.1861V23.9549H23.2068V26.1861H13ZM14.7111 28.5V11.5H17.5949V28.5H14.7111Z" fill="#3C3C3B"/>
</g>
<defs>
<clipPath id="clip0_214_12736">
<rect width="40" height="40" fill="white"/>
</clipPath>
</defs>
</svg>
