<svg width="237" height="250" viewBox="0 0 237 250" fill="none" xmlns="http://www.w3.org/2000/svg">
<path d="M226.909 112.208C227.479 106.162 227.775 100.037 227.775 93.8333C227.775 88.2222 227.539 82.6667 227.062 77.1759C225.22 55.4676 219.789 34.7778 211.377 15.713C209.011 10.338 206.409 5.09722 203.581 0C198.511 1.99537 193.604 4.3287 188.9 6.96759C171.997 16.4352 157.632 29.8889 147.071 46.0602C137.775 44.6944 128.261 43.9815 118.576 43.9815C108.891 43.9815 98.9279 44.7222 89.4233 46.1667C76.0159 25.6019 56.4557 9.40278 33.3492 0.199074C20.5251 23.3889 12.3075 49.4907 9.96495 77.2546C9.49736 82.713 9.26125 88.25 9.26125 93.8333C9.26125 95.4491 9.27977 97.0509 9.3168 98.6481C9.43254 103.356 9.71495 108.019 10.164 112.634C9.50662 113.81 8.89088 115.009 8.30291 116.222C3.55291 125.977 0.895508 136.935 0.895508 148.509C0.895508 150.866 1.01125 153.19 1.21958 155.481C2.68254 171.093 8.97884 185.287 18.6177 196.56C18.6177 196.56 18.6239 196.566 18.6362 196.579C22.6038 200.616 26.7659 204.477 31.0668 208.144C31.0853 208.162 31.1131 208.181 31.1316 208.19C35.1964 211.667 39.3909 214.958 43.7335 218.074C51.5112 223.667 59.7242 228.699 68.3075 233.097C81.5992 239.935 95.789 245.282 110.659 248.898C111.581 249.125 112.502 249.347 113.433 249.546C115.067 249.852 116.757 250 118.474 250C120.192 250 122.016 249.829 123.715 249.514C124.53 249.324 125.34 249.134 126.145 248.935C139.363 245.727 152.039 241.157 164.044 235.384C165.659 234.625 167.243 233.829 168.831 233.009C177.27 228.671 185.354 223.722 193.007 218.236C196.757 215.551 200.414 212.727 203.956 209.778C203.965 209.769 203.974 209.759 203.983 209.75C209.854 204.889 215.437 199.667 220.687 194.139C220.696 194.13 220.706 194.12 220.706 194.12C230.553 181.546 236.419 165.718 236.419 148.514C236.419 135.315 232.965 122.935 226.914 112.213L226.909 112.208ZM67.5807 154.94C57.914 154.94 50.0807 147.106 50.0807 137.44C50.0807 127.773 57.914 119.949 67.5807 119.949C77.2473 119.949 85.0714 127.782 85.0714 137.44C85.0714 147.097 77.2381 154.94 67.5807 154.94ZM167.437 181.764C167.4 181.847 167.354 181.935 167.303 182.019C166.21 184.278 164.988 186.472 163.664 188.588C158.539 196.81 151.84 203.963 143.997 209.602C139.84 212.593 135.358 215.167 130.608 217.245C130.4 217.347 130.192 217.444 129.974 217.532C126.632 218.926 122.956 219.699 119.113 219.699C115.715 219.699 112.456 219.102 109.437 218C109.428 217.991 109.419 217.991 109.4 217.981C108.326 217.546 107.275 217.079 106.229 216.593C101.641 214.458 97.3122 211.866 93.3029 208.866C85.8585 203.319 79.5066 196.407 74.5853 188.509C73.3122 186.468 72.1362 184.361 71.0714 182.185C70.9974 182.032 70.9186 181.884 70.8446 181.722C70.7288 181.426 70.664 181.106 70.664 180.773C70.664 179.282 71.8677 178.074 73.3631 178.074C74.2566 178.074 75.0436 178.509 75.5205 179.176C75.6038 179.31 75.6825 179.435 75.7659 179.556C76.1455 180.125 76.5529 180.676 76.9835 181.218C80.4788 185.699 85.3029 189.097 90.877 190.819C93.5159 191.644 96.3353 192.093 99.252 192.093C103.706 192.093 107.923 191.056 111.673 189.227C111.97 189.083 112.261 188.931 112.548 188.778C114.516 187.602 115.835 185.454 115.835 182.995C115.835 182.5 115.789 182.028 115.683 181.569C115.627 181.306 115.548 181.046 115.456 180.792C112.178 180.014 109.132 178.653 106.414 176.833C103.919 175.171 101.706 173.12 99.8631 170.764C98.9233 169.588 98.0853 168.324 97.3585 166.995C97.2057 166.718 97.0529 166.444 96.9233 166.157C96.9048 166.13 96.8955 166.102 96.8862 166.083C96.5436 165.278 96.3538 164.384 96.3538 163.463C96.3538 160.968 97.7103 158.782 99.7335 157.625C99.7335 157.625 99.7335 157.616 99.752 157.616C100.122 157.435 100.502 157.273 100.882 157.111C100.882 157.093 100.909 157.093 100.928 157.093C104.604 155.486 108.516 154.366 112.608 153.787C114.733 153.481 116.909 153.324 119.122 153.324C121.335 153.324 123.539 153.486 125.673 153.787C129.831 154.384 133.812 155.546 137.525 157.176C137.534 157.167 137.544 157.185 137.544 157.185C137.687 157.241 137.817 157.301 137.96 157.366C138.104 157.412 138.247 157.491 138.377 157.556C140.456 158.704 141.863 160.917 141.863 163.463C141.863 164.593 141.59 165.657 141.095 166.597C141.076 166.634 141.058 166.662 141.039 166.699C140.27 168.134 139.377 169.491 138.372 170.755C136.539 173.102 134.335 175.153 131.849 176.815C129.15 178.63 126.122 179.977 122.868 180.764C122.77 181.028 122.696 181.296 122.641 181.569C122.534 182.023 122.488 182.5 122.488 182.995C122.488 185.542 123.891 187.755 125.974 188.894C126.03 188.931 126.099 188.968 126.164 189C130.02 190.986 134.395 192.097 139.03 192.097C141.937 192.097 144.738 191.662 147.377 190.843C152.951 189.125 157.784 185.727 161.28 181.241C161.757 180.662 162.192 180.056 162.599 179.435C162.655 179.319 162.733 179.218 162.808 179.111C163.294 178.458 164.081 178.028 164.974 178.028C166.456 178.028 167.659 179.231 167.659 180.718C167.659 181.088 167.585 181.44 167.451 181.773L167.437 181.764ZM210.025 95.9815C201.715 81.5463 188.678 70.1806 173.03 63.9907C180.655 50.4213 189.868 37.8611 200.395 26.5694C207.53 41.9028 211.516 58.9954 211.516 77.0278C211.516 83.4769 211.002 89.8102 210.025 95.9815Z" fill="#EFEFEF"/>
<path d="M160.742 155.861C160.599 155.764 160.455 155.671 160.317 155.574C160.307 155.574 160.307 155.565 160.298 155.565C151.011 149.44 140.261 145.347 128.696 143.944C128.687 143.935 128.678 143.944 128.678 143.944C127.539 143.792 126.409 143.681 125.261 143.602C123.4 143.458 121.52 143.384 119.622 143.384C117.724 143.384 115.756 143.458 113.858 143.611C112.719 143.685 111.59 143.801 110.469 143.954C98.6545 145.398 87.7193 149.634 78.3073 155.968H78.2887C73.3628 160.176 67.2748 162.245 60.3026 162.245C58.1267 162.245 56.011 162 53.9786 161.532C52.5804 161.144 51.1961 160.704 49.8397 160.231C41.2378 157.278 33.3628 152.769 26.5295 147.051C26.1036 146.644 25.6545 146.264 25.1915 145.903C22.2471 143.634 18.5434 142.287 14.548 142.287C9.02948 142.287 4.11281 144.843 0.90448 148.829V148.514C0.90448 138.602 2.84892 129.144 6.40448 120.5C6.99244 119.046 7.63133 117.625 8.31189 116.227C8.89985 115.014 9.51559 113.815 10.173 112.639C9.72855 108.023 9.44152 103.361 9.32578 98.6528C9.28874 97.0556 9.27022 95.4537 9.27022 93.838C9.27022 88.2546 9.50633 82.7176 9.97392 77.2593C10.9137 66.1389 12.7934 55.2963 15.5387 44.7917C19.6221 29.0556 25.6591 14.1019 33.3489 0.199074C43.9739 4.42593 53.8397 10.1296 62.7008 17.0741C73.136 25.213 82.1776 35.0509 89.423 46.1667C95.2239 45.2824 101.113 44.6667 107.076 44.3241C110.872 44.0972 114.71 43.9815 118.576 43.9815C123.136 43.9815 127.654 44.1435 132.127 44.4491C137.168 44.8009 142.154 45.3426 147.071 46.0648C154.391 34.8519 163.557 24.9352 174.122 16.7593C178.784 13.1435 183.724 9.875 188.895 6.96759C193.594 4.3287 198.506 1.99074 203.576 0C206.404 5.09722 209.006 10.3426 211.372 15.713C214.983 23.8981 218.048 32.3889 220.506 41.125C223.793 52.7361 226.006 64.7963 227.057 77.1806C227.534 82.6667 227.77 88.2222 227.77 93.838C227.77 100.037 227.474 106.162 226.904 112.213C228.766 115.509 230.391 118.972 231.729 122.565C234.567 130.144 236.201 138.319 236.391 146.843V146.968C233.275 144.065 229.099 142.287 224.492 142.287C220.705 142.287 217.201 143.481 214.34 145.532C213.516 146.111 212.742 146.778 212.034 147.5C205.122 153.19 197.164 157.634 188.492 160.509C188.492 160.509 188.465 160.509 188.446 160.528C187.516 160.833 186.567 161.125 185.617 161.394C183.414 161.954 181.108 162.25 178.733 162.25C173.016 162.25 167.682 160.551 163.238 157.625C162.696 157.218 162.136 156.829 161.576 156.449C161.252 156.204 160.742 155.87 160.742 155.87V155.861Z" fill="#FFEAEA"/>
<path d="M85.0618 137.439C85.0618 147.106 77.2285 154.939 67.5711 154.939C57.9137 154.939 50.0711 147.106 50.0711 137.439C50.0711 127.773 57.9044 119.949 67.5711 119.949C77.2378 119.949 85.0618 127.782 85.0618 137.439Z" fill="#2D2D2D"/>
<path d="M73.0208 139.597C76.7384 139.597 79.7523 136.583 79.7523 132.866C79.7523 129.148 76.7384 126.134 73.0208 126.134C69.3033 126.134 66.2894 129.148 66.2894 132.866C66.2894 136.583 69.3033 139.597 73.0208 139.597Z" fill="#EFEFEF"/>
<path d="M151.733 141.495C151.247 141.982 150.613 142.227 149.872 142.227C148.381 142.227 147.173 141.023 147.173 139.528C147.173 138.986 147.335 138.482 147.608 138.065C147.645 138.009 147.682 137.949 147.733 137.894C147.733 137.884 147.743 137.875 147.752 137.866C147.77 137.847 147.78 137.838 147.789 137.82C152.946 131.051 161.104 126.681 170.275 126.681C179.446 126.681 187.641 131.079 192.798 137.875C192.872 137.972 192.942 138.065 193.006 138.171C193.27 138.579 193.414 139.074 193.414 139.588C193.414 141.079 192.21 142.287 190.729 142.287C190.071 142.287 189.483 142.06 189.02 141.681C188.956 141.625 188.886 141.565 188.821 141.5C183.854 137.181 177.368 134.56 170.275 134.56C169.326 134.56 168.395 134.607 167.474 134.704C166.669 134.778 165.868 134.894 165.081 135.037C162.974 135.426 160.951 136.051 159.044 136.889C158.664 137.051 158.284 137.222 157.914 137.412C157.534 137.593 157.164 137.783 156.803 137.982C156.442 138.171 156.081 138.38 155.729 138.597C155.377 138.806 155.025 139.023 154.682 139.25C154.34 139.477 153.997 139.704 153.669 139.963C153.326 140.199 153.006 140.449 152.682 140.713C152.358 140.958 152.044 141.227 151.743 141.491L151.733 141.5V141.495Z" fill="#2D2D2D"/>
<path d="M211.516 77.0277C211.516 83.4767 211.002 89.8101 210.025 95.9814C201.715 81.5462 188.678 70.1804 173.03 63.9906C180.655 50.4212 189.863 37.861 200.396 26.5693C207.525 41.9027 211.516 58.9953 211.516 77.0277Z" stroke="#3C3C3B" stroke-width="1.33" stroke-miterlimit="10"/>
<path d="M26.8582 77.0277C26.8582 83.4767 27.3721 89.8101 28.349 95.9814C36.6591 81.5462 49.6962 70.1804 65.3443 63.9906C57.7193 50.4212 48.5064 37.861 37.9786 26.5693C30.849 41.9027 26.8582 58.9953 26.8582 77.0277Z" fill="#2D2D2D"/>
<path d="M167.645 180.713C167.645 181.083 167.571 181.435 167.437 181.769C167.4 181.852 167.354 181.94 167.303 182.023C166.21 184.283 164.988 186.477 163.664 188.593C155.821 201.185 144.303 211.241 130.608 217.25C130.4 217.352 130.192 217.449 129.974 217.537C126.631 218.931 122.955 219.699 119.113 219.699C115.715 219.699 112.455 219.102 109.437 218C109.428 217.991 109.418 217.991 109.4 217.982C108.326 217.546 107.275 217.079 106.229 216.593C93.1546 210.496 82.1592 200.681 74.5897 188.505C73.3166 186.463 72.1407 184.357 71.0759 182.181C71.0018 182.028 70.9231 181.88 70.849 181.718C70.7333 181.421 70.6685 181.102 70.6685 180.769C70.6685 179.278 71.8722 178.07 73.3675 178.07C74.261 178.07 75.0481 178.505 75.5249 179.171C75.6083 179.306 75.687 179.431 75.7703 179.551C76.1499 180.121 76.5573 180.671 76.9879 181.213C80.4833 185.695 85.3073 189.093 90.8814 190.815C93.5203 191.639 96.3398 192.088 99.2564 192.088C103.71 192.088 107.928 191.051 111.678 189.222C111.983 189.088 112.275 188.945 112.553 188.773C114.52 187.597 115.84 185.449 115.84 182.991C115.84 182.496 115.793 182.023 115.687 181.565C115.631 181.301 115.553 181.042 115.46 180.787C112.182 180.009 109.136 178.648 106.418 176.829C103.918 175.167 101.71 173.116 99.8675 170.759C98.9277 169.583 98.0897 168.32 97.3629 166.991C97.2101 166.718 97.0573 166.44 96.9277 166.158C96.9092 166.13 96.8999 166.102 96.8907 166.083C96.5481 165.278 96.3583 164.384 96.3583 163.463C96.3583 160.968 97.7147 158.783 99.7379 157.625C99.7379 157.625 99.7472 157.616 99.7564 157.616C100.127 157.435 100.506 157.273 100.886 157.111C100.895 157.093 100.914 157.093 100.932 157.093C104.608 155.486 108.52 154.366 112.613 153.787C114.738 153.482 116.914 153.324 119.127 153.324C121.34 153.324 123.543 153.486 125.678 153.787C129.835 154.384 133.817 155.546 137.53 157.176C137.539 157.167 137.548 157.185 137.548 157.185C137.692 157.241 137.826 157.296 137.965 157.366C138.108 157.412 138.252 157.491 138.381 157.556C140.46 158.704 141.868 160.917 141.868 163.463C141.868 164.593 141.594 165.658 141.099 166.597C141.08 166.634 141.062 166.662 141.043 166.699C140.275 168.134 139.381 169.491 138.377 170.755C136.543 173.102 134.34 175.153 131.854 176.815C129.155 178.63 126.127 179.977 122.872 180.764C122.775 181.028 122.701 181.296 122.645 181.57C122.543 182.023 122.493 182.5 122.493 182.996C122.493 185.542 123.9 187.755 125.979 188.894C126.034 188.931 126.104 188.968 126.168 189C130.025 190.986 134.4 192.097 139.034 192.097C141.937 192.097 144.743 191.662 147.381 190.843C152.955 189.125 157.789 185.727 161.284 181.241C161.761 180.662 162.196 180.056 162.604 179.435C162.659 179.32 162.738 179.218 162.812 179.111C163.298 178.458 164.085 178.028 164.979 178.028C166.46 178.028 167.664 179.232 167.664 180.718L167.645 180.713Z" fill="#2D2D2D"/>
<path d="M142.085 198.819C141.354 200.842 140.396 202.759 139.229 204.537C135.382 210.472 129.363 214.861 122.298 216.597C121.414 216.671 120.511 216.722 119.613 216.722C118.715 216.722 117.826 216.685 116.946 216.597C109.845 214.861 103.803 210.444 99.9511 204.472C98.803 202.708 97.8539 200.805 97.1317 198.796C98.7937 199.101 100.502 199.259 102.252 199.259C105.34 199.259 108.312 198.768 111.09 197.847C111.118 197.847 111.146 197.828 111.178 197.819C113.826 197.004 116.636 196.555 119.562 196.555C122.289 196.555 124.928 196.944 127.423 197.676C127.983 197.884 128.544 198.064 129.113 198.217C131.581 198.93 134.192 199.31 136.891 199.31C138.664 199.31 140.414 199.148 142.095 198.824L142.085 198.819Z" fill="#EFEFEF"/>
<path d="M210.03 95.9814C201.719 81.5462 188.682 70.1804 173.034 63.9906C180.659 50.4212 189.868 37.861 200.4 26.5693C207.53 41.9027 211.52 58.9953 211.52 77.0277C211.52 83.4767 211.006 89.8101 210.03 95.9814Z" fill="#2D2D2D"/>
<path d="M90.4188 102.287C91.2059 103.371 91.8726 104.547 92.405 105.81C93.1179 107.5 93.5624 109.352 93.7059 111.287C93.7707 112.209 93.7707 113.102 93.6874 113.996C93.5253 116.084 92.9837 118.07 92.1318 119.885C92.067 119.885 92.0068 119.903 91.942 119.903C89.8818 120.047 87.8864 119.838 86.0161 119.315C83.4327 118.602 81.0577 117.301 79.0948 115.556C77.9929 114.579 77.0161 113.477 76.1874 112.26C75.4188 110.912 74.9327 109.371 74.8124 107.709C74.7059 106.199 74.9188 104.727 75.3911 103.398C75.4003 103.334 75.4281 103.264 75.4466 103.209C75.655 102.621 75.9327 102.051 76.2522 101.51C76.7059 100.815 77.2985 100.199 78.0161 99.6947C78.7383 99.1901 79.5346 98.8383 80.354 98.6484C80.7151 98.5836 81.0763 98.5327 81.4466 98.5049C81.6457 98.4957 81.8448 98.4772 82.0531 98.4864H82.3957C85.5763 98.5327 88.4744 99.9771 90.4281 102.283H90.4188V102.287Z" fill="#2D2D2D"/>
<path d="M148.599 102.287C147.812 103.371 147.145 104.547 146.613 105.81C145.9 107.5 145.456 109.352 145.312 111.287C145.247 112.209 145.247 113.102 145.331 113.996C145.493 116.084 146.034 118.07 146.886 119.885C146.951 119.885 147.011 119.903 147.076 119.903C149.136 120.047 151.132 119.838 153.002 119.315C155.585 118.602 157.96 117.301 159.923 115.556C161.025 114.579 162.002 113.477 162.826 112.26C163.595 110.912 164.081 109.371 164.201 107.709C164.303 106.199 164.099 104.727 163.622 103.398C163.613 103.334 163.585 103.264 163.567 103.209C163.358 102.621 163.081 102.051 162.761 101.51C162.308 100.815 161.715 100.199 160.997 99.6947C160.275 99.1901 159.479 98.8383 158.659 98.6484C158.298 98.5836 157.937 98.5327 157.567 98.5049C157.368 98.4957 157.169 98.4772 156.96 98.4864H156.618C153.437 98.5327 150.539 99.9771 148.585 102.283H148.595L148.599 102.287Z" fill="#2D2D2D"/>
</svg>
