<svg width="40" height="36" viewBox="0 0 40 36" fill="none" xmlns="http://www.w3.org/2000/svg">
<path d="M35.0725 24.931C34.4992 24.6306 33.7909 24.852 33.4907 25.4253C30.8977 30.3754 25.8186 33.4505 20.2355 33.4505C12.0002 33.4505 5.29879 26.7586 5.2827 18.527L6.22309 19.4674C6.45191 19.6962 6.75184 19.8106 7.05168 19.8106C7.35152 19.8106 7.65152 19.6963 7.88027 19.4674C8.33793 19.0097 8.33793 18.2677 7.88027 17.8101L4.99215 14.9219C4.77731 14.6762 4.46238 14.5202 4.11043 14.5202C3.93716 14.5201 3.76602 14.5584 3.60938 14.6325C3.45275 14.7066 3.31453 14.8146 3.20473 14.9486L0.343242 17.8101C-0.114414 18.2677 -0.114414 19.0097 0.343242 19.4674C0.80082 19.925 1.54285 19.9249 2.00051 19.4674L2.93895 18.529C2.94715 23.1373 4.74527 27.4686 8.00473 30.7281C11.2717 33.995 15.6154 35.7942 20.2356 35.7942C26.6934 35.7942 32.5679 32.2378 35.5668 26.5129C35.8672 25.9395 35.6458 25.2313 35.0725 24.931ZM39.6568 16.5327C39.1992 16.0751 38.4572 16.0751 37.9995 16.5327L37.061 17.4712C37.0528 12.8628 35.2547 8.53157 31.9952 5.27204C28.7283 2.00509 24.3847 0.205872 19.7644 0.205872C13.3066 0.205872 7.43207 3.76228 4.43316 9.4872C4.13277 10.0605 4.3541 10.7688 4.92746 11.0691C5.50066 11.3694 6.20895 11.1481 6.50926 10.5748C9.10223 5.6247 14.1814 2.54962 19.7644 2.54962C27.9996 2.54962 34.701 9.2415 34.7172 17.473L33.7769 16.5327C33.3193 16.075 32.5773 16.075 32.1197 16.5327C31.662 16.9903 31.662 17.7323 32.1197 18.1899L35.007 21.0773C35.2218 21.3234 35.5371 21.4798 35.8895 21.4798C36.2543 21.4798 36.58 21.3131 36.795 21.0517L39.6567 18.19C40.1144 17.7323 40.1144 16.9903 39.6568 16.5327Z" fill="#EFEFEF"/>
<path d="M13 20.3139V17.882H21.1128C21.2405 17.882 21.396 17.8781 21.5795 17.8702C21.7709 17.8545 21.9823 17.8151 22.2137 17.7521C22.8758 17.5711 23.3544 17.2445 23.6496 16.7723C23.9447 16.2922 24.0923 15.7334 24.0923 15.0959C24.0923 14.7102 24.0325 14.3246 23.9128 13.939C23.8011 13.5454 23.6057 13.1991 23.3265 12.9001C23.0553 12.601 22.6843 12.3924 22.2137 12.2744C22.0063 12.2193 21.7949 12.1878 21.5795 12.1799C21.3721 12.1721 21.2165 12.1681 21.1128 12.1681H16.6017V9.50006H21.2325C21.3202 9.50006 21.4917 9.504 21.747 9.51187C22.0103 9.51974 22.3014 9.54728 22.6205 9.59451C23.6097 9.74404 24.4274 10.0707 25.0735 10.5744C25.7276 11.0781 26.2103 11.7156 26.5214 12.4869C26.8405 13.2503 27 14.0924 27 15.0133C27 16.4221 26.637 17.5869 25.9111 18.5077C25.1852 19.4285 24.0883 19.9991 22.6205 20.2195C22.3014 20.2589 22.0103 20.2864 21.747 20.3021C21.4917 20.31 21.3202 20.3139 21.2325 20.3139H13ZM13 24.1862V21.9549H23.2068V24.1862H13ZM14.7111 26.5001V9.50006H17.5949V26.5001H14.7111Z" fill="#EFEFEF"/>
</svg>
