<svg width="29" height="24" viewBox="0 0 29 24" fill="none" xmlns="http://www.w3.org/2000/svg">
<g clip-path="url(#clip0_377_2511)">
<path d="M18.2471 3.3302C20.3409 0.983964 23.4468 0.715164 24.9586 0.739164C25.218 0.742206 25.4677 0.837106 25.6628 1.00677C25.8579 1.17644 25.9856 1.40972 26.0229 1.6646C26.2462 3.14876 26.3883 6.24188 24.3235 8.61308L18.2471 3.3302Z" fill="#F8972C"/>
<path d="M19.4092 4.34087C20.7026 2.89223 22.6204 2.72615 23.5533 2.74055C23.7134 2.74233 23.8676 2.80086 23.9882 2.90559C24.1087 3.01032 24.1876 3.15436 24.2106 3.31175C24.3488 4.22855 24.4368 6.13799 23.1608 7.60295L19.4092 4.34087Z" fill="#FF99CA"/>
<path d="M4.67584 8.61308C2.61104 6.24188 2.75314 3.14876 2.97644 1.6646C3.01373 1.40972 3.14144 1.17644 3.33657 1.00677C3.53169 0.837106 3.78141 0.742206 4.04074 0.739164C5.55164 0.715164 8.65754 0.983964 10.7523 3.3302L4.67584 8.61308Z" fill="#F8972C"/>
<path d="M5.83764 7.60344C4.56261 6.13848 4.65057 4.22904 4.78784 3.31224C4.81087 3.15485 4.88976 3.01081 5.01028 2.90608C5.13081 2.80135 5.28504 2.74282 5.44517 2.74104C6.37801 2.72664 8.29587 2.89272 9.58927 4.34136L5.83764 7.60344Z" fill="#FF99CA"/>
<path d="M20.8918 21.2765C21.6719 20.8829 22.3408 20.4596 22.9131 20.0304C25.2099 18.3092 26.252 15.4733 25.7976 12.6816C23.4051 -2.01787 5.25114 -1.88059 3.16507 13.1117C2.81514 15.626 3.80307 18.1901 5.8147 19.7981C6.53476 20.3698 7.31295 20.8653 8.13664 21.2765C12.1116 23.2829 16.9169 23.2829 20.8918 21.2765Z" fill="#F8972C"/>
<path d="M14.4997 19.4507C17.3602 19.4507 19.6791 17.7156 19.6791 15.5752C19.6791 13.4348 17.3602 11.6997 14.4997 11.6997C11.6392 11.6997 9.32031 13.4348 9.32031 15.5752C9.32031 17.7156 11.6392 19.4507 14.4997 19.4507Z" fill="#EFEFEF"/>
<path d="M16.3907 16.2154C16.3907 16.6915 16.2032 17.1245 15.8948 17.4499C15.5488 17.8157 15.0519 18.0451 14.499 18.0451C14.2377 18.046 13.979 17.9936 13.7389 17.8912C13.4988 17.7888 13.2824 17.6387 13.1031 17.4499C12.9165 17.2542 12.7766 17.0192 12.6938 16.7625C12.6109 16.5057 12.5873 16.2338 12.6246 15.9667C13.0287 16.1117 13.629 16.0407 14.498 15.3696C15.367 16.0407 15.9673 16.1127 16.3714 15.9667C16.3849 16.0483 16.3907 16.1309 16.3907 16.2154Z" fill="#1C0C12"/>
<path d="M14.4994 18.0449C15.2703 18.0449 15.8952 17.7784 15.8952 17.4497C15.8952 17.121 15.2703 16.8545 14.4994 16.8545C13.7285 16.8545 13.1035 17.121 13.1035 17.4497C13.1035 17.7784 13.7285 18.0449 14.4994 18.0449Z" fill="#FF99CA"/>
<path d="M17.2236 14.7957C17.1317 14.7688 17.0328 14.779 16.9484 14.8241C16.864 14.8692 16.801 14.9456 16.7731 15.0366C16.7721 15.0405 16.6378 15.4638 16.2501 15.628C15.9108 15.7518 15.4285 15.5877 14.861 15.1806V14.5816C14.8997 14.5682 14.9393 14.5586 14.9761 14.5403C15.5358 14.2638 16.3516 13.7541 16.0694 13.2443C15.8161 12.7883 15.296 12.7317 14.9229 12.7586C14.6403 12.7787 14.3567 12.7787 14.0742 12.7586C13.702 12.7326 13.181 12.7893 12.9277 13.2443C12.6445 13.7541 13.4613 14.2629 14.021 14.5403C14.0577 14.5586 14.0983 14.5682 14.136 14.5816V15.1806C13.5686 15.5867 13.0872 15.749 12.7102 15.6136C12.3593 15.4629 12.2259 15.0405 12.2259 15.0386C12.1949 14.9518 12.1317 14.8802 12.0492 14.8382C11.9667 14.7962 11.8712 14.7871 11.7822 14.8127C11.6932 14.8383 11.6174 14.8968 11.5703 14.976C11.5232 15.0553 11.5084 15.1494 11.5289 15.2392C11.5367 15.2661 11.7039 15.821 12.2481 16.1714C12.2481 16.1867 12.2452 16.2011 12.2452 16.2165C12.2452 16.7675 12.456 17.2936 12.8388 17.6978C13.2641 18.148 13.8692 18.4062 14.4985 18.4062C15.1278 18.4062 15.732 18.148 16.1583 17.6978C16.5411 17.2926 16.7518 16.7666 16.7518 16.2165C16.7518 16.204 16.7499 16.1925 16.7489 16.18C17.2777 15.8555 17.4594 15.268 17.4681 15.2402C17.4816 15.195 17.486 15.1477 17.4809 15.1009C17.4759 15.0541 17.4616 15.0087 17.4389 14.9674C17.4162 14.9261 17.3855 14.8897 17.3485 14.8602C17.3115 14.8307 17.2691 14.8088 17.2236 14.7957ZM13.3685 17.2034C13.1635 16.9771 13.0362 16.692 13.005 16.3893C13.4545 16.3874 13.9543 16.1963 14.4995 15.8171C15.035 16.1906 15.529 16.3701 15.9988 16.3682C15.9719 16.6795 15.8425 16.9734 15.6305 17.2043C15.0524 17.8158 13.9466 17.8158 13.3685 17.2034ZM9.58979 8.52783C8.90153 8.52783 8.34473 9.27087 8.34473 10.1877C8.34473 11.1045 8.90249 11.8475 9.58979 11.8475C10.2771 11.8475 10.8349 11.1045 10.8349 10.1877C10.8349 9.27183 10.2771 8.52783 9.58979 8.52783ZM19.4092 8.52783C18.7219 8.52783 18.1641 9.27087 18.1641 10.1877C18.1641 11.1045 18.7219 11.8475 19.4092 11.8475C20.0975 11.8475 20.6543 11.1045 20.6543 10.1877C20.6552 9.27183 20.0975 8.52783 19.4092 8.52783Z" fill="#1C0C12"/>
<path d="M22.9189 20.0336C22.3418 20.4637 21.6719 20.8832 20.8889 21.272C16.9217 23.2784 12.1087 23.2784 8.1415 21.272C7.31415 20.8654 6.53339 20.3713 5.8128 19.7984C4.86128 19.0298 4.11745 18.0381 3.64844 16.9126C3.9162 17.2294 4.22554 17.527 4.55517 17.7929C5.23624 18.3344 5.97193 18.8045 6.75047 19.1955C10.5118 21.0886 15.057 21.0886 18.8183 19.1955C19.5501 18.8173 20.1891 18.4179 20.7246 18.0185C22.8986 16.3913 23.8885 13.7101 23.4554 11.0691C22.8058 7.07741 20.9305 4.24253 18.5293 2.56445C22.0122 3.99773 24.9286 7.36445 25.7948 12.6857C26.2578 15.4688 25.2061 18.3142 22.9189 20.0336Z" fill="#FF881D"/>
<path d="M12.9462 3.04802C11.6518 3.27842 10.4329 3.77474 9.32218 4.5245C9.28255 4.55098 9.24858 4.58498 9.22222 4.62454C9.19587 4.66411 9.17765 4.70845 9.1686 4.75503C9.15956 4.80161 9.15988 4.84951 9.16954 4.89596C9.17919 4.94242 9.198 4.98653 9.22488 5.02574C9.25176 5.06496 9.28617 5.09851 9.32615 5.12447C9.36613 5.15044 9.41088 5.1683 9.45783 5.17703C9.50478 5.18576 9.553 5.18519 9.59973 5.17535C9.64646 5.16551 9.69077 5.1466 9.73011 5.1197C10.7349 4.43585 11.8741 3.97124 13.0728 3.7565C13.1197 3.74824 13.1644 3.7309 13.2045 3.70547C13.2446 3.68004 13.2793 3.64701 13.3065 3.60828C13.3338 3.56955 13.3531 3.52586 13.3633 3.47973C13.3736 3.43359 13.3745 3.3859 13.3662 3.33938C13.3579 3.29286 13.3405 3.24842 13.3148 3.2086C13.2892 3.16878 13.256 3.13436 13.217 3.10731C13.178 3.08025 13.134 3.06109 13.0875 3.05092C13.0411 3.04075 12.9931 3.03976 12.9462 3.04802ZM8.09451 5.50754C7.89925 5.68994 7.70978 5.88386 7.52418 6.08642C7.46252 6.15762 7.43132 6.24993 7.43723 6.34366C7.44315 6.43739 7.48571 6.52511 7.55583 6.58811C7.62596 6.65112 7.7181 6.68441 7.81259 6.6809C7.90709 6.67738 7.99647 6.63734 8.06165 6.5693C8.23371 6.38018 8.41061 6.20066 8.59138 6.03074C8.62608 5.99834 8.65399 5.95945 8.6735 5.9163C8.69302 5.87316 8.70376 5.82661 8.70511 5.77933C8.70645 5.73205 8.69838 5.68497 8.68135 5.6408C8.66433 5.59663 8.63868 5.55624 8.60588 5.52194C8.57334 5.48751 8.53426 5.45982 8.4909 5.44045C8.44754 5.42108 8.40074 5.41042 8.35321 5.40908C8.30569 5.40774 8.25836 5.41575 8.21396 5.43265C8.16956 5.44955 8.12897 5.475 8.09451 5.50754Z" fill="#FFA95C"/>
<path d="M9.92493 10.3372C10.1289 10.3372 10.2942 10.1317 10.2942 9.87831C10.2942 9.62488 10.1289 9.41943 9.92493 9.41943C9.72099 9.41943 9.55566 9.62488 9.55566 9.87831C9.55566 10.1317 9.72099 10.3372 9.92493 10.3372Z" fill="#EFEFEF"/>
<path d="M19.0734 10.3372C19.2773 10.3372 19.4426 10.1317 19.4426 9.87831C19.4426 9.62488 19.2773 9.41943 19.0734 9.41943C18.8694 9.41943 18.7041 9.62488 18.7041 9.87831C18.7041 10.1317 18.8694 10.3372 19.0734 10.3372Z" fill="#EFEFEF"/>
<path d="M15.6817 13.3438C15.7861 13.651 15.3385 13.9841 15.265 13.9438C15.2128 13.915 15.3636 13.7038 15.2718 13.4581C15.1867 13.2286 14.9634 13.1643 14.9837 13.1153C15.0156 13.0414 15.5773 13.0357 15.6817 13.3438Z" fill="#EFEFEF"/>
<path d="M28.2011 15.4291C28.1509 15.4032 27.3882 15.0153 26.2224 14.7753C26.2943 14.0584 26.2725 13.3353 26.1576 12.624C25.9302 11.1797 25.5089 9.77233 24.9048 8.43932C26.698 6.0614 26.609 3.15452 26.3809 1.60892C26.3312 1.27029 26.1615 0.960387 25.9022 0.734954C25.643 0.509521 25.3112 0.383359 24.9667 0.379164C23.8405 0.359964 21.0236 0.513564 18.8216 2.31068C17.4617 1.71747 15.9936 1.40772 14.5083 1.4006L14.3884 1.40156C12.944 1.42645 11.5192 1.73817 10.1979 2.31836C7.99394 0.512604 5.16064 0.354204 4.03448 0.379164C3.68958 0.382905 3.35738 0.508862 3.09773 0.734335C2.83807 0.959809 2.66806 1.26997 2.61831 1.60892C2.38921 3.167 2.30221 6.09404 4.11568 8.47292C3.50764 9.8054 3.04751 11.3251 2.80584 13.0617C2.73088 13.6293 2.72051 14.2035 2.77491 14.7734C1.61008 15.0134 0.847375 15.4022 0.798075 15.4281C0.717854 15.4751 0.658835 15.5508 0.633194 15.6397C0.607552 15.7286 0.617244 15.8239 0.660269 15.9059C0.703294 15.9879 0.776371 16.0504 0.864426 16.0804C0.952482 16.1105 1.0488 16.1059 1.13351 16.0675C1.14414 16.0617 1.82564 15.7123 2.87351 15.4896C2.99531 16.1558 3.20411 16.798 3.49314 17.4067C2.64634 17.9596 2.20941 18.5068 2.18041 18.5443C2.15153 18.5818 2.13037 18.6246 2.11814 18.6702C2.10591 18.7158 2.10285 18.7634 2.10914 18.8102C2.11542 18.857 2.13092 18.9021 2.15476 18.943C2.1786 18.9838 2.21031 19.0196 2.24808 19.0483C2.28584 19.077 2.32893 19.098 2.37487 19.1101C2.42081 19.1223 2.46871 19.1253 2.51584 19.1191C2.56297 19.1128 2.60839 19.0974 2.64953 19.0738C2.69066 19.0501 2.7267 19.0186 2.75558 18.9811C2.76138 18.9734 3.12484 18.5232 3.83244 18.0489C4.2897 18.8238 4.8833 19.5108 5.58501 20.0774C6.32486 20.6645 7.12406 21.1738 7.96978 21.5971C9.99744 22.6177 12.2389 23.1489 14.5122 23.1475C16.7587 23.1475 19.0052 22.63 21.0546 21.5971C21.7827 21.2315 22.4771 20.8033 23.13 20.3174C23.9482 19.6999 24.6351 18.9276 25.1513 18.0451C25.8637 18.5212 26.234 18.9744 26.2398 18.982C26.2687 19.0197 26.3048 19.0513 26.3461 19.075C26.3874 19.0987 26.433 19.114 26.4803 19.1201C26.5276 19.1261 26.5756 19.1228 26.6216 19.1104C26.6676 19.0979 26.7106 19.0764 26.7482 19.0473C26.786 19.0187 26.8176 18.983 26.8414 18.9422C26.8652 18.9014 26.8806 18.8563 26.8868 18.8096C26.893 18.7628 26.8898 18.7153 26.8775 18.6698C26.8652 18.6243 26.8439 18.5816 26.8149 18.5443C26.7859 18.5068 26.3442 17.952 25.4858 17.3952C25.77 16.7904 25.9778 16.152 26.1044 15.4876C27.16 15.7104 27.8522 16.0617 27.8638 16.0675C27.906 16.0893 27.9521 16.1026 27.9995 16.1067C28.0469 16.1108 28.0946 16.1056 28.14 16.0913C28.1853 16.077 28.2274 16.054 28.2638 16.0236C28.3001 15.9931 28.3301 15.9559 28.3519 15.9139C28.3743 15.8723 28.3882 15.8267 28.3927 15.7797C28.3972 15.7327 28.3923 15.6853 28.3783 15.6403C28.3643 15.5952 28.3414 15.5533 28.311 15.5171C28.2806 15.4808 28.2433 15.4509 28.2011 15.4291ZM24.9522 1.09916C25.1253 1.09872 25.2927 1.16064 25.4234 1.27344C25.554 1.38625 25.639 1.54228 25.6627 1.7126C25.8647 3.07868 25.944 5.58044 24.5404 7.69148C24.3908 7.41452 24.2312 7.14298 24.0619 6.8774C24.7627 5.5046 24.6892 4.03484 24.5713 3.26012C24.5351 3.0179 24.4136 2.79623 24.2286 2.6344C24.0435 2.47256 23.8067 2.38101 23.5602 2.37596C22.8584 2.36828 21.5524 2.46332 20.3673 3.12956C20.1024 2.9621 19.8305 2.8058 19.5524 2.66108C21.5282 1.21436 23.9594 1.0742 24.9522 1.09916ZM23.5901 6.17852C22.8815 5.19015 22.0233 4.31648 21.0459 3.58844C21.9942 3.15164 22.9879 3.0854 23.5466 3.095C23.6219 3.09629 23.6943 3.12413 23.7508 3.17356C23.8073 3.22298 23.8442 3.29076 23.855 3.36476C23.9497 3.983 24.0164 5.09468 23.5901 6.17852ZM3.33558 1.7126C3.35925 1.54195 3.44455 1.38566 3.57561 1.27281C3.70667 1.15996 3.87455 1.09825 4.04801 1.09916C5.06301 1.0742 7.49031 1.21532 9.46424 2.6678C9.18681 2.81276 8.91324 2.96924 8.64451 3.14108C7.51544 2.49788 6.29358 2.36636 5.43131 2.37596C5.18581 2.38194 4.95032 2.47382 4.76639 2.63541C4.58246 2.797 4.4619 3.01791 4.42598 3.25916C4.30901 4.04252 4.23748 5.52668 4.94411 6.90524C4.78074 7.16732 4.62608 7.44284 4.47624 7.72508C3.05524 5.61116 3.13354 3.08924 3.33558 1.7126ZM5.41874 6.21308C4.98374 5.11868 5.05044 3.99068 5.14421 3.3638C5.15505 3.29103 5.19128 3.22434 5.24658 3.17539C5.30188 3.12643 5.37273 3.09832 5.44678 3.09596C6.01228 3.08828 7.01181 3.15356 7.96591 3.59804C6.98645 4.33441 6.12729 5.21647 5.41874 6.21308ZM24.8594 17.0332C24.3554 16.7764 23.8226 16.5795 23.2721 16.4467C23.1803 16.4281 23.0848 16.4455 23.0056 16.4953C22.9264 16.5452 22.8698 16.6235 22.8475 16.7139C22.8252 16.8043 22.8391 16.8998 22.8862 16.9803C22.9333 17.0608 23.0099 17.12 23.1 17.1456C23.5961 17.266 24.0761 17.4445 24.5297 17.6774C24.0625 18.4797 23.4391 19.1816 22.696 19.7424C22.0995 20.1897 21.4364 20.5977 20.7278 20.9548C18.8016 21.9228 16.673 22.4272 14.5141 22.4272C12.3552 22.4272 10.2267 21.9228 8.30038 20.9548C7.49943 20.5541 6.74237 20.0722 6.04128 19.5168C5.40688 19.0037 4.86998 18.382 4.45594 17.6812C4.91393 17.4465 5.39841 17.2667 5.89918 17.1456C5.94538 17.1343 5.98891 17.1142 6.02728 17.0863C6.06565 17.0583 6.0981 17.0232 6.12279 16.9828C6.14747 16.9424 6.1639 16.8976 6.17115 16.8509C6.17839 16.8042 6.17631 16.7566 6.16501 16.7107C6.15371 16.6648 6.13342 16.6216 6.1053 16.5835C6.07718 16.5454 6.04178 16.5131 6.00112 16.4886C5.96045 16.4641 5.91533 16.4478 5.86831 16.4406C5.8213 16.4334 5.77332 16.4355 5.72711 16.4467C5.16983 16.5814 4.63079 16.7819 4.12148 17.0438C3.8738 16.5101 3.69453 15.9476 3.58788 15.3696C4.10785 15.3039 4.63321 15.2911 5.15581 15.3312C5.34528 15.335 5.52991 15.1977 5.54538 15C5.54907 14.9528 5.54338 14.9054 5.52862 14.8604C5.51386 14.8155 5.49032 14.7738 5.45935 14.7379C5.42837 14.702 5.39058 14.6725 5.34812 14.651C5.30565 14.6296 5.25936 14.6167 5.21188 14.6131C4.63925 14.5704 4.06375 14.5852 3.49411 14.6572C3.45066 14.1593 3.46136 13.6582 3.52601 13.1625C4.57484 5.60828 9.74264 2.17436 14.3971 2.12156L14.5083 2.1206C19.1087 2.1206 24.2446 5.39036 25.4423 12.7392C25.5476 13.3852 25.5621 14.0284 25.5041 14.6563C24.9355 14.5844 24.361 14.5692 23.7893 14.6112C23.6933 14.6185 23.6042 14.6634 23.5415 14.7359C23.4788 14.8084 23.4476 14.9027 23.4548 14.998C23.4703 15.1958 23.624 15.335 23.8434 15.3292C24.3599 15.2902 24.8791 15.303 25.393 15.3676C25.2833 15.9422 25.1041 16.5014 24.8594 17.0332Z" fill="#1C0C12"/>
<path d="M7.56619 15.6614C8.15719 15.6614 8.63629 15.3421 8.63629 14.9481C8.63629 14.5542 8.15719 14.2349 7.56619 14.2349C6.97519 14.2349 6.49609 14.5542 6.49609 14.9481C6.49609 15.3421 6.97519 15.6614 7.56619 15.6614Z" fill="#FF99CA"/>
<path d="M21.4324 15.6614C22.0234 15.6614 22.5025 15.3421 22.5025 14.9481C22.5025 14.5542 22.0234 14.2349 21.4324 14.2349C20.8414 14.2349 20.3623 14.5542 20.3623 14.9481C20.3623 15.3421 20.8414 15.6614 21.4324 15.6614Z" fill="#FF99CA"/>
</g>
<defs>
<clipPath id="clip0_377_2511">
<rect width="29" height="24" fill="white"/>
</clipPath>
</defs>
</svg>
