<svg width="28" height="28" viewBox="0 0 28 28" fill="none" xmlns="http://www.w3.org/2000/svg">
<g clip-path="url(#clip0_377_2674)">
<path d="M1.79848 13.4085C2.0309 13.617 2.0309 13.9819 1.79848 14.1903C-0.752637 16.4784 0.561613 18.3239 2.92701 18.3239C5.42601 18.3239 6.84553 16.2981 6.84553 13.7994C6.84553 11.3005 5.42601 9.2749 2.92701 9.2749C0.561613 9.2749 -0.752637 11.1204 1.79848 13.4085V13.4085Z" fill="#F7EF87"/>
<path d="M21.8843 16.5876L23.4126 18.9238C23.9552 19.7535 25.1235 19.8742 25.8244 19.1733C26.8357 18.1619 26.8357 16.5226 25.8244 15.5116L24.6518 14.339C23.9518 13.639 22.8168 13.639 22.1167 14.339C21.5169 14.9391 21.4197 15.8775 21.8843 16.5876Z" fill="#EFD176"/>
<path d="M24.4902 17.5021C24.4282 17.5022 24.367 17.4883 24.3112 17.4613C24.2554 17.4343 24.2065 17.395 24.1681 17.3464L22.7928 15.6069C22.7593 15.5646 22.7346 15.5162 22.7198 15.4644C22.7051 15.4126 22.7008 15.3584 22.707 15.3049C22.7133 15.2514 22.73 15.1996 22.7563 15.1526C22.7825 15.1055 22.8178 15.0641 22.86 15.0307C22.9023 14.9973 22.9507 14.9725 23.0025 14.9578C23.0543 14.9431 23.1086 14.9387 23.1621 14.945C23.2156 14.9512 23.2673 14.968 23.3144 14.9942C23.3614 15.0205 23.4028 15.0557 23.4362 15.098L24.8117 16.8378C24.8451 16.88 24.8698 16.9284 24.8845 16.9802C24.8992 17.032 24.9035 17.0862 24.8973 17.1397C24.891 17.1932 24.8743 17.2449 24.848 17.2919C24.8217 17.3389 24.7865 17.3803 24.7442 17.4137C24.672 17.4711 24.5825 17.5022 24.4902 17.5021ZM15.2521 9.01916C15.0938 7.21534 13.4626 3.01163 10.1856 3.34489C6.85032 3.68395 6.51771 7.50005 8.19487 8.41781C9.87224 9.33574 12.0875 9.58889 12.4671 11.1712L15.2521 9.01916Z" fill="#F7EF87"/>
<path d="M13.4462 9.76888C13.3531 9.76879 13.2627 9.73702 13.19 9.67877C13.1174 9.62053 13.0667 9.53929 13.0463 9.44841C12.8566 8.60354 11.4398 7.16975 10.2391 6.60723C10.1903 6.58439 10.1465 6.55216 10.1102 6.51239C10.0739 6.47262 10.0457 6.42608 10.0274 6.37544C10.0091 6.3248 10.0009 6.27105 10.0034 6.21725C10.0058 6.16345 10.0188 6.11065 10.0417 6.06189C10.0645 6.0131 10.0967 5.96929 10.1365 5.93296C10.1763 5.89663 10.2228 5.8685 10.2735 5.85016C10.3241 5.83183 10.3779 5.82366 10.4317 5.82611C10.4855 5.82856 10.5383 5.8416 10.5871 5.86447C11.9034 6.48101 13.5771 8.06799 13.8467 9.26876C13.8602 9.3288 13.86 9.3911 13.8461 9.45104C13.8323 9.51099 13.8051 9.56705 13.7667 9.61508C13.7282 9.6631 13.6794 9.70186 13.6239 9.72848C13.5685 9.75511 13.5077 9.76891 13.4462 9.76888Z" fill="#EFD176"/>
<path d="M25.2061 13.7997C25.2061 9.97308 21.5083 6.87109 16.947 6.87109C12.3856 6.87109 4.41016 9.97308 4.41016 13.7997C4.41016 17.6264 12.6509 20.1766 16.947 20.1766C21.243 20.1766 25.2061 17.6264 25.2061 13.7997Z" fill="#EEA849"/>
<path d="M14.3274 7.13818C9.86102 7.96796 4.41016 10.6361 4.41016 13.7996C4.41016 17.6263 12.6509 20.1765 16.947 20.1765C17.1685 20.1765 17.3893 20.1692 17.6086 20.1559C12.8073 17.3079 12.7662 10.0459 14.3274 7.13818Z" fill="#E9901B"/>
<path d="M15.2989 14.0248C15.2989 13.2562 14.5162 12.6328 13.5508 12.6328C12.5854 12.6328 11.8027 13.2562 11.8027 14.0248C11.8027 14.7936 12.5854 15.417 13.5508 15.417C14.5161 15.417 15.2989 14.7936 15.2989 14.0248V14.0248ZM24.7739 14.0248C24.7739 13.2562 23.9912 12.6328 23.0258 12.6328C22.0605 12.6328 21.2777 13.2562 21.2777 14.0248C21.2777 14.7936 22.0605 15.417 23.0258 15.417C23.9912 15.417 24.7739 14.7936 24.7739 14.0248Z" fill="white"/>
<path d="M19.6975 12.9549C19.6975 12.0838 19.0667 12.002 18.2882 12.002C17.5097 12.002 16.8789 12.0838 16.8789 12.9549C16.8789 13.8258 17.5098 14.5319 18.2882 14.5319C19.0666 14.5319 19.6975 13.8258 19.6975 12.9549Z" fill="#4E5660"/>
<path d="M27.5901 5.99233C27.5901 7.30887 26.5226 8.37638 25.206 8.37638C23.8893 8.37638 22.822 7.30887 22.822 5.99233C22.822 4.67556 23.8893 3.60828 25.206 3.60828C26.5226 3.60828 27.5901 4.67556 27.5901 5.99233ZM22.521 2.23366C22.521 3.24067 21.7045 4.0571 20.6975 4.0571C19.6905 4.0571 18.874 3.24062 18.874 2.23366C18.874 1.2267 19.6905 0.410156 20.6975 0.410156C21.7045 0.410156 22.521 1.22664 22.521 2.23366Z" fill="#BAE7FF"/>
<path d="M22.06 3.44479C20.5663 3.67677 19.3752 1.48139 20.1876 0.48291C19.4288 0.703574 18.874 1.40363 18.874 2.23357C18.874 3.24058 19.6905 4.05701 20.6975 4.05701C21.2395 4.05701 21.7261 3.82011 22.06 3.44479Z" fill="#90C8E8"/>
<path d="M10.9767 16.8533L9.44861 19.1895C8.90578 20.0191 7.73771 20.1399 7.03662 19.4387C6.02555 18.4277 6.02555 16.7883 7.03662 15.777L8.20917 14.6045C8.90923 13.9046 10.0442 13.9046 10.7443 14.6045C11.3443 15.2045 11.4413 16.1432 10.9767 16.8532L10.9767 16.8533Z" fill="#F7EF87"/>
<path d="M8.37118 17.7675C8.27895 17.7676 8.18942 17.7365 8.11721 17.6791C8.07494 17.6457 8.03966 17.6043 8.01338 17.5573C7.98711 17.5103 7.97036 17.4585 7.96409 17.405C7.95782 17.3515 7.96215 17.2973 7.97683 17.2455C7.99151 17.1937 8.01627 17.1452 8.04967 17.103L8.79544 16.1596C8.82885 16.1174 8.87026 16.0821 8.91729 16.0558C8.96433 16.0296 9.01608 16.0129 9.06958 16.0066C9.12308 16.0004 9.17728 16.0047 9.2291 16.0194C9.28092 16.0342 9.32933 16.0589 9.37158 16.0923C9.54931 16.2327 9.57939 16.4907 9.43906 16.6685L8.69312 17.6118C8.65474 17.6605 8.60582 17.6997 8.55006 17.7267C8.49429 17.7537 8.43313 17.7676 8.37118 17.7675ZM3.58837 12.7149C3.52866 12.715 3.46966 12.702 3.4155 12.6769C3.36133 12.6518 3.31331 12.6151 3.27479 12.5695L2.53925 11.6987C2.46905 11.6157 2.43472 11.5081 2.44382 11.3997C2.45292 11.2913 2.50469 11.1909 2.58776 11.1207C2.67088 11.0505 2.77846 11.0162 2.88685 11.0254C2.99525 11.0345 3.09558 11.0863 3.1658 11.1694L3.90135 12.0401C3.93614 12.0812 3.96248 12.1288 3.97887 12.1801C3.99526 12.2314 4.00138 12.2854 3.99688 12.3391C3.99237 12.3928 3.97733 12.445 3.95262 12.4929C3.9279 12.5407 3.894 12.5832 3.85284 12.618C3.77897 12.6806 3.68524 12.715 3.58837 12.7149ZM2.85222 16.5756C2.75535 16.5756 2.66162 16.5412 2.58776 16.4785C2.50471 16.4083 2.45295 16.308 2.44387 16.1997C2.43478 16.0913 2.46911 15.9838 2.5393 15.9007L3.27479 15.03C3.34499 14.9469 3.44532 14.8951 3.55371 14.886C3.6621 14.8769 3.76967 14.9112 3.85276 14.9814C3.93585 15.0516 3.98764 15.1519 3.99675 15.2603C4.00587 15.3687 3.97155 15.4763 3.90135 15.5594L3.1658 16.4301C3.12729 16.4757 3.07927 16.5124 3.0251 16.5375C2.97094 16.5626 2.91193 16.5756 2.85222 16.5756Z" fill="#EFD176"/>
<path d="M10.5169 11.9403C10.4214 11.9403 10.3255 11.9072 10.2477 11.8395C10.1029 11.7133 9.98674 11.5576 9.90714 11.3828C9.82754 11.208 9.78633 11.0182 9.78627 10.8261C9.7863 10.634 9.82751 10.4442 9.90711 10.2694C9.98671 10.0947 10.1029 9.93897 10.2477 9.81288C10.4184 9.66397 10.6776 9.68191 10.8264 9.85259C10.8978 9.93462 10.9338 10.0417 10.9263 10.1502C10.9189 10.2587 10.8686 10.3598 10.7867 10.4313C10.7302 10.4804 10.6849 10.5411 10.6538 10.6093C10.6227 10.6774 10.6066 10.7514 10.6066 10.8263C10.6066 10.9773 10.6722 11.1213 10.7867 11.2211C10.8686 11.2926 10.9189 11.3937 10.9263 11.5022C10.9338 11.6107 10.8978 11.7178 10.8264 11.7998C10.7879 11.844 10.7403 11.8794 10.6869 11.9037C10.6335 11.9279 10.5755 11.9404 10.5169 11.9403ZM6.82139 14.4897C6.7224 14.4898 6.62676 14.4538 6.55227 14.3886C6.25893 14.1332 6.09082 13.7638 6.09082 13.3754C6.09082 12.9871 6.25893 12.6177 6.55227 12.362C6.6343 12.2906 6.74133 12.2547 6.84984 12.2621C6.95835 12.2696 7.05947 12.3198 7.13098 12.4017C7.20239 12.4838 7.23832 12.5908 7.23087 12.6993C7.22341 12.8078 7.17318 12.9089 7.09122 12.9804C7.03471 13.0296 6.9894 13.0903 6.95834 13.1584C6.92727 13.2266 6.91118 13.3006 6.91113 13.3754C6.91118 13.4503 6.92727 13.5243 6.95834 13.5925C6.9894 13.6606 7.03471 13.7213 7.09122 13.7705C7.2619 13.9191 7.27962 14.1783 7.13098 14.3492C7.09244 14.3934 7.04487 14.4288 6.99147 14.453C6.93807 14.4773 6.88004 14.4898 6.82139 14.4897ZM13.6845 18.8148C13.5854 18.8149 13.4896 18.779 13.4151 18.7137C13.2703 18.5875 13.1542 18.4318 13.0746 18.2571C12.995 18.0823 12.9537 17.8925 12.9537 17.7005C12.9537 17.5084 12.9949 17.3186 13.0745 17.1438C13.1541 16.969 13.2703 16.8134 13.4151 16.6873C13.586 16.5384 13.8451 16.5561 13.9938 16.7268C14.0292 16.7674 14.0563 16.8145 14.0734 16.8656C14.0906 16.9167 14.0975 16.9706 14.0938 17.0243C14.0901 17.0781 14.0759 17.1306 14.0519 17.1788C14.0279 17.227 13.9947 17.2701 13.9541 17.3055C13.8976 17.3546 13.8522 17.4153 13.8212 17.4834C13.7901 17.5516 13.774 17.6256 13.774 17.7005C13.774 17.7753 13.7901 17.8494 13.8212 17.9175C13.8522 17.9856 13.8976 18.0463 13.9541 18.0955C13.9947 18.1308 14.0279 18.1739 14.0519 18.2221C14.0759 18.2703 14.0901 18.3228 14.0938 18.3765C14.0975 18.4302 14.0905 18.4841 14.0734 18.5352C14.0562 18.5862 14.0292 18.6334 13.9938 18.674C13.9554 18.7182 13.9079 18.7537 13.8545 18.778C13.8011 18.8023 13.7431 18.8148 13.6845 18.8147V18.8148Z" fill="#EEA849"/>
<path d="M26.9876 7.57566C25.0345 7.87901 23.4774 5.00857 24.5396 3.70312C23.5475 3.99171 22.8223 4.90685 22.8223 5.99207C22.8223 7.30862 23.8895 8.37612 25.2063 8.37612C25.9148 8.37612 26.551 8.06659 26.9876 7.57566Z" fill="#90C8E8"/>
<path d="M20.6974 4.46731C21.9291 4.46731 22.931 3.46516 22.931 2.23366C22.931 1.00188 21.9291 0 20.6974 0C19.4658 0 18.4637 1.00188 18.4637 2.23366C18.4637 3.46522 19.4658 4.46726 20.6974 4.46726V4.46731ZM20.6974 0.820312C21.4767 0.820312 22.1107 1.45436 22.1107 2.23366C22.1107 3.01295 21.4767 3.64694 20.6974 3.64694C19.9181 3.64694 19.284 3.01295 19.284 2.23366C19.284 1.45436 19.9181 0.820312 20.6974 0.820312ZM26.9734 3.82812C26.8889 3.76174 26.7818 3.73113 26.675 3.74289C26.5682 3.75464 26.4703 3.80782 26.4023 3.89099C26.3343 3.97416 26.3016 4.08068 26.3113 4.18768C26.321 4.29468 26.3722 4.39361 26.4541 4.46321C26.9152 4.84028 27.1797 5.39766 27.1797 5.99233C27.1797 7.08077 26.2943 7.96622 25.2058 7.96622C24.1174 7.96622 23.232 7.08077 23.232 5.99233C23.232 5.01309 23.9329 4.19278 24.8984 4.04217C24.9517 4.03388 25.0027 4.01519 25.0487 3.98715C25.0947 3.95912 25.1347 3.9223 25.1665 3.8788C25.1983 3.8353 25.2211 3.78596 25.2338 3.73362C25.2465 3.68127 25.2488 3.62694 25.2405 3.57372C25.2322 3.5205 25.2135 3.46943 25.1854 3.42344C25.1574 3.37744 25.1206 3.33742 25.0771 3.30566C25.0336 3.2739 24.9843 3.25102 24.9319 3.23833C24.8796 3.22564 24.8252 3.22339 24.772 3.2317C23.4044 3.44509 22.4117 4.60616 22.4117 5.99233C22.4117 7.53298 23.6652 8.78653 25.2058 8.78653C26.7465 8.78653 28 7.53298 28 5.99233C28 5.15047 27.6258 4.36155 26.9734 3.82812ZM22.7331 11.2206C22.6243 11.2206 22.52 11.2638 22.4431 11.3407C22.3662 11.4176 22.3229 11.5219 22.3229 11.6307V12.381C22.3229 12.6076 22.5065 12.7911 22.7331 12.7911C22.8419 12.7911 22.9462 12.7479 23.0231 12.671C23.1 12.5941 23.1433 12.4898 23.1433 12.381V11.6307C23.1433 11.5219 23.1 11.4176 23.0231 11.3406C22.9462 11.2637 22.8419 11.2206 22.7331 11.2206ZM18.2878 11.5921C17.6972 11.5921 16.4684 11.5921 16.4684 12.955C16.4684 14.0509 17.2845 14.9423 18.2878 14.9423C19.291 14.9423 20.1073 14.0509 20.1073 12.955C20.1073 11.5921 18.8783 11.5921 18.2878 11.5921ZM18.2878 14.122C17.7369 14.122 17.2887 13.5986 17.2887 12.9552C17.2887 12.5612 17.3748 12.4124 18.2878 12.4124C19.2008 12.4124 19.287 12.5612 19.287 12.9552C19.287 13.5984 18.8387 14.122 18.2878 14.122ZM25.5513 14.6586C25.5944 14.3743 25.616 14.0872 25.6159 13.7996C25.6159 9.75297 21.727 6.46084 16.9467 6.46084C16.3471 6.46084 15.6957 6.5123 15.0158 6.60926C14.6906 5.84642 14.1634 4.88152 13.3647 4.1178C12.4183 3.21289 11.3349 2.81531 10.1439 2.93666C8.10763 3.14366 7.11664 4.52862 6.86842 5.75564C6.61056 7.02986 7.07497 8.27258 7.99782 8.77756C8.04781 8.80491 8.09932 8.83203 8.15166 8.85916C7.34031 9.29709 6.64004 9.7615 6.05789 10.2449C5.28226 9.35178 4.18703 8.86495 2.92725 8.86495C1.55301 8.86495 0.478892 9.44065 0.124298 10.3671C-0.0982798 10.9484 -0.212139 12.1562 1.52463 13.714C1.55771 13.7436 1.56263 13.7804 1.56263 13.7996C1.56263 13.8188 1.55771 13.8556 1.52463 13.8853C0.116697 15.148 -0.0713189 16.1798 0.0190796 16.8232C0.112869 17.4908 0.54758 18.045 1.24331 18.3829C1.29902 18.4101 1.36017 18.4243 1.42214 18.4243C1.51503 18.4245 1.60521 18.3931 1.67794 18.3353C1.75067 18.2775 1.80163 18.1968 1.8225 18.1063C1.84336 18.0158 1.83289 17.9208 1.7928 17.8371C1.75271 17.7533 1.68536 17.6856 1.60179 17.645C1.28881 17.4932 0.901298 17.2073 0.831462 16.7092C0.743033 16.079 1.18376 15.2931 2.07243 14.4958C2.17016 14.408 2.24832 14.3007 2.30184 14.1808C2.35536 14.0608 2.38303 13.931 2.38306 13.7996C2.38306 13.5343 2.2698 13.2805 2.07243 13.1035C1.07094 12.2049 0.640056 11.3146 0.890415 10.6605C1.12049 10.0589 1.90104 9.68527 2.92709 9.68527C3.96363 9.68527 4.82879 10.0693 5.45146 10.7984C4.5011 11.7574 3.99973 12.7759 3.99973 13.7996C3.99973 14.8312 4.50728 15.8154 5.51003 16.7331C4.95397 17.4192 4.18643 17.8209 3.26976 17.8995C3.1614 17.9088 3.06117 17.9608 2.99111 18.044C2.92105 18.1272 2.88689 18.2348 2.89613 18.3432C2.90544 18.4515 2.95741 18.5518 3.04061 18.6219C3.12381 18.6919 3.23144 18.7261 3.33981 18.7168C4.34366 18.6307 5.20455 18.2331 5.87103 17.5583C5.85823 18.343 6.1496 19.1314 6.7469 19.7287C7.12009 20.1017 7.61851 20.3066 8.13908 20.3066C8.20722 20.3066 8.2758 20.303 8.34459 20.2959C8.93806 20.2346 9.46569 19.9131 9.79212 19.4138L9.9284 19.2056C12.2592 20.0605 14.9189 20.5866 16.9466 20.5866C19.1499 20.5866 21.2412 19.9566 22.8488 18.8115L23.069 19.1483C23.3956 19.6476 23.9233 19.9692 24.5167 20.0306C24.5855 20.0377 24.6539 20.0411 24.7222 20.0411C25.2428 20.0411 25.7414 19.8364 26.1142 19.4634C27.2838 18.2938 27.2838 16.391 26.1142 15.2215L25.5513 14.6586ZM7.67227 5.91845C7.76474 5.46191 8.22188 3.95653 10.2267 3.75271C11.168 3.65701 12.0329 3.97939 12.7977 4.71062C13.4384 5.32328 13.8855 6.09618 14.181 6.74882C12.4865 7.07027 10.6784 7.64537 9.08299 8.39092C8.81447 8.27471 8.59151 8.16725 8.39152 8.05787C7.79039 7.72887 7.48792 6.8291 7.67227 5.91845ZM9.42057 18.4833C9.42007 18.4843 9.41948 18.4852 9.41882 18.4861L9.10568 18.9648C9.01215 19.1084 8.88766 19.2291 8.74135 19.3183C8.59504 19.4075 8.43062 19.4627 8.26016 19.4801C8.08975 19.498 7.91748 19.4776 7.756 19.4202C7.59453 19.3629 7.44795 19.2701 7.32703 19.1487C6.91539 18.7371 6.68877 18.19 6.68877 17.6079C6.68877 17.4118 6.71502 17.2199 6.765 17.0356C6.76774 17.026 6.77058 17.0166 6.77293 17.0069C6.87312 16.6553 7.0613 16.3327 7.32703 16.067L8.49963 14.8944C8.76902 14.6248 9.12296 14.4903 9.47696 14.4903C9.83095 14.4903 10.1849 14.6251 10.4545 14.8944C10.9146 15.3546 10.99 16.0839 10.6337 16.6286L9.42057 18.4833ZM22.4454 18.0917C20.9882 19.156 18.9842 19.7663 16.9467 19.7663C15.0904 19.7663 12.5687 19.2752 10.39 18.5L11.3204 17.0776C11.8882 16.2099 11.7679 15.0478 11.0345 14.3145C10.1758 13.4557 8.77849 13.4557 7.91967 14.3145L6.7469 15.487C6.52447 15.7094 6.33854 15.9654 6.19598 16.2458C5.28253 15.4539 4.82004 14.6325 4.82004 13.7996C4.82004 12.2651 6.39739 10.6139 9.14801 9.26865C10.8961 8.41378 12.9409 7.7735 14.7911 7.47233C14.8124 7.47058 14.8336 7.46698 14.8548 7.46184C15.5947 7.34415 16.3027 7.28115 16.9468 7.28115C21.2746 7.28115 24.7957 10.2052 24.7957 13.7996C24.7957 15.4603 23.9609 16.9847 22.4454 18.0917H22.4454ZM25.5344 18.8832C25.4134 19.0046 25.2668 19.0974 25.1053 19.1547C24.9438 19.212 24.7715 19.2325 24.6011 19.2146C24.4306 19.1972 24.2662 19.142 24.1199 19.0528C23.9736 18.9636 23.8491 18.8428 23.7555 18.6993L23.4939 18.2994C24.3697 17.5235 24.9909 16.6024 25.3265 15.5939L25.5341 15.8015C26.384 16.6513 26.384 18.0336 25.5344 18.8832ZM13.8426 11.2206C13.6162 11.2206 13.4324 11.4043 13.4324 11.6307V12.381C13.4324 12.4348 13.4431 12.4882 13.4637 12.5379C13.4843 12.5877 13.5145 12.6329 13.5526 12.671C13.5907 12.7091 13.6359 12.7393 13.6856 12.7599C13.7354 12.7805 13.7887 12.7911 13.8426 12.7911C13.8965 12.7911 13.9498 12.7805 13.9996 12.7599C14.0493 12.7393 14.0945 12.7091 14.1326 12.671C14.1707 12.6329 14.2009 12.5877 14.2215 12.5379C14.2422 12.4882 14.2528 12.4348 14.2528 12.381V11.6307C14.2528 11.5219 14.2095 11.4176 14.1326 11.3406C14.0557 11.2637 13.9514 11.2206 13.8426 11.2206Z" fill="black"/>
</g>
<defs>
<clipPath id="clip0_377_2674">
<rect width="28" height="28" fill="white"/>
</clipPath>
</defs>
</svg>
