<svg width="24" height="24" viewBox="0 0 24 24" fill="none" xmlns="http://www.w3.org/2000/svg">
<g clip-path="url(#clip0_377_2604)">
<path d="M17.6253 13.5C17.6253 13.5 14.2503 13.4062 14.2503 9.28125V4.5C14.2503 3.25734 13.2429 2.25 12.0003 2.25C10.7576 2.25 9.75028 3.25734 9.75028 4.5V9.28125C9.75028 13.4062 6.37528 13.5 6.37528 13.5H1.32858C1.01367 14.2149 0.375 15.7977 0.375 16.875L1.5 16.5V19.875H3.375L3 21.375H4.875L4.5 22.5C4.5 22.5 6.98438 23.625 12 23.625L11.9998 23.6246H12.0001L12 23.6249L12.0247 23.6248L12.0524 23.6247C17.0327 23.6168 19.5 22.4999 19.5 22.4999L19.125 21.3749H21L20.625 19.8749H22.5V16.4999L23.625 16.8749C23.625 15.7977 22.9864 14.215 22.6715 13.5H17.6253Z" fill="#FFEBD2"/>
<path d="M9.75 9.28125V4.5C9.75 3.25734 10.7573 2.25 12 2.25C13.2427 2.25 14.25 3.25734 14.25 4.5V9.28125C14.25 13.4062 17.625 13.5 17.625 13.5H22.6712C22.5682 13.2661 22.4997 13.1249 22.4997 13.1249L23.6247 13.4999C23.6247 12.5624 21.7497 9.37491 21.7497 9.37491H21.8035C21.7696 9.31467 21.7506 9.28125 21.7506 9.28125H22.446C22.2557 8.95477 21.5926 7.86553 21.021 7.51331C21.0773 7.4846 21.1328 7.4543 21.1875 7.42247C20.4762 6.42562 19.5922 5.20336 18.8435 4.21875C18.0587 3.18675 17.3457 2.29552 16.4518 1.62736C15.0727 0.835969 13.5663 0.375 11.9997 0.375C10.2714 0.375 8.61642 0.936047 7.12467 1.88287L6.8572 2.08575C6.77349 2.00511 6.68545 1.92907 6.59348 1.85798C4.39528 3.29142 3.06089 5.44992 2.31267 7.07058C2.51625 7.24412 2.73979 7.39277 2.97858 7.51336C2.40698 7.86544 1.74389 8.95463 1.55348 9.28125H2.24948C2.24948 9.28125 2.23036 9.31472 2.19647 9.375H2.24972C2.24972 9.375 0.641203 12.1096 0.404016 13.2579C0.385359 13.3496 0.375047 13.4312 0.375 13.4999L1.49972 13.125C1.49972 13.125 1.43133 13.2661 1.3283 13.5H6.37505C6.37505 13.5 9.75 13.4062 9.75 9.28125ZM20.9372 7.55377C20.9519 7.54688 20.9666 7.54022 20.9812 7.53309L20.9372 7.61184V7.55377Z" fill="#FFC3A0"/>
<path d="M12 21C12.8284 21 13.5 20.3284 13.5 19.5C13.5 18.6716 12.8284 18 12 18C11.1716 18 10.5 18.6716 10.5 19.5C10.5 20.3284 11.1716 21 12 21Z" fill="#D7A091"/>
<path d="M12.001 15.375H11.9998C10.5497 15.375 9.20887 15.9764 9.3742 17.625C9.75033 21.375 11.2503 20.25 11.9998 20.25L12.0002 20.25L12.001 20.25C12.7504 20.25 14.2504 21.375 14.6265 17.625C14.7919 15.9764 13.451 15.375 12.001 15.375Z" fill="#EBB4A0"/>
<path d="M7.74256 4.11117C7.66086 3.3764 7.34277 2.65879 6.77483 2.09985C5.32588 0.673823 3.54463 1.3926 2.51338 2.61135C1.30939 4.03425 0.683891 5.55478 2.00188 6.87281C2.82219 7.69312 4.46872 8.20312 5.99998 7.6875C6.38333 7.55845 5.70312 6.45314 5.34373 5.71875L6.98436 6.23437C6.98436 6.23437 6.55705 4.3034 5.85936 3.14062L7.74256 4.11117ZM16.1719 4.01742C16.2536 3.28265 16.5717 2.56504 17.1396 2.0061C18.5886 0.580073 20.3698 1.29885 21.4011 2.5176C22.6051 3.9405 23.3024 5.47889 21.9844 6.79687C21.2106 7.57059 20.3437 8.2656 18.0937 7.6875C17.6135 7.56412 18.3906 5.92185 18.5625 5.67187L16.875 6.375C16.875 6.375 17.4475 4.32712 18.1875 3.09374L16.1719 4.01742Z" fill="#F29555"/>
<path d="M8.25 9C7.69702 9 7.5 9.77484 7.5 10.5C7.5 11.2252 7.69702 12 8.25 12C8.80298 12 9 11.2252 9 10.5C9 9.77484 8.80298 9 8.25 9ZM15.75 9C15.197 9 15 9.77484 15 10.5C15 11.2252 15.197 12 15.75 12C16.303 12 16.5 11.2252 16.5 10.5C16.5 9.77484 16.303 9 15.75 9ZM10.9848 17.8902C11.058 17.9634 11.154 18 11.25 18C11.346 18 11.442 17.9634 11.5152 17.8902C11.55 17.8554 11.5776 17.814 11.5965 17.7685C11.6153 17.723 11.625 17.6742 11.625 17.625C11.625 17.5758 11.6153 17.527 11.5965 17.4815C11.5776 17.436 11.55 17.3946 11.5152 17.3598L10.7652 16.6098C10.6948 16.5395 10.5995 16.5 10.5 16.5C10.4006 16.5 10.3052 16.5395 10.2349 16.6098C10.2 16.6446 10.1724 16.686 10.1536 16.7315C10.1347 16.777 10.125 16.8258 10.125 16.875C10.125 16.9242 10.1347 16.973 10.1536 17.0185C10.1724 17.064 10.2 17.1054 10.2349 17.1402L10.9848 17.8902ZM12.75 18C12.7993 18.0001 12.848 17.9904 12.8935 17.9715C12.9391 17.9527 12.9804 17.925 13.0152 17.8902L13.7652 17.1402C13.8 17.1054 13.8276 17.064 13.8465 17.0185C13.8653 16.973 13.875 16.9242 13.875 16.875C13.875 16.8258 13.8653 16.777 13.8465 16.7315C13.8276 16.686 13.8 16.6446 13.7652 16.6098C13.6948 16.5395 13.5995 16.5 13.5 16.5C13.4006 16.5 13.3052 16.5395 13.2349 16.6098L12.4849 17.3598C12.45 17.3946 12.4224 17.436 12.4036 17.4815C12.3847 17.527 12.375 17.5758 12.375 17.625C12.375 17.6742 12.3847 17.723 12.4036 17.7685C12.4224 17.814 12.45 17.8554 12.4849 17.8902C12.5196 17.925 12.561 17.9527 12.6065 17.9715C12.652 17.9904 12.7008 18.0001 12.75 18ZM14.0772 19.9172C13.3152 20.3128 12.637 19.9016 12.375 19.7012V18.75C12.375 18.6505 12.3355 18.5552 12.2652 18.4848C12.1948 18.4145 12.0995 18.375 12 18.375C11.9005 18.375 11.8052 18.4145 11.7348 18.4848C11.6645 18.5552 11.625 18.6505 11.625 18.75V19.7013C11.3626 19.9019 10.6843 20.3126 9.92283 19.9172C9.83456 19.8714 9.7317 19.8625 9.63688 19.8925C9.54206 19.9225 9.46304 19.9889 9.41721 20.0772C9.37138 20.1655 9.36249 20.2683 9.3925 20.3631C9.42251 20.458 9.48895 20.537 9.57722 20.5828C9.93234 20.7672 10.272 20.8371 10.5835 20.8371C11.2035 20.8371 11.7105 20.5596 12 20.3552C12.2895 20.5596 12.7964 20.8371 13.4166 20.8371C13.7279 20.8371 14.0678 20.7672 14.4228 20.5828C14.5111 20.537 14.5775 20.4579 14.6075 20.3631C14.6375 20.2683 14.6287 20.1654 14.5829 20.0772C14.537 19.9889 14.458 19.9225 14.3631 19.8925C14.2683 19.8625 14.1654 19.8714 14.0772 19.9172ZM12.375 21H11.625C11.5255 21 11.4302 21.0395 11.3598 21.1098C11.2895 21.1802 11.25 21.2755 11.25 21.375C11.25 21.4745 11.2895 21.5698 11.3598 21.6402C11.4302 21.7105 11.5255 21.75 11.625 21.75H12.375C12.4745 21.75 12.5698 21.7105 12.6402 21.6402C12.7105 21.5698 12.75 21.4745 12.75 21.375C12.75 21.2755 12.7105 21.1802 12.6402 21.1098C12.5698 21.0395 12.4745 21 12.375 21Z" fill="black"/>
<path d="M23.5064 13.8556C23.5628 13.8744 23.6228 13.8796 23.6816 13.8706C23.7403 13.8616 23.7961 13.8388 23.8443 13.8041C23.8925 13.7694 23.9317 13.7236 23.9588 13.6707C23.9859 13.6179 24 13.5593 24 13.4999C24 12.7086 22.9736 10.7732 22.3979 9.74986H22.5C22.5653 9.74986 22.6295 9.7328 22.6862 9.70039C22.7428 9.66797 22.7901 9.62131 22.8232 9.56503C22.8563 9.50875 22.8741 9.4448 22.875 9.3795C22.8758 9.31421 22.8595 9.24983 22.8278 9.19275C22.7575 9.06628 22.2429 8.15672 21.6623 7.56352C21.8367 7.44023 22.0004 7.30244 22.1516 7.15162C23.4257 5.87752 23.2607 4.27308 21.6613 2.38275C20.9293 1.51772 19.9695 0.996937 19.0277 0.954C18.3454 0.922969 17.694 1.1468 17.1246 1.60317C17.1098 1.58993 17.094 1.57786 17.0773 1.56708C15.4395 0.52725 13.7312 0 12 0C10.2693 0 8.56148 0.526969 6.924 1.56628C6.90689 1.5773 6.89071 1.5897 6.87562 1.60336C6.30623 1.14698 5.65481 0.923203 4.97227 0.954047C4.03059 0.996984 3.07069 1.51777 2.33873 2.3828C0.739219 4.27313 0.574266 5.87756 1.84837 7.15167C1.99962 7.30252 2.16332 7.44034 2.33775 7.56366C1.75706 8.15686 1.24247 9.06647 1.1722 9.19294C1.1405 9.25003 1.12425 9.31441 1.12505 9.37971C1.12586 9.44501 1.14369 9.50897 1.1768 9.56527C1.20994 9.62152 1.25718 9.66815 1.31387 9.70055C1.37055 9.73295 1.43471 9.75 1.5 9.75H1.60209C1.02638 10.7734 1.03013e-09 12.7087 1.03013e-09 13.5C-4.40304e-06 13.5594 0.0141127 13.618 0.0411878 13.6709C0.0682628 13.7238 0.107521 13.7695 0.155726 13.8042C0.203931 13.839 0.259703 13.8618 0.318446 13.8707C0.377189 13.8797 0.437221 13.8746 0.493594 13.8558L0.814219 13.7489C0.471375 14.5803 1.03013e-09 15.9007 1.03013e-09 16.875C-4.40304e-06 16.9344 0.0141127 16.993 0.0411878 17.0459C0.0682628 17.0988 0.107521 17.1445 0.155726 17.1792C0.203931 17.214 0.259703 17.2368 0.318446 17.2457C0.377189 17.2547 0.437221 17.2496 0.493594 17.2308L1.125 17.0203V19.875C1.125 19.9745 1.16451 20.0698 1.23483 20.1402C1.30516 20.2105 1.40054 20.25 1.5 20.25H2.89472L2.6362 21.2841C2.62238 21.3393 2.62135 21.3971 2.63317 21.4528C2.64499 21.5085 2.66936 21.5609 2.70443 21.6058C2.7395 21.6507 2.78435 21.687 2.83556 21.712C2.88678 21.737 2.94301 21.75 3 21.75H4.35469L4.14422 22.3814C4.11489 22.4694 4.11921 22.5651 4.15634 22.6501C4.19347 22.7351 4.26078 22.8033 4.34527 22.8416C4.44975 22.8889 6.96136 24 12 24C12.0008 24 12.0016 23.9999 12.0024 23.9999C17.0395 23.9995 19.5503 22.8888 19.6547 22.8415C19.7392 22.8032 19.8065 22.735 19.8437 22.65C19.8808 22.565 19.8851 22.4693 19.8558 22.3813L19.6453 21.7499H21C21.057 21.7499 21.1132 21.7369 21.1645 21.7119C21.2157 21.687 21.2605 21.6506 21.2956 21.6057C21.3307 21.5608 21.355 21.5085 21.3669 21.4527C21.3787 21.397 21.3777 21.3393 21.3638 21.284L21.1053 20.2499H22.5C22.5995 20.2499 22.6948 20.2104 22.7652 20.1401C22.8355 20.0697 22.875 19.9744 22.875 19.8749V17.0202L23.5064 17.2307C23.5628 17.2495 23.6228 17.2546 23.6816 17.2456C23.7403 17.2367 23.7961 17.2139 23.8443 17.1791C23.8925 17.1444 23.9317 17.0987 23.9588 17.0458C23.9859 16.9929 24 16.9343 24 16.8749C24 15.9006 23.5286 14.5802 23.1858 13.7488L23.5064 13.8556ZM17.3766 2.38078C17.8606 1.90439 18.4046 1.6762 18.9936 1.70325C19.7167 1.73625 20.4999 2.17134 21.0887 2.86725C22.8498 4.94845 22.2361 6.00652 21.6213 6.62133C21.4219 6.82103 21.1954 6.99182 20.9486 7.1287C20.8669 7.14003 20.7912 7.17803 20.7333 7.2368C19.969 7.58302 19.0819 7.59656 18.2878 7.24467C18.3877 6.87998 18.6072 6.41752 19.0456 5.85577C19.0964 5.79079 19.1243 5.71091 19.1251 5.62847C19.1258 5.54604 19.0994 5.46564 19.0499 5.39973C19.0004 5.33382 18.9305 5.28606 18.8512 5.26384C18.7718 5.24162 18.6873 5.24618 18.6107 5.27681L17.4293 5.74941C17.6452 5.03442 18.05 3.93694 18.6565 3.24773C18.7097 3.18733 18.742 3.11142 18.7487 3.03123C18.7554 2.95104 18.7362 2.87083 18.6938 2.80243C18.6514 2.73404 18.5881 2.68109 18.5133 2.65142C18.4385 2.62175 18.3561 2.61692 18.2784 2.63766C18.2265 2.65148 17.5167 2.84648 16.7345 3.33422C16.8841 2.97689 17.1015 2.65148 17.3766 2.38078ZM2.91127 2.86725C3.50011 2.17134 4.2833 1.73625 5.00639 1.70325C5.59561 1.67606 6.13936 1.90439 6.62344 2.38078C6.89855 2.65153 7.11586 2.97689 7.26553 3.33417C6.48328 2.84644 5.7735 2.65148 5.72161 2.63761C5.64386 2.61687 5.5615 2.6217 5.4867 2.65137C5.4119 2.68104 5.34864 2.73399 5.30624 2.80238C5.26385 2.87078 5.24458 2.951 5.25128 3.03119C5.25799 3.11137 5.29031 3.18728 5.34347 3.24769C5.94858 3.9353 6.35386 5.03363 6.57023 5.74917L5.38927 5.27677C5.31274 5.24622 5.22828 5.24172 5.14894 5.26396C5.0696 5.28621 4.99979 5.33396 4.9503 5.39984C4.90081 5.46573 4.87439 5.54607 4.87512 5.62847C4.87586 5.71087 4.9037 5.79073 4.95436 5.85572C5.39283 6.41752 5.61234 6.87994 5.71219 7.24463C4.91803 7.59656 4.03078 7.58297 3.26644 7.23666C3.20864 7.17808 3.13315 7.14018 3.05166 7.1288C2.80471 6.99191 2.57818 6.82107 2.37867 6.62128C1.76386 6.00652 1.15022 4.94845 2.91127 2.86725ZM23.2035 16.3391L22.6185 16.1441C22.5622 16.1253 22.5021 16.1202 22.4434 16.1292C22.3847 16.1381 22.3289 16.1609 22.2807 16.1957C22.2325 16.2304 22.1932 16.2761 22.1661 16.329C22.1391 16.3819 22.1249 16.4405 22.125 16.4999V19.4999H20.625C20.568 19.4999 20.5117 19.5129 20.4605 19.5379C20.4093 19.5629 20.3644 19.5992 20.3293 19.6441C20.2943 19.689 20.2699 19.7414 20.2581 19.7971C20.2462 19.8529 20.2473 19.9106 20.2611 19.9659L20.5196 21H19.125C19.0656 21 19.007 21.0141 18.9542 21.0412C18.9013 21.0683 18.8556 21.1075 18.8208 21.1557C18.7861 21.2039 18.7633 21.2597 18.7543 21.3184C18.7454 21.3772 18.7505 21.4372 18.7692 21.4935L19.0309 22.2787C18.2245 22.5627 15.8728 23.25 12 23.25L11.998 23.25C8.12578 23.2498 5.77467 22.5626 4.96908 22.2787L5.23078 21.4936C5.24957 21.4373 5.2547 21.3772 5.24574 21.3185C5.23678 21.2598 5.21398 21.204 5.17924 21.1558C5.14449 21.1076 5.09879 21.0683 5.04589 21.0412C4.993 21.0142 4.93442 21 4.875 21H3.48028L3.7388 19.966C3.75262 19.9107 3.75366 19.853 3.74183 19.7972C3.73001 19.7415 3.70563 19.6892 3.67055 19.6443C3.6355 19.5993 3.59066 19.563 3.53945 19.538C3.48823 19.513 3.43199 19.5 3.375 19.5H1.875V16.5C1.875 16.4406 1.86087 16.382 1.8338 16.3291C1.80672 16.2762 1.76746 16.2305 1.71925 16.1958C1.67105 16.1611 1.61528 16.1383 1.55654 16.1293C1.4978 16.1203 1.43778 16.1255 1.38141 16.1443L0.796547 16.3392C1.00327 15.0224 1.82789 13.3082 1.83745 13.2885C1.86961 13.2222 1.88148 13.1478 1.87157 13.0747C1.86166 13.0016 1.83041 12.933 1.78173 12.8776C1.73306 12.8221 1.66912 12.7823 1.59791 12.763C1.5267 12.7438 1.45139 12.7459 1.38141 12.7692L0.885094 12.9347C1.20375 12.0347 2.01712 10.5106 2.57325 9.56512C2.60676 9.50816 2.62461 9.44336 2.62501 9.37727C2.62541 9.31119 2.60834 9.24617 2.57553 9.18881C2.54272 9.13144 2.49533 9.08377 2.43816 9.05061C2.381 9.01746 2.31609 9 2.25 9H2.16792C2.42827 8.60517 2.74734 8.18348 3.02105 7.9477C3.4873 8.1491 3.98977 8.25316 4.49766 8.25352C4.92578 8.25329 5.35068 8.1795 5.75381 8.03536C5.74404 8.07861 5.73131 8.12113 5.7157 8.16263C5.61966 8.41561 5.42513 8.58642 5.18203 8.63123C5.1336 8.64015 5.0874 8.65851 5.04607 8.68528C5.00474 8.71205 4.96908 8.7467 4.94115 8.78726C4.91321 8.82781 4.89354 8.87347 4.88325 8.92162C4.87296 8.96978 4.87226 9.01949 4.88119 9.06792C4.89923 9.16571 4.95537 9.25233 5.03725 9.30876C5.11914 9.36518 5.22007 9.38678 5.31787 9.36881C5.81747 9.2768 6.22828 8.92547 6.41681 8.42892C6.5558 8.06292 6.66427 7.37784 6.1897 6.40481L6.98564 6.72319C7.04873 6.74842 7.11748 6.75604 7.18456 6.74524C7.25164 6.73443 7.31453 6.7056 7.36649 6.66183C7.41846 6.61806 7.45756 6.56099 7.47961 6.49673C7.50167 6.43246 7.50585 6.36341 7.4917 6.29695C7.4768 6.22678 7.20412 4.96992 6.61505 3.82519C7.20441 4.1505 7.8923 4.66528 8.29327 5.42508C8.33998 5.51251 8.4194 5.5779 8.51419 5.60693C8.60897 5.63597 8.71139 5.62629 8.79906 5.58002C8.88673 5.53375 8.95251 5.45465 8.98202 5.36002C9.01153 5.26539 9.00237 5.16292 8.95655 5.07502C8.75705 4.69697 8.50387 4.37189 8.22741 4.0935C8.22713 4.09013 8.22717 4.0868 8.2268 4.08342C8.14706 3.36633 7.86277 2.69058 7.41731 2.14237C8.90461 1.21856 10.4458 0.75 12 0.75C13.5542 0.75 15.0954 1.21856 16.5825 2.14233C16.137 2.69058 15.8528 3.36628 15.7731 4.08342C15.7727 4.0868 15.7727 4.09008 15.7725 4.09341C15.496 4.37175 15.2429 4.69692 15.0433 5.07497C14.9975 5.16287 14.9883 5.26534 15.0178 5.35997C15.0473 5.45461 15.1131 5.53371 15.2008 5.57998C15.2885 5.62625 15.3909 5.63592 15.4857 5.60688C15.5805 5.57785 15.6599 5.51247 15.7066 5.42503C16.1077 4.66514 16.7955 4.15041 17.3848 3.82509C16.7958 4.96987 16.5231 6.22678 16.5082 6.29691C16.494 6.36337 16.4982 6.43242 16.5202 6.4967C16.5423 6.56097 16.5814 6.61805 16.6333 6.66182C16.6853 6.7056 16.7482 6.73443 16.8153 6.74523C16.8824 6.75603 16.9511 6.74839 17.0142 6.72314L17.8102 6.40477C17.3356 7.3778 17.4441 8.06292 17.583 8.42887C17.7716 8.92537 18.1824 9.2767 18.682 9.36877C18.7798 9.38673 18.8807 9.36513 18.9626 9.30871C19.0445 9.25229 19.1006 9.16566 19.1187 9.06787C19.1276 9.01945 19.1269 8.96974 19.1166 8.92158C19.1063 8.87342 19.0866 8.82776 19.0587 8.78721C19.0308 8.74666 18.9951 8.71201 18.9538 8.68524C18.9125 8.65847 18.8663 8.6401 18.8178 8.63119C18.5747 8.58638 18.3803 8.41561 18.2842 8.16258C18.2686 8.12107 18.2559 8.07855 18.246 8.03531C18.6492 8.17948 19.0741 8.25327 19.5022 8.25347C20.0104 8.25309 20.5131 8.14892 20.9796 7.94733C21.2659 8.19178 21.5856 8.62509 21.8317 8.99986H21.75C21.6839 8.99986 21.619 9.01733 21.5619 9.05049C21.5047 9.08365 21.4573 9.13132 21.4245 9.18869C21.3917 9.24605 21.3746 9.31106 21.375 9.37714C21.3754 9.44322 21.3933 9.50803 21.4268 9.56498C21.9829 10.5105 22.7963 12.0346 23.115 12.9345L22.6186 12.7691C22.5486 12.7458 22.4733 12.7437 22.4021 12.7629C22.3309 12.7822 22.267 12.822 22.2183 12.8775C22.1696 12.9329 22.1384 13.0015 22.1284 13.0746C22.1185 13.1477 22.1304 13.2221 22.1626 13.2885C22.1721 13.3081 22.997 15.0213 23.2035 16.3391Z" fill="black"/>
</g>
<defs>
<clipPath id="clip0_377_2604">
<rect width="24" height="24" fill="white"/>
</clipPath>
</defs>
</svg>
