<svg width="24" height="24" viewBox="0 0 24 24" fill="none" xmlns="http://www.w3.org/2000/svg">
<g clip-path="url(#clip0_377_2647)">
<path d="M3.59501 10.5015C3.59501 10.5015 0.451837 9.38828 0.451837 8.63587C0.451837 7.88346 1.68857 8.14043 1.68857 8.14043C1.68857 8.14043 -0.065277 6.92813 0.451837 6.40631C0.96895 5.88449 1.81132 6.40631 1.81132 6.40631C1.81132 6.40631 0.385112 5.21496 0.922994 4.67219C1.46088 4.12941 3.28439 4.36252 4.55168 7.01543H19.4482C20.7155 4.36252 22.539 4.12941 23.0769 4.67219C23.6148 5.21496 22.1886 6.40631 22.1886 6.40631C22.1886 6.40631 23.0309 5.88449 23.5481 6.40631C24.0652 6.92813 22.3113 8.14043 22.3113 8.14043C22.3113 8.14043 23.5481 7.88346 23.5481 8.63587C23.5481 9.38828 20.4049 10.5015 20.4049 10.5015" fill="#90C8E8"/>
<path d="M20.4893 11.9506C20.4893 6.27356 16.6886 1.67139 12 1.67139C7.31151 1.67139 3.51074 6.27356 3.51074 11.9506C3.51074 17.6277 7.31151 19.4459 12 19.4459C16.6886 19.4459 20.4893 17.6277 20.4893 11.9506Z" fill="#90C8E8"/>
<path d="M11.9383 19.4455C7.27801 19.4299 3.51074 17.6025 3.51074 11.9505C3.51074 6.27366 7.31127 1.67139 12 1.67139C9.35673 1.67139 7.21385 6.27366 7.21385 11.9505C7.21385 17.5835 9.32346 19.4175 11.9383 19.4455Z" fill="#7CB4D4"/>
<path d="M18.5943 17.3146C17.0379 18.8601 14.6621 19.446 12.0003 19.446C9.33842 19.446 6.96268 18.8601 5.40625 17.3146C6.96268 14.993 9.33842 13.5098 12.0003 13.5098C14.6621 13.5098 17.0374 14.993 18.5943 17.3146Z" fill="#E6E6E6"/>
<path d="M5.40625 17.3144C6.94756 18.845 9.29261 19.4341 11.9231 19.4454C9.87754 19.4179 8.14375 18.2807 7.49124 15.0781C6.69863 15.6809 5.99399 16.4378 5.40625 17.3144Z" fill="#CCCCCC"/>
<path d="M13.9319 10.7554L12.5434 11.7733C12.3859 11.8892 12.1955 11.9516 11.9999 11.9515C11.805 11.9517 11.615 11.8897 11.4577 11.7746C11.4571 11.7739 11.4564 11.7739 11.4558 11.7733L10.0674 10.7554C10.0654 10.7534 10.0628 10.7521 10.0609 10.7509C10.0583 10.7489 10.0564 10.747 10.0538 10.7451C9.6239 10.4178 9.56711 9.79106 9.93376 9.39147C9.93505 9.39019 9.93633 9.38824 9.93766 9.38696L11.3261 7.89331L11.328 7.89136C11.5101 7.69708 11.7547 7.59961 12 7.59961C12.2453 7.59961 12.4899 7.69708 12.6719 7.89136L12.6739 7.89331L14.0623 9.38696C14.0634 9.38786 14.0642 9.38896 14.0649 9.39019C14.4366 9.79362 14.3746 10.4307 13.9319 10.7554Z" fill="#FF4370"/>
<path d="M11.9999 7.59961V11.9515C11.805 11.9517 11.615 11.8897 11.4577 11.7746C11.4571 11.7739 11.4564 11.7739 11.4558 11.7733L10.0673 10.7554C10.0654 10.7534 10.0628 10.7521 10.0609 10.7509C9.62451 10.4249 9.56515 9.79296 9.93371 9.39147C9.93499 9.39019 9.93627 9.38824 9.9376 9.38696L11.326 7.89331L11.328 7.89136C11.4139 7.79917 11.518 7.72569 11.6336 7.67549C11.7492 7.6253 11.8739 7.59946 11.9999 7.59961Z" fill="#E52E62"/>
<path d="M16.3213 10.8985C16.9113 10.8985 17.3896 10.5657 17.3896 10.1553C17.3896 9.74485 16.9113 9.41211 16.3213 9.41211C15.7312 9.41211 15.2529 9.74485 15.2529 10.1553C15.2529 10.5657 15.7312 10.8985 16.3213 10.8985Z" fill="#51B1CE"/>
<path d="M7.40331 10.8985C7.99334 10.8985 8.47166 10.5657 8.47166 10.1553C8.47166 9.74485 7.99334 9.41211 7.40331 9.41211C6.81328 9.41211 6.33496 9.74485 6.33496 10.1553C6.33496 10.5657 6.81328 10.8985 7.40331 10.8985Z" fill="#51B1CE"/>
<path d="M23.9966 6.70779C24.0163 6.49516 23.9488 6.30407 23.8012 6.15517C23.6355 5.98793 23.4357 5.88195 23.209 5.83899C23.3942 5.57889 23.5407 5.28937 23.5536 5.01382C23.5644 4.78447 23.4872 4.5795 23.3301 4.42105C23.0443 4.13267 22.5794 4.01823 22.0542 4.10711C21.5814 4.18714 20.4541 4.55597 19.4622 6.23154C19.1247 5.59728 18.7291 5.00161 18.2776 4.45498C16.717 2.56527 14.6712 1.46826 12.474 1.33006C12.7601 0.929524 13.4717 0.73225 13.4801 0.730064C13.5716 0.706589 13.6501 0.647696 13.6983 0.566342C13.7465 0.484988 13.7603 0.387837 13.7368 0.296261C13.7134 0.204684 13.6545 0.126184 13.5731 0.0780298C13.4918 0.0298752 13.3946 0.0160106 13.303 0.0394861C13.2559 0.0515573 12.4734 0.259287 12 0.784765C11.5266 0.259287 10.744 0.0516048 10.6969 0.0395336C10.6055 0.016177 10.5086 0.0300225 10.4274 0.0780337C10.3462 0.126045 10.2873 0.204302 10.2638 0.295643C10.2145 0.485931 10.329 0.680258 10.5192 0.729874C10.5282 0.732203 11.2399 0.929524 11.526 1.33006C10.0453 1.42473 8.61109 1.96195 7.35169 2.89823C7.27697 2.95504 7.22767 3.03903 7.21451 3.13197C7.20134 3.22491 7.22537 3.31929 7.28138 3.39462C7.33738 3.46995 7.42084 3.52015 7.51364 3.53432C7.60643 3.54848 7.70106 3.52547 7.77699 3.47028C9.04651 2.52649 10.5068 2.02762 12 2.02762C16.4844 2.02762 20.1328 6.479 20.1328 11.9504C20.1328 13.9804 19.6299 15.581 18.631 16.7481C18.2942 16.29 17.925 15.8656 17.5286 15.4837C17.4949 15.4513 17.4551 15.4257 17.4115 15.4086C17.368 15.3915 17.3215 15.3832 17.2747 15.3841C17.2279 15.3849 17.1817 15.395 17.1388 15.4137C17.0959 15.4325 17.0571 15.4594 17.0246 15.4932C16.9922 15.5269 16.9666 15.5666 16.9495 15.6102C16.9324 15.6538 16.9241 15.7003 16.925 15.7471C16.9258 15.7939 16.9359 15.8401 16.9546 15.883C16.9733 15.9259 17.0003 15.9647 17.034 15.9972C17.4283 16.377 17.7942 16.8026 18.1253 17.2645C16.7666 18.478 14.7219 19.0893 12 19.0893C9.2781 19.0893 7.23336 18.478 5.87473 17.2645C7.42327 15.1007 9.64043 13.866 12.0001 13.866C13.3734 13.866 14.731 14.2921 15.926 15.0982C16.0044 15.1497 16.0999 15.1683 16.1919 15.1499C16.2839 15.1314 16.3649 15.0775 16.4174 14.9997C16.4699 14.9219 16.4895 14.8266 16.4722 14.7344C16.4548 14.6422 16.4018 14.5605 16.3246 14.5072C15.0114 13.6213 13.516 13.1531 12.0001 13.1531C9.44382 13.1531 7.04972 14.4579 5.36907 16.7482C4.37006 15.5811 3.86711 13.9804 3.86711 11.9505C3.86711 9.11067 4.86887 6.40097 6.61549 4.5162C6.67975 4.44686 6.71383 4.35484 6.71024 4.26037C6.70665 4.16591 6.66568 4.07674 6.59634 4.01248C6.52701 3.94823 6.43498 3.91415 6.34052 3.91774C6.24605 3.92133 6.15689 3.9623 6.09263 4.03164C5.48859 4.68343 4.96849 5.42686 4.54039 6.23592C3.54779 4.55654 2.41899 4.18718 1.94569 4.10711C1.42083 4.01833 0.955662 4.13272 0.66985 4.4211C0.512829 4.5795 0.435554 4.78452 0.446342 5.01387C0.459269 5.28942 0.605739 5.57894 0.790895 5.83904C0.564251 5.882 0.364363 5.98803 0.198692 6.15522C0.0511764 6.30411 -0.0164034 6.49521 0.00336681 6.70783C0.0380121 7.081 0.367404 7.48495 0.716376 7.81449C0.590959 7.85484 0.482746 7.91187 0.39245 7.98534C0.19817 8.14341 0.0954692 8.36829 0.0954692 8.63566C0.0954692 8.95959 0.297258 9.42709 1.87084 10.1727C2.39442 10.4208 2.91182 10.6258 3.2126 10.74C3.17395 11.1423 3.1545 11.5463 3.15429 11.9505C3.15429 16.3231 5.3713 18.9405 9.60036 19.6225V21.6669L8.34719 22.9201C8.28083 22.987 8.2437 23.0775 8.24391 23.1718C8.24412 23.2661 8.28166 23.3564 8.34832 23.4231C8.41497 23.4897 8.50531 23.5272 8.59958 23.5274C8.69384 23.5276 8.78434 23.4905 8.85128 23.4241L9.60036 22.6751V23.6155C9.60036 23.8123 9.7599 23.9719 9.9568 23.9719C10.1537 23.9719 10.3132 23.8123 10.3132 23.6155V22.6751L11.0623 23.4241C11.0954 23.4573 11.1347 23.4836 11.1779 23.5015C11.2212 23.5194 11.2676 23.5286 11.3144 23.5285C11.3849 23.5286 11.4538 23.5077 11.5124 23.4685C11.571 23.4293 11.6167 23.3737 11.6437 23.3085C11.6707 23.2434 11.6777 23.1717 11.664 23.1026C11.6502 23.0335 11.6163 22.9699 11.5665 22.9201L10.3133 21.6669V19.7171C10.847 19.7735 11.409 19.8022 12.0001 19.8022C12.591 19.8022 13.1531 19.7735 13.6868 19.7171V21.6669L12.4336 22.9201C12.3673 22.987 12.3301 23.0775 12.3303 23.1718C12.3306 23.2661 12.3681 23.3564 12.4348 23.4231C12.5014 23.4897 12.5918 23.5272 12.686 23.5274C12.7803 23.5276 12.8708 23.4905 12.9377 23.4241L13.6868 22.6751V23.6155C13.6868 23.8123 13.8463 23.9719 14.0432 23.9719C14.2401 23.9719 14.3997 23.8123 14.3997 23.6155V22.6751L15.1488 23.4242C15.1819 23.4573 15.2212 23.4836 15.2644 23.5015C15.3077 23.5195 15.354 23.5287 15.4009 23.5286C15.4714 23.5286 15.5403 23.5077 15.5989 23.4685C15.6575 23.4294 15.7032 23.3737 15.7302 23.3086C15.7572 23.2435 15.7642 23.1718 15.7505 23.1026C15.7367 23.0335 15.7028 22.97 15.6529 22.9201L14.3997 21.6669V19.6226C18.6288 18.9405 20.8458 16.3232 20.8458 11.9505C20.8458 11.5428 20.8263 11.1388 20.7889 10.7394C21.0898 10.6253 21.6065 10.4205 22.1292 10.1727C23.7028 9.42709 23.9046 8.95964 23.9046 8.63566C23.9046 8.36829 23.8019 8.14341 23.6076 7.98534C23.5173 7.91187 23.4091 7.85484 23.2838 7.81449C23.6325 7.48491 23.962 7.081 23.9966 6.70779ZM2.25332 9.56481C0.989595 8.97584 0.824542 8.66394 0.808479 8.62583C0.810332 8.56447 0.829295 8.54893 0.842126 8.53848C0.974197 8.43055 1.37687 8.44053 1.61611 8.48919C1.69663 8.50593 1.78047 8.4943 1.85339 8.45628C1.92632 8.41826 1.98386 8.35619 2.01625 8.28059C2.04864 8.205 2.05389 8.12053 2.03112 8.0415C2.00834 7.96247 1.95893 7.89376 1.89128 7.847C1.88809 7.84476 1.56583 7.62121 1.25012 7.33216C0.785429 6.90672 0.722602 6.69657 0.714238 6.64786C0.766515 6.59658 0.904953 6.48152 1.22874 6.5539C1.44678 6.60257 1.62319 6.70883 1.62371 6.70912C1.70033 6.75656 1.79207 6.77322 1.88047 6.75573C1.96887 6.73825 2.04737 6.68792 2.10015 6.61488C2.15293 6.5418 2.17608 6.45145 2.16494 6.36199C2.15379 6.27254 2.10918 6.19063 2.04008 6.13274C1.69253 5.84165 1.17204 5.27407 1.15845 4.98027C1.15669 4.94263 1.16572 4.93351 1.17622 4.92291C1.26357 4.8348 1.48618 4.75239 1.82679 4.80999C3.012 5.01055 3.84838 6.4157 4.16019 7.02763C3.75447 7.96267 3.46434 8.968 3.30318 10.0107C3.02607 9.90267 2.64145 9.74574 2.25332 9.56481ZM22.1087 7.847C22.041 7.89376 21.9916 7.96247 21.9689 8.0415C21.9461 8.12053 21.9513 8.205 21.9837 8.28059C22.0161 8.35619 22.0737 8.41826 22.1466 8.45628C22.2195 8.4943 22.3034 8.50593 22.3839 8.48919C22.6162 8.44096 23.0253 8.43069 23.1576 8.53829C23.1705 8.54879 23.1897 8.56433 23.1915 8.62583C23.1754 8.66394 23.0103 8.97584 21.7467 9.56481C21.3596 9.74522 20.9761 9.90181 20.6991 10.0098C20.5395 8.96278 20.2512 7.95725 19.8432 7.02088C20.1577 6.40539 20.9923 5.00983 22.1732 4.80999C22.5138 4.75234 22.7365 4.8348 22.8238 4.92286C22.8342 4.93341 22.8432 4.94254 22.8415 4.98022C22.8279 5.27402 22.3074 5.84161 21.9601 6.13255C21.8908 6.19035 21.8461 6.27226 21.8348 6.36175C21.8236 6.45124 21.8467 6.54166 21.8995 6.61479C21.9523 6.68792 22.0308 6.73832 22.1193 6.75582C22.2078 6.77333 22.2996 6.75664 22.3763 6.70912C22.3823 6.70541 22.9749 6.35216 23.2868 6.64919C23.2733 6.81866 22.8237 7.35198 22.1087 7.847Z" fill="black"/>
<path d="M12.9288 7.64396C12.6882 7.38904 12.3499 7.24295 12 7.24295C11.6507 7.24295 11.313 7.38857 11.0714 7.64377C11.0692 7.64597 11.0671 7.64819 11.0651 7.65043L9.67658 9.14407C9.67292 9.14804 9.66932 9.15206 9.66579 9.15615C9.54761 9.28675 9.45767 9.44036 9.40162 9.60734C9.34557 9.77433 9.32461 9.95109 9.34006 10.1265C9.35585 10.3018 9.40765 10.472 9.49223 10.6263C9.5768 10.7807 9.69232 10.9159 9.83156 11.0235C9.83669 11.0278 9.84211 11.0321 9.84795 11.0364C9.85166 11.0392 9.85546 11.0419 9.85927 11.0445L11.2451 12.0606L11.2525 12.0659C11.4697 12.2238 11.7315 12.3084 12 12.3077C12.2737 12.3077 12.5347 12.2221 12.7542 12.0606L14.1427 11.0427C14.2876 10.9364 14.4084 10.8007 14.4973 10.6445C14.5862 10.4883 14.6412 10.3152 14.6587 10.1363C14.6757 9.95936 14.6557 9.78082 14.5998 9.61208C14.544 9.44334 14.4535 9.28812 14.3342 9.15634C14.3307 9.15217 14.327 9.14808 14.3233 9.14407L12.9349 7.65043C12.9329 7.64823 12.9309 7.64608 12.9288 7.64396ZM11.5843 8.13893L11.5882 8.13484C11.6963 8.01941 11.8426 7.95582 12 7.95582C12.1574 7.95582 12.3037 8.01941 12.4118 8.13484L12.4163 8.1395L13.6992 9.51966C13.147 9.67939 12.5749 9.76035 12.0001 9.76013H11.9996C11.4248 9.76037 10.8528 9.67949 10.3006 9.5199L11.5843 8.13893ZM13.7212 10.4677L12.3322 11.486C12.236 11.557 12.1195 11.5952 12 11.5948C11.8796 11.5948 11.7649 11.5575 11.6683 11.4868L11.6618 11.4821L10.285 10.4727C10.2812 10.4698 10.2774 10.4669 10.2734 10.4641L10.2698 10.4612C10.1815 10.3944 10.1152 10.3027 10.0794 10.198C10.7031 10.3806 11.3497 10.4732 11.9996 10.4729H12C12.65 10.4732 13.2967 10.3805 13.9205 10.1977C13.8834 10.3061 13.8138 10.4004 13.7212 10.4677ZM7.37611 8.22524C7.62025 7.9811 7.94479 7.84666 8.29001 7.84666C8.63522 7.84666 8.95982 7.9811 9.2039 8.22524C9.23697 8.25839 9.27626 8.28468 9.31952 8.3026C9.36277 8.32052 9.40915 8.32971 9.45597 8.32965C9.52648 8.32966 9.5954 8.30876 9.65403 8.2696C9.71266 8.23043 9.75835 8.17476 9.78534 8.10962C9.81232 8.04449 9.81938 7.97281 9.80562 7.90366C9.79186 7.83451 9.7579 7.77099 9.70804 7.72114C9.32922 7.34237 8.8257 7.13379 8.29001 7.13379C7.75431 7.13379 7.25079 7.34237 6.87197 7.72114C6.83887 7.75425 6.81262 7.79354 6.79471 7.83679C6.77679 7.88004 6.76758 7.9264 6.76758 7.97321C6.76758 8.02002 6.7768 8.06637 6.79472 8.10962C6.81263 8.15287 6.83889 8.19216 6.872 8.22526C6.9051 8.25836 6.9444 8.28461 6.98764 8.30253C7.03089 8.32044 7.07725 8.32966 7.12406 8.32965C7.17087 8.32965 7.21722 8.32043 7.26047 8.30251C7.30372 8.2846 7.34301 8.25834 7.37611 8.22524ZM14.7957 8.22524C15.0399 7.9811 15.3644 7.84666 15.7096 7.84666C16.0548 7.84666 16.3794 7.9811 16.6235 8.22524C16.6566 8.25839 16.6959 8.28468 16.7391 8.3026C16.7824 8.32052 16.8288 8.32971 16.8756 8.32965C16.9461 8.32966 17.015 8.30876 17.0736 8.2696C17.1323 8.23043 17.178 8.17476 17.205 8.10962C17.2319 8.04449 17.239 7.97281 17.2252 7.90366C17.2115 7.83451 17.1775 7.77099 17.1277 7.72114C16.7488 7.34237 16.2453 7.13379 15.7096 7.13379C15.1739 7.13379 14.6704 7.34237 14.2916 7.72114C14.2585 7.75425 14.2322 7.79354 14.2143 7.83679C14.1964 7.88004 14.1872 7.9264 14.1872 7.97321C14.1872 8.02002 14.1964 8.06637 14.2143 8.10962C14.2322 8.15287 14.2585 8.19216 14.2916 8.22526C14.3247 8.25836 14.364 8.28461 14.4073 8.30253C14.4505 8.32044 14.4969 8.32966 14.5437 8.32965C14.5905 8.32965 14.6368 8.32043 14.6801 8.30251C14.7233 8.2846 14.7626 8.25834 14.7957 8.22524Z" fill="black"/>
</g>
<defs>
<clipPath id="clip0_377_2647">
<rect width="24" height="24" fill="white"/>
</clipPath>
</defs>
</svg>
