<svg width="24" height="24" viewBox="0 0 24 24" fill="none" xmlns="http://www.w3.org/2000/svg">
<g clip-path="url(#clip0_377_2559)">
<path d="M23.0315 10.772C23.0895 10.1916 23.1197 9.60355 23.1197 9.008C23.1197 8.46933 23.0956 7.936 23.047 7.40889C22.8593 5.32489 22.3059 3.33867 21.4487 1.50844C21.2076 0.992444 20.9424 0.489333 20.6542 0C20.1376 0.191556 19.6375 0.415556 19.1582 0.668889C17.4358 1.57778 15.9718 2.86933 14.8957 4.42178C13.9484 4.29067 12.9789 4.22222 11.992 4.22222C11.005 4.22222 9.98978 4.29333 9.02123 4.432C7.65498 2.45778 5.66174 0.902667 3.30712 0.0191111C2.00031 2.24533 1.16292 4.75111 0.924202 7.41644C0.876553 7.94044 0.852492 8.472 0.852492 9.008C0.852492 9.16311 0.85438 9.31689 0.858154 9.47022C0.869948 9.92222 0.898726 10.3698 0.944488 10.8129C0.877496 10.9258 0.814751 11.0409 0.754836 11.1573C0.270797 12.0938 0 13.1458 0 14.2569C0 14.4831 0.0117943 14.7062 0.0330241 14.9262C0.182104 16.4249 0.823714 17.7876 1.80594 18.8698C1.80594 18.8698 1.80657 18.8704 1.80783 18.8716C2.21214 19.2591 2.63626 19.6298 3.07454 19.9818C3.07643 19.9836 3.07926 19.9853 3.08114 19.9862C3.49536 20.32 3.92279 20.636 4.36531 20.9351C5.15789 21.472 5.99481 21.9551 6.86948 22.3773C8.22393 23.0338 9.66992 23.5471 11.1852 23.8942C11.2791 23.916 11.373 23.9373 11.4678 23.9564C11.6344 23.9858 11.8066 24 11.9816 24C12.1566 24 12.3425 23.9836 12.5156 23.9533C12.5987 23.9351 12.6812 23.9169 12.7633 23.8978C14.1102 23.5898 15.4019 23.1511 16.6253 22.5969C16.7899 22.524 16.9512 22.4476 17.1131 22.3689C17.9731 21.9524 18.7968 21.4773 19.5767 20.9507C19.9588 20.6929 20.3315 20.4218 20.6924 20.1387C20.6933 20.1378 20.6943 20.1369 20.6952 20.136C21.2934 19.6693 21.8624 19.168 22.3974 18.6373C22.3983 18.6364 22.3993 18.6356 22.3993 18.6356C23.4027 17.4284 24.0005 15.9089 24.0005 14.2573C24.0005 12.9902 23.6485 11.8018 23.0319 10.7724L23.0315 10.772ZM6.79541 14.8742C5.81035 14.8742 5.01211 14.1222 5.01211 13.1942C5.01211 12.2662 5.81035 11.5151 6.79541 11.5151C7.78047 11.5151 8.57776 12.2671 8.57776 13.1942C8.57776 14.1213 7.77952 14.8742 6.79541 14.8742ZM16.9711 17.4493C16.9673 17.4573 16.9626 17.4658 16.9574 17.4738C16.846 17.6907 16.7215 17.9013 16.5866 18.1044C16.0643 18.8938 15.3817 19.5804 14.5825 20.1218C14.1588 20.4089 13.7022 20.656 13.2181 20.8556C13.1969 20.8653 13.1757 20.8747 13.1535 20.8831C12.8129 21.0169 12.4383 21.0911 12.0467 21.0911C11.7004 21.0911 11.3683 21.0338 11.0607 20.928C11.0598 20.9271 11.0588 20.9271 11.0569 20.9262C10.9475 20.8844 10.8404 20.8396 10.7338 20.7929C10.2662 20.588 9.82513 20.3391 9.41657 20.0511C8.65796 19.5187 8.01069 18.8551 7.5092 18.0969C7.37946 17.9009 7.25963 17.6987 7.15112 17.4898C7.14358 17.4751 7.13556 17.4609 7.12801 17.4453C7.11621 17.4169 7.10961 17.3862 7.10961 17.3542C7.10961 17.2111 7.23227 17.0951 7.38465 17.0951C7.4757 17.0951 7.5559 17.1369 7.6045 17.2009C7.61299 17.2138 7.62101 17.2258 7.6295 17.2373C7.66819 17.292 7.7097 17.3449 7.75358 17.3969C8.10977 17.8271 8.60135 18.1533 9.16937 18.3187C9.43828 18.3978 9.72558 18.4409 10.0228 18.4409C10.4766 18.4409 10.9064 18.3413 11.2886 18.1658C11.3188 18.152 11.3485 18.1373 11.3777 18.1227C11.5782 18.0098 11.7127 17.8036 11.7127 17.5676C11.7127 17.52 11.708 17.4747 11.6971 17.4307C11.6915 17.4053 11.6834 17.3804 11.674 17.356C11.34 17.2813 11.0296 17.1507 10.7526 16.976C10.4983 16.8164 10.2728 16.6196 10.0851 16.3933C9.98931 16.2804 9.90391 16.1591 9.82985 16.0316C9.81428 16.0049 9.79871 15.9787 9.7855 15.9511C9.78361 15.9484 9.78267 15.9458 9.78173 15.944C9.74681 15.8667 9.72747 15.7809 9.72747 15.6924C9.72747 15.4529 9.8657 15.2431 10.0719 15.132C10.0719 15.132 10.0719 15.1311 10.0738 15.1311C10.1115 15.1138 10.1502 15.0982 10.1889 15.0827C10.1889 15.0809 10.1917 15.0809 10.1936 15.0809C10.5682 14.9267 10.9668 14.8191 11.3839 14.7636C11.6004 14.7342 11.8221 14.7191 12.0476 14.7191C12.2732 14.7191 12.4977 14.7347 12.7152 14.7636C13.1389 14.8209 13.5446 14.9324 13.9229 15.0889C13.9239 15.088 13.9248 15.0898 13.9248 15.0898C13.9395 15.0951 13.9527 15.1009 13.9673 15.1071C13.9819 15.1116 13.9965 15.1191 14.0097 15.1253C14.2216 15.2356 14.365 15.448 14.365 15.6924C14.365 15.8009 14.3372 15.9031 14.2867 15.9933C14.2848 15.9969 14.2829 15.9996 14.281 16.0031C14.2027 16.1409 14.1117 16.2711 14.0093 16.3924C13.8225 16.6178 13.5979 16.8147 13.3445 16.9742C13.0695 17.1484 12.761 17.2778 12.4293 17.3533C12.4194 17.3787 12.4119 17.4044 12.4062 17.4307C12.3953 17.4742 12.3906 17.52 12.3906 17.5676C12.3906 17.812 12.5336 18.0244 12.7459 18.1338C12.7515 18.1373 12.7586 18.1409 12.7652 18.144C13.1582 18.3347 13.604 18.4413 14.0763 18.4413C14.3725 18.4413 14.658 18.3996 14.9269 18.3209C15.4949 18.156 15.9874 17.8298 16.3436 17.3991C16.3922 17.3436 16.4365 17.2853 16.4781 17.2258C16.4837 17.2147 16.4917 17.2049 16.4993 17.1947C16.5488 17.132 16.629 17.0907 16.7201 17.0907C16.871 17.0907 16.9937 17.2062 16.9937 17.3489C16.9937 17.3844 16.9862 17.4182 16.9725 17.4502L16.9711 17.4493ZM21.3109 9.21422C20.4641 7.82844 19.1356 6.73733 17.541 6.14311C18.318 4.84044 19.2568 3.63467 20.3296 2.55067C21.0566 4.02267 21.4628 5.66356 21.4628 7.39467C21.4628 8.01378 21.4104 8.62178 21.3109 9.21422Z" fill="#F7E3CD"/>
<path d="M16.2889 14.9627C16.2743 14.9533 16.2597 14.9444 16.2455 14.9351C16.2446 14.9351 16.2446 14.9342 16.2436 14.9342C15.2972 14.3462 14.2018 13.9533 13.0233 13.8187C13.0224 13.8178 13.0214 13.8187 13.0214 13.8187C12.9054 13.804 12.7903 13.7933 12.6733 13.7858C12.4836 13.772 12.2921 13.7649 12.0986 13.7649C11.9052 13.7649 11.7047 13.772 11.5113 13.7867C11.3952 13.7938 11.2801 13.8049 11.1659 13.8196C9.96198 13.9582 8.84765 14.3649 7.88854 14.9729H7.88665C7.38468 15.3769 6.7643 15.5756 6.05382 15.5756C5.83208 15.5756 5.61648 15.552 5.40937 15.5071C5.2669 15.4698 5.12584 15.4276 4.98761 15.3822C4.11106 15.0987 3.30857 14.6658 2.61224 14.1169C2.56883 14.0778 2.52307 14.0413 2.47589 14.0067C2.17585 13.7889 1.79843 13.6596 1.39129 13.6596C0.828937 13.6596 0.327915 13.9049 0.000976562 14.2876V14.2573C0.000976562 13.3058 0.199121 12.3978 0.561442 11.568C0.621357 11.4284 0.686462 11.292 0.755812 11.1578C0.815727 11.0413 0.878473 10.9262 0.945465 10.8133C0.900175 10.3702 0.870925 9.92267 0.85913 9.47067C0.855356 9.31733 0.853469 9.16356 0.853469 9.00844C0.853469 8.47244 0.87753 7.94089 0.925178 7.41689C1.02095 6.34933 1.21249 5.30844 1.49225 4.3C1.90835 2.78933 2.52354 1.35378 3.30716 0.0191111C4.38987 0.424889 5.39522 0.972444 6.29819 1.63911C7.36157 2.42044 8.28294 3.36489 9.02126 4.432C9.61239 4.34711 10.2125 4.288 10.8201 4.25511C11.207 4.23333 11.5981 4.22222 11.992 4.22222C12.4567 4.22222 12.9172 4.23778 13.3729 4.26711C13.8867 4.30089 14.3947 4.35289 14.8958 4.42222C15.6416 3.34578 16.5758 2.39378 17.6523 1.60889C18.1274 1.26178 18.6308 0.948 19.1578 0.668889C19.6366 0.415556 20.1372 0.191111 20.6538 0C20.942 0.489333 21.2071 0.992889 21.4482 1.50844C21.8162 2.29422 22.1285 3.10933 22.379 3.948C22.714 5.06267 22.9395 6.22044 23.0466 7.40933C23.0952 7.936 23.1192 8.46933 23.1192 9.00844C23.1192 9.60355 23.089 10.1916 23.031 10.7724C23.2207 11.0889 23.3863 11.4213 23.5226 11.7662C23.8118 12.4938 23.9783 13.2787 23.9977 14.0969V14.1089C23.6802 13.8302 23.2546 13.6596 22.7852 13.6596C22.3993 13.6596 22.0422 13.7742 21.7506 13.9711C21.6666 14.0267 21.5879 14.0907 21.5157 14.16C20.8113 14.7062 20.0003 15.1329 19.1167 15.4089C19.1167 15.4089 19.1139 15.4089 19.112 15.4107C19.0172 15.44 18.9205 15.468 18.8237 15.4938C18.5992 15.5476 18.3642 15.576 18.1222 15.576C17.5396 15.576 16.9961 15.4129 16.5432 15.132C16.488 15.0929 16.4309 15.0556 16.3738 15.0191C16.3408 14.9956 16.2889 14.9636 16.2889 14.9636V14.9627Z" fill="#F8972C"/>
<path d="M8.5764 13.1942C8.5764 14.1222 7.77816 14.8742 6.79404 14.8742C5.80992 14.8742 5.01074 14.1222 5.01074 13.1942C5.01074 12.2662 5.80898 11.5151 6.79404 11.5151C7.7791 11.5151 8.5764 12.2671 8.5764 13.1942Z" fill="#3C3C3B"/>
<path d="M7.35002 13.4013C7.72885 13.4013 8.03598 13.112 8.03598 12.7551C8.03598 12.3982 7.72885 12.1089 7.35002 12.1089C6.97119 12.1089 6.66406 12.3982 6.66406 12.7551C6.66406 13.112 6.97119 13.4013 7.35002 13.4013Z" fill="white"/>
<path d="M15.3709 13.5834C15.3214 13.63 15.2568 13.6536 15.1813 13.6536C15.0294 13.6536 14.9062 13.538 14.9062 13.3945C14.9062 13.3425 14.9228 13.294 14.9506 13.254C14.9544 13.2487 14.9581 13.2429 14.9633 13.2376C14.9633 13.2367 14.9643 13.2358 14.9652 13.2349C14.9671 13.2331 14.9681 13.2322 14.969 13.2305C15.4946 12.5807 16.3258 12.1611 17.2604 12.1611C18.195 12.1611 19.03 12.5834 19.5556 13.2358C19.5631 13.2451 19.5702 13.254 19.5768 13.2642C19.6037 13.3034 19.6183 13.3509 19.6183 13.4002C19.6183 13.5434 19.4957 13.6594 19.3447 13.6594C19.2777 13.6594 19.2178 13.6376 19.1706 13.6011C19.164 13.5958 19.1569 13.59 19.1503 13.5838C18.6441 13.1691 17.9831 12.9176 17.2604 12.9176C17.1637 12.9176 17.0689 12.922 16.975 12.9314C16.8929 12.9385 16.8113 12.9496 16.7311 12.9634C16.5164 13.0007 16.3102 13.0607 16.1159 13.1411C16.0772 13.1567 16.0385 13.1731 16.0008 13.1914C15.9621 13.2087 15.9243 13.2269 15.8875 13.246C15.8507 13.2642 15.8139 13.2842 15.7781 13.3051C15.7422 13.3251 15.7064 13.346 15.6715 13.3678C15.6366 13.3896 15.6016 13.4114 15.5681 13.4362C15.5332 13.4589 15.5007 13.4829 15.4677 13.5082C15.4346 13.5318 15.4026 13.5576 15.3719 13.5829L15.3709 13.5838V13.5834Z" fill="#3C3C3B"/>
<path d="M21.4629 7.39478C21.4629 8.01389 21.4105 8.62189 21.3109 9.21434C20.4641 7.82856 19.1356 6.73745 17.541 6.14323C18.318 4.84056 19.2564 3.63478 20.3297 2.55078C21.0562 4.02278 21.4629 5.66367 21.4629 7.39478Z" stroke="#3C3C3B" stroke-width="1.33" stroke-miterlimit="10"/>
<path d="M2.64551 7.39478C2.64551 8.01389 2.69787 8.62189 2.79742 9.21434C3.64425 7.82856 4.97276 6.73745 6.56735 6.14323C5.79034 4.84056 4.85151 3.63478 3.7787 2.55078C3.05218 4.02278 2.64551 5.66367 2.64551 7.39478Z" fill="#3C3C3B"/>
<path d="M16.9926 17.3486C16.9926 17.3841 16.985 17.4179 16.9713 17.4499C16.9676 17.4579 16.9628 17.4664 16.9577 17.4744C16.8463 17.6912 16.7218 17.9019 16.5868 18.105C15.7877 19.3139 14.6139 20.2792 13.2184 20.8561C13.1972 20.8659 13.1759 20.8752 13.1538 20.8837C12.8131 21.0175 12.4385 21.0912 12.047 21.0912C11.7007 21.0912 11.3686 21.0339 11.061 20.9281C11.06 20.9272 11.0591 20.9272 11.0572 20.9263C10.9477 20.8846 10.8407 20.8397 10.734 20.793C9.40175 20.2077 8.28129 19.2655 7.50994 18.0966C7.3802 17.9006 7.26037 17.6984 7.15187 17.4895C7.14432 17.4748 7.1363 17.4606 7.12875 17.445C7.11696 17.4166 7.11035 17.3859 7.11035 17.3539C7.11035 17.2108 7.23301 17.0948 7.38539 17.0948C7.47645 17.0948 7.55665 17.1366 7.60524 17.2006C7.61373 17.2135 7.62175 17.2255 7.63024 17.237C7.66893 17.2917 7.71045 17.3446 7.75432 17.3966C8.11051 17.8268 8.6021 18.153 9.17011 18.3184C9.43902 18.3975 9.72633 18.4406 10.0235 18.4406C10.4774 18.4406 10.9072 18.341 11.2893 18.1655C11.3204 18.1526 11.3502 18.1388 11.3785 18.1223C11.579 18.0095 11.7134 17.8032 11.7134 17.5672C11.7134 17.5197 11.7087 17.4743 11.6979 17.4303C11.6922 17.405 11.6842 17.3801 11.6747 17.3557C11.3407 17.281 11.0303 17.1504 10.7534 16.9757C10.4986 16.8161 10.2736 16.6192 10.0858 16.393C9.99005 16.2801 9.90466 16.1588 9.83059 16.0312C9.81502 16.005 9.79945 15.9783 9.78624 15.9512C9.78436 15.9486 9.78341 15.9459 9.78247 15.9441C9.74756 15.8668 9.72822 15.781 9.72822 15.6926C9.72822 15.453 9.86645 15.2432 10.0726 15.1321C10.0726 15.1321 10.0736 15.1312 10.0745 15.1312C10.1122 15.1139 10.1509 15.0983 10.1896 15.0828C10.1906 15.081 10.1924 15.081 10.1943 15.081C10.5689 14.9268 10.9676 14.8192 11.3846 14.7637C11.6012 14.7343 11.8229 14.7192 12.0484 14.7192C12.2739 14.7192 12.4985 14.7348 12.7159 14.7637C13.1396 14.821 13.5453 14.9326 13.9237 15.089C13.9246 15.0881 13.9256 15.0899 13.9256 15.0899C13.9402 15.0952 13.9539 15.1006 13.968 15.1072C13.9827 15.1117 13.9973 15.1192 14.0105 15.1255C14.2223 15.2357 14.3657 15.4481 14.3657 15.6926C14.3657 15.801 14.3379 15.9032 14.2874 15.9935C14.2855 15.997 14.2836 15.9997 14.2818 16.0032C14.2034 16.141 14.1124 16.2712 14.01 16.3926C13.8232 16.6179 13.5986 16.8148 13.3453 16.9744C13.0703 17.1486 12.7617 17.2779 12.4301 17.3535C12.4201 17.3788 12.4126 17.4046 12.4069 17.4308C12.3966 17.4743 12.3914 17.5201 12.3914 17.5677C12.3914 17.8121 12.5348 18.0246 12.7466 18.1339C12.7523 18.1375 12.7594 18.141 12.766 18.1441C13.1589 18.3348 13.6048 18.4415 14.077 18.4415C14.3728 18.4415 14.6587 18.3997 14.9276 18.321C15.4956 18.1561 15.9882 17.8299 16.3444 17.3992C16.3929 17.3437 16.4373 17.2855 16.4788 17.2259C16.4845 17.2148 16.4925 17.205 16.5 17.1948C16.5496 17.1321 16.6298 17.0908 16.7208 17.0908C16.8718 17.0908 16.9945 17.2064 16.9945 17.349L16.9926 17.3486Z" fill="#3C3C3B"/>
<path d="M14.3875 19.0865C14.313 19.2807 14.2154 19.4647 14.0965 19.6354C13.7044 20.2051 13.0911 20.6265 12.3712 20.7931C12.2811 20.8003 12.1891 20.8051 12.0976 20.8051C12.006 20.8051 11.9155 20.8016 11.8258 20.7931C11.1021 20.6265 10.4865 20.2025 10.094 19.6291C9.97695 19.4598 9.88024 19.2771 9.80664 19.0843C9.97601 19.1136 10.1501 19.1287 10.3284 19.1287C10.6431 19.1287 10.946 19.0816 11.229 18.9931C11.2319 18.9931 11.2347 18.9914 11.238 18.9905C11.5079 18.9123 11.7942 18.8691 12.0924 18.8691C12.3703 18.8691 12.6392 18.9065 12.8934 18.9767C12.9505 18.9967 13.0076 19.014 13.0656 19.0287C13.3171 19.0971 13.5832 19.1336 13.8582 19.1336C14.0389 19.1336 14.2172 19.118 14.3885 19.0869L14.3875 19.0865Z" fill="white"/>
<path d="M21.3109 9.21434C20.4641 7.82856 19.1356 6.73745 17.541 6.14323C18.318 4.84056 19.2564 3.63478 20.3297 2.55078C21.0562 4.02278 21.4629 5.66367 21.4629 7.39478C21.4629 8.01389 21.4105 8.62189 21.3109 9.21434Z" fill="#3C3C3B"/>
<path d="M9.12238 9.81972C9.20258 9.92372 9.27052 10.0366 9.32477 10.1579C9.39743 10.3202 9.44272 10.4979 9.45734 10.6837C9.46395 10.7722 9.46395 10.8579 9.45545 10.9437C9.43894 11.1442 9.38375 11.3348 9.29694 11.5091C9.29033 11.5091 9.2842 11.5108 9.2776 11.5108C9.06766 11.5246 8.86432 11.5046 8.67373 11.4544C8.41048 11.3859 8.16846 11.2611 7.96843 11.0935C7.85615 10.9997 7.7566 10.8939 7.67216 10.7771C7.59384 10.6477 7.5443 10.4997 7.53204 10.3402C7.52119 10.1953 7.54289 10.0539 7.59101 9.92639C7.59195 9.92017 7.59478 9.9135 7.59667 9.90817C7.6179 9.85172 7.64621 9.79705 7.67876 9.74505C7.72499 9.67839 7.78538 9.61928 7.8585 9.57083C7.9321 9.52239 8.01325 9.48861 8.09675 9.47039C8.13355 9.46417 8.17035 9.45928 8.20809 9.45661C8.22837 9.45572 8.24866 9.45394 8.26989 9.45483H8.3048C8.62891 9.45928 8.92424 9.59794 9.12333 9.81928H9.12238V9.81972Z" fill="white"/>
<path d="M15.0516 9.81972C14.9714 9.92372 14.9035 10.0366 14.8492 10.1579C14.7766 10.3202 14.7313 10.4979 14.7167 10.6837C14.71 10.7722 14.71 10.8579 14.7185 10.9437C14.7351 11.1442 14.7902 11.3348 14.8771 11.5091C14.8837 11.5091 14.8898 11.5108 14.8964 11.5108C15.1063 11.5246 15.3097 11.5046 15.5003 11.4544C15.7635 11.3859 16.0055 11.2611 16.2056 11.0935C16.3178 10.9997 16.4174 10.8939 16.5014 10.7771C16.5797 10.6477 16.6292 10.4997 16.6415 10.3402C16.6519 10.1953 16.6311 10.0539 16.5825 9.92639C16.5816 9.92017 16.5787 9.9135 16.5769 9.90817C16.5556 9.85172 16.5273 9.79705 16.4948 9.74505C16.4485 9.67839 16.3881 9.61928 16.315 9.57083C16.2414 9.52239 16.1603 9.48861 16.0768 9.47039C16.04 9.46417 16.0032 9.45928 15.9654 9.45661C15.9451 9.45572 15.9249 9.45394 15.9036 9.45483H15.8687C15.5446 9.45928 15.2493 9.59794 15.0502 9.81928H15.0511L15.0516 9.81972Z" fill="white"/>
</g>
<defs>
<clipPath id="clip0_377_2559">
<rect width="24" height="24" fill="white"/>
</clipPath>
</defs>
</svg>
